if (_typeface_js && _typeface_js.loadFace) _typeface_js.loadFace({"glyphs":{"S":{"x_min":68.984375,"x_max":1018,"ha":1039,"o":"m 552 983 q 617 981 609 983 q 733 926 673 958 q 861 851 794 894 q 902 845 884 845 q 963 874 944 845 q 975 903 975 892 q 964 926 975 914 q 954 943 954 939 l 954 946 q 983 974 954 974 q 1012 925 1012 974 q 974 846 1012 879 q 939 818 959 832 q 892 794 918 805 q 846 775 869 784 q 802 755 824 765 l 784 758 l 556 889 q 516 899 534 896 q 483 904 498 903 q 233 787 330 908 q 143 523 143 676 q 152 434 143 474 q 366 145 195 242 q 720 63 513 63 q 908 156 836 79 q 982 344 982 234 q 982 355 982 349 q 981 367 982 360 q 918 501 974 440 q 786 564 857 564 q 772 563 779 564 q 758 561 765 562 q 722 542 755 559 q 622 491 688 525 q 458 430 515 437 q 409 470 434 450 q 360 511 384 491 q 291 615 307 559 q 287 651 287 633 q 338 766 287 719 q 459 816 390 816 q 559 787 510 816 q 628 709 609 757 l 599 697 q 488 780 551 772 q 476 782 481 782 q 463 782 470 782 q 366 750 406 782 q 322 662 322 714 q 327 627 322 643 q 419 545 347 558 q 480 552 448 537 l 723 668 q 752 666 724 666 q 763 665 756 665 q 941 545 865 643 q 1018 344 1018 448 q 892 70 1018 176 q 606 -31 774 -31 q 231 94 383 -31 q 69 442 67 228 q 552 981 73 878 l 552 983 "},"/":{"x_min":-11.109375,"x_max":402.8125,"ha":376,"o":"m 356 989 l 402 979 l 29 -147 l -11 -135 l 356 989 "},"y":{"x_min":44.28125,"x_max":530,"ha":566,"o":"m 127 693 l 149 681 q 142 637 142 665 q 161 593 149 624 q 187 512 172 562 q 200 504 191 508 l 363 661 l 389 661 l 389 633 q 530 263 530 418 q 451 15 530 145 q 372 -97 424 -27 q 239 -268 320 -168 l 217 -255 q 440 251 440 43 q 297 548 440 423 q 243 506 267 529 q 200 459 219 483 q 200 102 188 272 q 225 77 205 77 q 236 80 227 77 q 287 116 236 80 l 301 93 q 256 54 287 83 q 177 -23 226 25 q 134 -24 151 -36 q 113 0 120 -8 q 104 9 105 8 q 88 20 98 13 q 63 34 79 26 q 60 63 60 48 q 74 68 66 65 q 104 131 104 81 l 104 458 q 81 513 102 488 q 63 530 72 522 q 44 548 54 538 q 127 691 66 630 l 127 693 "},"Á":{"x_min":0,"x_max":287.515625,"ha":344,"o":"m 0 357 l 287 358 l 287 310 l 0 310 l 0 357 "},"g":{"x_min":53.890625,"x_max":545,"ha":592,"o":"m 293 658 q 329 657 308 664 q 527 554 402 589 q 482 297 482 393 q 484 243 482 269 q 491 189 486 217 q 517 121 498 162 q 542 48 536 76 q 544 29 543 39 q 545 8 545 19 q 464 -181 545 -101 q 277 -264 384 -264 q 130 -217 190 -264 q 53 -85 69 -170 l 140 -85 q 178 -190 140 -148 q 278 -233 216 -233 q 402 -187 340 -233 q 472 -78 472 -138 q 465 -45 472 -63 q 428 49 441 17 q 412 87 415 82 q 407 105 409 93 q 401 140 404 118 l 186 -17 l 168 -6 l 175 7 q 138 61 157 35 q 102 115 120 87 q 57 237 62 182 q 125 476 58 369 q 293 657 175 555 l 293 658 m 252 569 q 144 333 144 469 q 153 251 144 290 q 166 215 156 236 q 192 168 177 194 q 221 127 209 143 q 246 104 234 111 q 271 96 258 97 q 301 100 284 95 l 395 172 q 391 217 393 195 q 389 261 389 238 q 427 476 389 368 l 252 569 "},"²":{"x_min":26.53125,"x_max":371.28125,"ha":671,"o":"m 286 553 q 335 615 303 553 l 371 608 l 330 479 l 26 479 q 37 498 30 485 q 55 526 44 510 q 134 603 91 560 q 225 694 176 645 q 271 793 271 740 q 244 852 271 830 q 180 875 218 875 q 79 781 104 875 l 39 783 q 89 902 47 856 q 205 953 134 953 q 308 918 265 953 q 356 822 356 879 q 304 698 356 748 q 252 651 293 687 q 143 553 212 615 l 286 553 "},"┘":{"x_min":-15.265625,"x_max":550,"ha":626,"o":"m 550 363 l -15 363 l -15 481 l 432 481 l 432 1264 l 550 1264 l 550 363 "},"–":{"x_min":0,"x_max":504.203125,"ha":638,"o":"m 0 635 l 504 635 l 504 581 l 0 581 l 0 635 "},"ë":{"x_min":68,"x_max":440.25,"ha":469,"o":"m 281 658 l 309 658 q 345 601 327 630 q 381 545 363 573 q 440 433 437 455 l 168 209 q 205 122 173 156 q 290 83 240 83 q 353 102 327 83 q 405 142 379 122 q 433 128 423 142 l 241 -36 l 234 -33 l 229 -28 l 227 -25 l 227 -18 l 230 -11 l 231 -9 q 94 94 129 15 q 68 269 68 148 q 70 375 68 322 q 79 483 73 428 l 91 505 l 281 658 m 237 575 q 169 496 199 546 l 168 491 l 169 247 q 253 313 211 278 q 340 391 295 348 l 237 575 m 369 939 q 402 893 402 923 q 355 811 402 866 q 286 742 318 767 l 258 740 l 308 915 q 355 940 326 940 l 358 940 q 369 937 358 940 l 369 939 m 169 943 q 173 944 172 943 q 176 945 175 945 l 179 945 l 191 945 q 216 930 205 945 q 227 902 227 916 q 219 868 227 880 l 134 744 l 105 744 l 123 887 q 140 920 125 902 q 169 941 155 938 l 169 943 "},"ƒ":{"x_min":11.109375,"x_max":869.515625,"ha":811,"o":"m 869 1089 l 832 1022 q 715 1034 743 1035 q 577 974 634 1031 q 552 917 558 950 q 519 742 529 814 l 700 743 l 690 688 l 511 688 l 401 72 q 398 56 400 65 q 394 32 397 46 q 386 3 390 17 q 376 -21 381 -10 q 340 -84 363 -55 q 322 -102 331 -94 q 301 -120 312 -110 q 181 -162 248 -152 l 175 -162 q 168 -162 172 -162 q 156 -163 163 -163 q 102 -166 112 -167 l 11 -160 l 50 -96 q 165 -107 116 -109 q 302 -48 247 -105 q 343 74 333 12 l 451 688 l 273 688 l 284 743 l 459 743 l 480 854 q 494 908 480 855 q 501 931 497 917 q 511 965 505 945 q 669 1083 559 1069 q 682 1084 675 1084 q 701 1086 690 1084 l 733 1089 q 765 1089 744 1089 q 797 1090 786 1090 l 813 1091 q 833 1089 826 1091 q 851 1088 838 1089 q 869 1088 863 1088 l 869 1089 "},"e":{"x_min":65.75,"x_max":440.3125,"ha":463,"o":"m 281 658 l 309 658 q 388 529 361 574 q 422 477 416 484 q 429 459 425 470 q 440 433 434 448 l 168 209 q 205 122 173 156 q 290 83 240 83 l 291 83 q 352 102 326 83 q 405 143 379 122 q 433 129 423 143 l 241 -36 q 229 -26 230 -36 q 231 -9 225 -16 q 69 194 83 27 q 66 318 63 247 q 79 483 69 390 l 91 505 l 281 658 m 237 574 q 195 536 216 558 q 168 491 168 504 q 161 379 161 440 q 169 247 162 319 q 253 313 211 277 q 340 391 295 348 l 237 574 "},"J":{"x_min":25.9375,"x_max":733.390625,"ha":765,"o":"m 652 747 q 694 733 676 747 q 712 695 712 719 l 712 692 q 699 670 712 679 q 673 662 686 662 l 657 687 q 633 701 647 701 l 632 701 q 565 658 587 701 q 545 572 545 622 q 546 556 545 563 q 548 541 547 548 q 584 441 559 505 q 644 284 608 377 q 697 138 676 203 q 733 23 719 73 q 561 -186 657 -143 q 441 -204 501 -197 q 316 -216 380 -211 q 294 -228 306 -226 q 237 -130 258 -183 q 141 -72 195 -72 q 69 -120 97 -72 q 36 -134 56 -144 q 176 -29 56 -29 q 191 -30 166 -29 q 277 -35 216 -32 q 306 -28 295 -28 q 336 -78 322 -53 q 366 -128 351 -103 q 476 -165 401 -165 q 623 -68 588 -165 q 622 10 630 -26 q 588 107 609 51 q 537 235 568 163 q 454 451 473 388 q 440 516 440 488 q 448 559 440 538 q 530 677 470 615 q 652 747 600 747 m 306 986 l 334 986 q 569 847 443 908 q 602 842 587 842 q 668 881 650 842 q 658 919 652 897 q 694 936 662 942 q 725 895 725 931 q 680 831 725 851 l 520 759 l 498 759 l 290 870 q 218 884 248 884 q 113 847 159 884 q 59 751 65 809 q 115 623 54 676 q 229 573 162 581 l 226 549 q 83 609 140 556 q 26 752 20 667 q 125 908 31 849 q 304 977 179 940 l 306 986 "},"»":{"x_min":51.390625,"x_max":390.3125,"ha":411,"o":"m 205 572 l 390 304 l 390 270 l 204 39 l 204 97 l 344 284 l 205 502 l 205 572 m 52 579 l 236 306 l 236 277 l 51 50 l 51 104 l 190 291 l 52 509 l 52 579 "},"©":{"x_min":-149,"x_max":596,"ha":421,"o":"m 596 430 q 486 143 596 261 q 223 25 377 25 q -39 143 69 25 q -149 430 -149 261 q -39 715 -149 597 q 223 835 69 835 q 486 715 377 835 q 596 430 596 597 m 540 365 q 408 659 534 519 q 154 800 284 800 q -23 704 65 800 q -107 536 -107 612 q 22 216 -107 374 q 292 58 152 58 q 435 124 353 58 q 540 365 548 216 m 359 623 l 283 575 l 267 575 l 192 618 l 159 593 q 147 473 147 536 q 165 326 147 398 q 242 283 191 283 q 261 284 254 283 l 331 329 l 352 318 l 187 201 q 175 206 177 204 l 175 222 q 95 275 118 237 q 71 352 83 295 q 73 491 71 440 q 78 559 75 543 l 232 669 l 250 669 l 315 629 q 343 634 331 626 l 359 623 "},"ò":{"x_min":39.734375,"x_max":675.734375,"ha":656,"o":"m 309 870 q 276 875 292 875 q 177 812 195 875 q 175 794 176 802 q 174 779 174 786 q 197 679 174 755 q 218 613 205 651 l 376 613 l 376 535 l 218 536 q 220 462 219 500 q 221 386 221 425 q 210 71 221 232 q 177 -260 200 -89 l 152 -260 q 111 413 111 108 q 111 473 111 443 q 112 534 111 503 l 44 538 q 47 563 33 549 q 103 622 94 579 l 143 812 q 306 953 187 953 l 359 954 q 457 917 413 949 q 516 830 504 881 l 522 122 q 575 80 535 80 q 656 115 617 80 l 675 97 l 504 -34 q 496 -29 499 -32 q 486 -4 486 -19 l 486 -2 l 486 -1 l 486 0 l 486 1 l 398 44 q 394 62 391 55 q 433 112 427 86 l 433 797 q 309 870 430 841 "},"^":{"x_min":26.390625,"x_max":354.1875,"ha":406,"o":"m 155 967 l 226 967 l 354 738 l 322 738 l 190 872 l 56 738 l 26 738 l 155 967 "},"┤":{"x_min":-15.265625,"x_max":550,"ha":629,"o":"m 432 -421 l 432 363 l -15 363 l -15 481 l 432 481 l 432 1264 l 550 1264 l 550 -421 l 432 -421 "},"«":{"x_min":36.109375,"x_max":379.203125,"ha":439,"o":"m 379 581 l 379 518 l 234 332 l 376 101 l 376 46 l 190 316 l 190 343 l 379 581 m 223 585 l 223 523 l 81 336 l 220 114 l 219 51 l 38 318 q 36 326 36 320 l 36 343 q 36 346 36 344 q 37 349 37 348 l 223 585 "},"D":{"x_min":24.640625,"x_max":1040,"ha":1057,"o":"m 373 989 q 717 894 558 989 q 1024 472 958 750 q 1040 351 1040 406 q 845 18 1040 129 q 649 -57 751 -38 q 638 -58 644 -58 q 627 -58 633 -58 q 527 -33 570 -58 l 301 101 q 223 129 253 129 q 96 88 152 129 l 78 105 q 356 223 188 223 q 452 298 410 253 q 455 325 458 306 q 445 350 453 342 l 301 587 q 292 633 292 609 q 341 712 302 680 q 423 755 362 729 q 620 801 487 782 q 326 888 477 888 q 138 833 214 888 q 51 668 51 772 q 51 651 51 660 q 53 633 52 643 q 91 540 62 576 q 174 481 119 511 l 164 458 q 73 521 112 471 q 28 625 39 567 q 24 679 24 651 q 130 903 24 814 q 373 989 233 989 m 659 773 q 598 763 628 767 q 537 753 567 759 q 430 706 469 739 q 405 664 405 685 q 413 637 405 652 q 422 620 422 621 l 553 406 q 570 350 570 378 q 533 282 570 305 l 359 199 q 483 110 416 152 q 630 30 551 68 q 713 11 666 11 q 826 38 772 11 q 979 271 979 107 q 944 438 979 350 q 659 773 860 656 "},"┼":{"x_min":-15.265625,"x_max":998.640625,"ha":960,"o":"m 432 363 l -15 363 l -15 481 l 432 481 l 432 1264 l 550 1264 l 550 481 l 998 481 l 998 363 l 550 363 l 550 -421 l 432 -421 l 432 363 "},"∙":{"x_min":73.609375,"x_max":222.234375,"ha":265,"o":"m 137 507 q 143 506 140 507 l 156 506 q 168 504 163 506 q 208 476 187 497 q 222 442 220 462 l 222 434 q 221 426 222 431 q 220 417 220 420 q 213 399 218 405 q 179 365 201 378 q 151 358 162 358 l 150 358 l 148 358 l 145 358 q 104 373 123 358 q 77 406 86 388 q 73 433 73 427 l 73 442 q 74 447 73 444 q 75 451 75 449 q 97 486 80 472 q 137 505 115 501 l 137 507 "},"ÿ":{"x_min":44.28125,"x_max":526,"ha":545,"o":"m 127 692 l 149 681 q 142 642 142 665 q 174 570 142 622 l 187 512 q 200 504 192 505 l 363 661 l 390 661 l 390 633 q 459 525 434 563 q 488 479 484 487 q 526 309 526 405 q 423 1 526 187 q 340 -133 386 -66 q 240 -268 294 -199 l 217 -255 q 267 -183 241 -223 q 322 -98 294 -144 q 377 -1 356 -41 q 404 63 397 38 l 443 206 q 444 225 444 209 q 297 548 444 422 q 243 506 267 529 q 200 459 219 483 q 195 369 197 415 q 194 275 194 323 q 212 80 194 93 q 223 77 214 80 l 226 77 q 287 116 258 77 l 301 92 q 248 50 272 70 q 207 10 225 30 q 193 -5 200 2 q 177 -24 186 -14 q 154 -29 172 -29 q 103 15 134 -29 q 84 24 93 19 q 65 34 75 29 q 61 61 61 43 l 61 64 q 91 90 78 65 q 104 132 104 112 l 104 458 q 77 504 92 481 q 44 548 62 526 q 127 691 66 630 l 127 692 m 399 975 q 431 945 422 968 q 433 934 433 938 q 433 927 433 929 q 385 847 433 899 q 351 808 367 826 q 316 776 334 791 l 288 774 l 338 949 q 374 975 356 975 q 399 973 397 975 l 399 975 m 200 979 l 209 979 l 226 979 q 247 964 237 979 q 258 937 258 949 q 250 903 258 916 l 165 778 l 136 778 l 154 923 q 200 977 158 962 l 200 979 "},"í":{"x_min":42.203125,"x_max":602.796875,"ha":643,"o":"m 475 820 l 506 820 q 474 642 474 705 q 475 622 474 628 l 602 622 l 602 544 l 475 544 l 475 116 q 522 84 491 84 q 576 114 554 84 l 597 98 l 461 -28 l 444 -19 l 445 -7 q 345 46 426 27 l 347 64 q 365 79 357 70 q 382 99 373 88 l 382 544 l 215 544 q 217 459 216 502 q 218 374 218 417 q 207 56 218 214 q 177 -260 197 -101 l 152 -260 q 111 412 111 108 q 111 472 111 442 q 112 533 111 502 l 44 533 q 46 558 39 538 q 59 568 53 563 q 72 578 65 573 q 103 622 98 599 l 143 812 q 302 954 186 954 q 382 937 340 954 q 389 945 384 941 q 419 937 404 956 l 366 827 q 252 865 313 865 q 177 812 192 865 l 174 795 q 173 784 173 792 q 219 596 173 733 q 388 659 326 589 q 462 819 430 706 l 475 820 "},"├":{"x_min":433,"x_max":999.640625,"ha":960,"o":"m 433 -421 l 433 1264 l 551 1264 l 551 481 l 999 481 l 999 363 l 551 363 l 551 -421 l 433 -421 "},"ˆ":{"x_min":26.390625,"x_max":354.1875,"ha":406,"o":"m 155 967 l 226 967 l 354 738 l 322 738 l 190 872 l 56 738 l 26 738 l 155 967 "},"w":{"x_min":53.046875,"x_max":810,"ha":834,"o":"m 126 693 l 150 684 q 139 641 139 659 q 155 590 139 616 q 201 495 201 531 l 356 658 l 382 658 q 401 616 383 634 q 472 492 465 565 l 657 658 l 686 658 l 686 613 l 773 470 q 810 345 810 409 q 721 134 810 244 q 554 -31 666 67 q 507 -24 539 -39 q 357 38 446 14 q 357 56 350 49 q 385 102 376 81 l 385 449 q 334 542 375 510 q 318 546 326 546 q 248 498 297 546 q 234 485 241 491 q 220 471 227 478 q 204 445 204 456 l 204 114 q 222 84 205 101 q 248 70 238 67 q 251 44 251 62 l 251 41 q 170 -31 186 19 l 143 -31 l 143 -28 q 114 16 143 -7 q 64 41 89 34 l 64 63 q 79 73 71 69 q 94 83 87 77 q 110 113 107 94 l 110 408 q 53 548 110 491 q 126 691 78 626 l 126 693 m 585 551 q 479 444 529 506 l 479 103 l 591 49 l 591 48 q 615 52 602 48 q 724 256 724 160 q 703 352 724 302 q 585 549 664 449 l 585 551 "},"$":{"x_min":44.859375,"x_max":507,"ha":554,"o":"m 506 700 q 460 555 509 632 q 413 494 436 525 q 367 433 390 464 q 507 233 507 355 q 437 90 507 155 q 358 37 407 61 q 315 15 336 26 q 272 -6 294 4 q 250 -29 262 -23 q 187 5 222 -29 l 50 87 l 44 105 q 155 264 155 187 q 110 343 133 305 q 62 412 86 380 q 51 446 51 427 q 67 493 51 465 q 226 648 69 496 q 279 654 249 668 q 410 597 332 597 q 471 636 453 604 q 485 697 487 662 q 453 762 481 739 q 386 784 425 784 l 383 784 l 382 784 q 325 718 325 776 l 269 748 q 382 818 310 826 q 506 700 501 805 m 295 337 q 281 325 287 330 q 269 313 275 319 q 234 270 266 311 q 137 145 201 229 l 279 56 q 311 44 291 44 q 379 75 343 44 q 425 131 412 101 q 432 169 432 150 q 387 273 432 220 q 295 336 343 325 l 295 337 m 193 569 q 131 512 151 544 q 143 473 131 495 l 231 329 l 240 326 l 380 495 q 285 527 331 509 q 193 568 238 545 l 193 569 "},"\\":{"x_min":141.671875,"x_max":866.734375,"ha":915,"o":"m 141 329 l 866 328 l 866 254 l 141 255 l 141 329 "},"Ì":{"x_min":-13,"x_max":1052.796875,"ha":1092,"o":"m 647 827 q 622 772 638 812 q 579 670 605 733 q 517 521 555 609 q 431 315 480 433 q 146 -15 281 -15 q 39 32 92 -15 q -13 161 -13 80 q 7 220 -13 197 q 54 239 25 239 q 113 182 113 239 q 89 118 113 154 q 79 86 79 103 q 99 52 79 67 q 146 34 121 34 q 394 347 250 34 q 444 463 410 383 q 529 667 477 542 q 637 893 604 846 q 670 947 647 914 q 702 982 683 964 q 739 999 729 1004 q 753 980 753 990 q 740 948 753 969 q 681 780 714 900 q 609 465 648 660 q 583 313 594 380 q 565 193 572 246 q 552 100 552 82 q 558 89 552 89 q 617 229 567 89 q 702 461 666 366 q 761 608 738 555 q 952 966 852 825 q 956 972 954 969 q 963 983 958 976 q 990 1000 976 1000 q 1006 980 1006 1000 q 998 951 1006 969 q 985 906 995 943 q 958 805 975 870 q 910 609 927 680 q 888 521 893 539 q 850 218 850 347 q 868 60 850 128 q 890 38 873 38 q 930 63 906 38 q 950 91 937 69 q 981 149 962 112 q 1015 215 983 154 q 1030 231 1022 231 q 1052 208 1052 231 q 1043 175 1052 194 q 987 58 1006 87 q 886 -7 943 -7 q 760 187 760 -7 q 900 795 760 400 q 648 181 798 608 q 529 1 584 1 q 466 119 466 1 q 476 231 466 167 q 506 378 487 295 q 563 578 529 466 q 647 827 598 690 "},"µ":{"x_min":113,"x_max":758.671875,"ha":785,"o":"m 113 632 l 228 632 l 238 112 q 265 58 238 80 q 325 36 292 36 q 487 322 442 36 q 495 372 495 373 l 495 632 l 617 632 l 617 87 q 630 52 617 69 q 662 36 644 36 q 711 80 692 36 q 726 149 726 117 q 725 179 725 156 l 757 180 q 758 149 758 174 q 625 -13 758 -13 q 553 14 583 -13 q 518 81 522 41 l 502 226 q 301 -13 454 -13 l 297 -13 l 293 -11 q 229 1 289 -11 q 146 116 162 48 q 179 -87 151 0 q 194 -128 186 -107 q 209 -168 202 -148 q 226 -250 226 -216 q 171 -303 226 -303 q 130 -283 148 -303 q 113 -241 113 -264 l 113 632 "},"Ç":{"x_min":60,"x_max":846.3125,"ha":843,"o":"m 434 -108 q 488 -94 460 -94 q 541 -161 541 -94 q 477 -251 541 -204 q 376 -310 424 -292 l 364 -293 q 458 -187 458 -243 q 428 -154 458 -157 q 413 -162 422 -157 q 391 -172 404 -166 l 386 -172 q 373 -164 381 -171 l 438 -12 q 162 170 269 31 q 120 235 131 212 q 82 344 100 274 q 60 495 60 423 q 82 717 60 667 l 143 859 q 172 898 148 870 q 344 983 247 983 l 347 983 l 347 985 q 489 871 471 965 l 600 983 q 764 925 759 925 q 789 930 780 925 l 820 978 l 844 962 l 744 819 l 723 819 l 559 877 l 555 876 q 523 864 537 876 q 495 839 509 851 q 448 750 448 795 l 448 747 q 609 326 609 368 l 458 115 q 500 104 481 108 q 531 98 518 101 q 556 93 546 94 q 701 97 668 93 q 833 144 769 106 l 846 127 l 682 -22 q 583 -31 646 -31 q 471 -21 519 -31 l 434 -108 m 361 948 l 358 947 q 197 830 243 947 q 156 583 156 723 q 218 302 156 420 q 433 121 290 169 q 499 269 499 198 q 492 321 499 303 l 343 702 l 465 844 q 430 915 460 883 q 361 947 399 947 l 361 948 "},"’":{"x_min":34.71875,"x_max":193.28125,"ha":417,"o":"m 102 961 q 185 892 170 961 q 187 783 200 823 q 143 707 177 748 q 87 649 109 667 l 69 664 q 120 758 87 694 q 102 823 154 823 q 34 892 34 823 q 102 961 34 961 "},"-":{"x_min":51,"x_max":350,"ha":407,"o":"m 350 363 l 350 302 l 78 126 l 51 114 l 51 165 l 350 363 m 350 522 l 350 466 l 51 269 l 51 327 l 350 522 "},"Q":{"x_min":16.984375,"x_max":1051.46875,"ha":1078,"o":"m 852 96 q 948 58 900 81 q 956 57 951 58 q 965 56 961 56 q 1030 89 997 56 l 1051 72 l 920 -38 q 784 -1 848 -29 l 707 -38 l 686 -20 l 852 96 m 359 1004 l 386 1004 q 472 934 416 944 q 636 904 569 919 q 740 877 703 890 q 932 754 868 835 q 1002 487 1004 659 q 907 212 1000 322 q 673 30 843 137 q 576 -9 622 8 q 476 -32 522 -32 q 403 -15 437 -32 l 126 111 q 82 95 107 109 q 52 80 64 85 q 35 73 40 75 l 16 92 l 182 213 l 465 79 q 586 48 536 48 q 661 60 621 48 q 924 471 924 185 q 837 692 924 610 q 636 789 769 756 q 402 831 587 802 q 318 899 348 853 q 183 794 241 853 q 154 721 154 762 q 167 660 154 692 q 245 541 181 623 q 293 481 269 510 q 340 421 316 452 q 349 374 349 396 q 289 287 349 316 q 166 262 240 262 q 91 270 124 262 l 91 296 q 141 290 115 290 q 246 344 246 290 q 226 390 246 362 q 175 450 200 420 q 123 510 150 480 q 61 651 63 590 q 67 695 61 672 q 84 740 73 719 q 111 781 95 762 q 144 813 127 801 q 319 938 204 851 q 359 1002 333 952 l 359 1004 "},"M":{"x_min":0,"x_max":1274.078125,"ha":1301,"o":"m 626 999 q 751 950 702 999 q 824 833 783 918 q 1016 999 898 987 q 1027 1000 1021 1000 q 1039 1000 1033 1000 q 1206 898 1151 1000 q 1251 694 1251 816 q 1269 650 1269 684 q 1167 625 1209 650 q 1110 541 1123 597 q 1106 509 1109 534 q 1101 437 1103 483 q 1098 368 1098 405 q 1100 289 1098 332 q 1104 196 1103 230 q 1106 148 1106 162 q 1162 73 1114 114 q 1175 69 1168 69 q 1210 86 1186 69 q 1247 107 1236 104 q 1274 89 1262 105 l 1131 -33 l 1117 -33 q 1018 37 1022 33 q 1010 50 1015 40 q 999 77 1005 60 l 999 491 q 1150 644 1012 566 q 1150 660 1150 649 q 1151 679 1151 672 q 1037 895 1151 869 q 1010 899 1023 898 q 984 901 996 901 q 838 785 880 901 q 869 556 869 667 q 673 22 869 251 q 656 2 668 15 q 626 -28 644 -9 q 618 -31 623 -31 q 565 -1 606 -31 q 498 26 522 26 q 462 9 479 26 q 456 2 459 6 q 447 -7 452 -1 l 427 3 q 527 128 469 71 q 673 64 602 113 q 768 441 768 222 q 763 536 768 487 q 752 636 759 585 q 698 808 738 725 q 577 923 644 923 q 483 821 508 923 q 540 570 521 729 q 544 520 542 543 q 547 472 547 496 q 491 233 547 343 q 434 141 472 194 q 340 17 395 87 q 329 4 338 15 q 300 -26 319 -6 q 290 -29 294 -29 q 237 1 280 -29 q 169 32 194 32 q 134 15 148 32 l 116 -4 l 94 4 q 114 32 101 15 q 147 72 127 50 q 205 132 193 126 q 272 106 237 122 q 343 68 306 90 q 450 387 450 190 q 433 577 450 465 q 209 876 387 876 q 81 825 130 876 q 32 695 32 774 q 77 549 32 616 q 200 459 126 481 l 202 432 q 45 534 100 441 q 0 721 0 610 q 75 901 0 821 q 248 982 149 982 q 376 951 324 982 q 468 858 420 925 q 523 957 480 918 q 626 999 566 999 "},"╗":{"x_min":-15.4375,"x_max":679,"ha":750,"o":"m 561 -421 l 561 492 l -15 492 l -15 610 l 679 610 l 679 -421 l 561 -421 m 303 233 l -15 233 l -15 351 l 422 351 l 422 -421 l 303 -421 l 303 233 "},"C":{"x_min":60,"x_max":847.5625,"ha":849,"o":"m 347 985 q 490 870 472 964 l 601 983 l 755 926 q 790 930 768 921 l 821 978 l 844 962 l 744 819 l 723 819 l 560 877 q 462 801 523 880 q 448 750 448 775 l 448 748 l 448 747 q 534 541 496 639 q 603 354 572 443 q 610 326 610 333 l 458 115 q 555 98 511 104 q 636 91 600 91 q 835 144 744 91 l 847 127 l 683 -22 q 508 -24 608 -38 q 464 -17 486 -22 q 421 -6 443 -13 q 154 182 253 40 q 60 496 60 318 q 115 805 60 676 q 347 983 190 983 l 347 985 m 361 948 q 358 947 359 947 q 199 805 247 947 q 164 545 164 701 q 168 442 164 490 q 256 246 176 340 q 433 121 333 155 q 494 231 483 178 q 493 321 506 287 l 343 702 l 465 844 q 430 913 461 883 q 361 947 398 947 l 361 948 "},"œ":{"x_min":0,"x_max":0,"ha":307},"!":{"x_min":73.609375,"x_max":259.75,"ha":294,"o":"m 180 139 q 254 63 191 94 q 258 37 262 55 l 255 34 q 186 -31 222 25 q 152 -40 176 -40 q 79 31 143 6 q 73 60 73 38 q 147 135 126 80 q 180 139 161 149 m 233 862 q 208 549 221 692 q 177 287 195 406 q 176 286 178 287 q 166 284 173 285 q 158 292 162 284 q 113 594 130 452 q 93 862 97 735 q 111 914 91 892 q 162 936 131 936 l 163 936 l 165 936 q 209 916 185 936 q 233 862 234 892 "},"ç":{"x_min":65,"x_max":398.390625,"ha":433,"o":"m 186 -4 q 94 72 126 13 q 65 190 65 123 l 65 449 q 73 497 65 447 l 251 661 l 272 661 l 347 599 l 352 599 q 378 609 362 598 l 398 592 l 309 519 l 292 519 l 206 584 l 167 547 q 154 361 154 465 q 173 150 154 216 q 206 106 178 127 q 257 86 232 86 q 284 88 270 86 l 366 154 l 389 138 q 331 86 360 112 q 273 33 302 59 q 211 -26 238 1 q 164 -77 184 -54 q 219 -61 190 -61 q 240 -66 218 -61 q 272 -120 272 -94 q 210 -217 272 -167 q 105 -279 159 -260 l 93 -260 q 155 -216 125 -247 q 189 -151 189 -181 q 161 -124 189 -124 l 158 -124 q 156 -125 157 -124 q 153 -126 155 -126 q 122 -141 133 -137 l 119 -141 l 114 -141 q 105 -134 109 -138 l 97 -119 l 186 -4 l 186 -4 "},"È":{"x_min":17.921875,"x_max":666.890625,"ha":695,"o":"m 245 354 q 264 227 250 286 q 302 126 278 169 q 362 59 326 83 q 444 35 397 35 q 517 51 486 35 q 569 95 547 68 q 605 156 590 122 q 629 226 619 190 q 635 236 632 235 q 641 236 639 237 l 662 230 q 666 216 666 229 q 662 173 665 201 q 657 114 659 144 q 654 58 655 85 q 653 22 653 32 q 650 3 653 7 q 637 0 647 0 q 621 8 623 0 l 604 46 q 595 56 601 53 q 580 49 589 59 q 562 30 575 42 q 529 8 548 19 q 485 -12 509 -3 q 433 -21 461 -21 q 304 10 358 -21 q 212 95 250 42 q 153 215 175 148 q 124 354 132 283 l 29 354 q 18 363 15 354 l 30 395 q 44 404 33 404 l 119 404 q 117 436 117 420 q 117 468 117 452 q 117 491 117 479 q 118 517 117 503 l 34 517 q 23 526 20 517 l 34 558 q 48 567 37 567 l 125 567 q 158 701 134 633 q 220 824 181 769 q 311 914 258 879 q 433 949 365 949 q 520 925 487 949 q 575 879 552 901 q 600 886 590 861 l 609 912 q 628 921 612 921 q 639 917 637 921 q 642 899 642 914 q 643 862 642 889 q 646 803 644 835 q 651 743 649 772 q 656 700 654 714 q 656 689 657 693 q 646 683 656 686 l 635 679 q 625 679 628 676 q 619 690 622 682 q 593 765 607 728 q 558 832 579 803 q 507 880 537 861 q 432 899 478 899 q 350 871 384 899 q 291 798 315 844 q 254 693 268 753 q 239 567 241 633 l 577 567 q 589 558 591 567 l 576 525 q 558 517 573 517 l 238 517 l 238 466 q 238 445 238 452 q 238 433 238 438 q 240 422 239 429 q 241 404 241 416 l 528 404 q 539 395 542 404 l 526 362 q 508 354 524 354 l 245 354 "},"{":{"x_min":40.375,"x_max":403.6875,"ha":376,"o":"m 403 925 q 289 893 341 923 q 262 850 268 876 l 262 516 q 232 445 253 475 q 178 387 204 405 q 242 325 211 363 q 263 250 263 288 l 263 -58 q 286 -105 269 -88 q 322 -134 299 -123 q 344 -137 336 -137 q 356 -138 349 -138 l 375 -138 q 385 -137 378 -138 q 397 -136 392 -136 l 397 -157 q 384 -159 392 -158 q 365 -163 376 -160 q 349 -163 360 -163 q 333 -164 339 -164 q 224 -141 282 -164 q 172 -104 200 -132 q 150 -59 157 -88 l 149 241 q 136 311 149 269 q 112 352 130 337 q 40 391 87 377 q 113 425 91 398 q 139 509 139 458 l 139 848 q 164 891 144 871 q 222 929 189 918 q 382 942 298 942 l 403 942 l 403 925 "},"X":{"x_min":11.421875,"x_max":789.359375,"ha":779,"o":"m 448 786 q 610 978 465 871 l 639 979 q 668 960 650 972 q 710 930 686 948 q 750 909 736 909 q 771 919 761 909 l 789 904 l 704 812 q 635 854 697 815 q 576 888 579 888 q 562 893 569 893 q 490 809 528 893 q 456 700 462 744 l 456 538 l 572 538 q 647 619 622 567 l 674 621 l 594 445 l 456 447 l 456 229 q 583 77 479 77 q 754 164 664 77 l 774 146 l 586 -29 l 558 -29 q 426 31 444 18 q 356 158 385 62 q 279 19 340 91 q 205 -25 242 -25 q 147 -4 185 -25 q 105 15 123 7 q 76 26 87 23 q 55 15 66 23 q 28 -4 43 7 l 11 12 l 114 133 l 140 133 l 254 65 q 342 237 323 94 q 346 299 343 247 q 352 448 349 352 l 276 448 q 158 339 200 429 l 132 341 l 190 538 l 352 538 q 353 566 353 551 q 353 596 353 580 q 329 780 353 705 q 221 883 296 883 q 183 877 200 883 q 73 798 140 864 l 52 812 l 187 979 q 347 940 291 979 q 448 786 411 896 "},"¼":{"x_min":101.59375,"x_max":907.5,"ha":934,"o":"m 406 120 l 351 134 l 633 805 l 693 794 l 406 120 m 795 135 l 795 37 q 889 22 795 22 l 889 -18 l 598 -18 l 598 21 q 692 30 672 21 q 696 44 696 32 l 696 135 l 452 135 l 452 187 q 573 363 457 207 q 646 459 609 412 q 719 554 683 507 l 795 554 l 795 207 l 907 207 l 907 135 l 795 135 m 157 374 l 157 417 q 179 413 173 413 q 246 421 214 413 q 253 429 253 428 l 253 848 l 253 851 l 137 768 l 101 797 l 287 946 l 357 946 l 357 446 q 369 417 357 426 q 451 413 391 413 l 451 374 l 157 374 m 522 206 l 696 206 l 696 435 l 522 206 "},"#":{"x_min":25.25,"x_max":978,"ha":979,"o":"m 615 663 l 636 663 l 711 601 q 743 611 729 598 l 762 594 l 673 521 l 657 521 l 571 586 l 532 548 q 521 463 525 507 q 517 373 517 419 q 537 150 517 263 q 628 86 568 86 q 648 89 635 86 l 730 154 l 754 139 l 563 -35 q 549 -25 554 -30 l 549 -2 q 458 75 484 20 q 429 191 442 105 q 429 371 429 309 q 430 440 429 433 q 432 463 430 448 q 437 498 434 478 l 615 663 m 147 665 q 165 651 153 662 q 164 634 165 628 q 264 571 257 577 q 328 431 328 516 q 204 134 328 315 q 200 119 200 126 q 275 66 200 84 l 357 131 l 373 109 l 214 -35 q 187 -19 194 -28 q 194 -8 194 -22 l 65 63 l 65 66 q 71 85 65 70 q 260 341 260 206 q 203 473 260 413 q 79 544 150 527 q 41 517 61 517 q 25 531 30 517 l 147 665 m 803 57 q 828 121 803 95 q 890 148 854 148 q 952 121 926 148 q 978 57 978 95 q 952 -4 978 21 q 890 -31 926 -31 q 828 -4 854 -31 q 803 57 803 21 "},")":{"x_min":2.8125,"x_max":283,"ha":326,"o":"m 4 951 q 201 710 120 856 q 283 413 283 558 q 220 79 283 205 q 4 -186 166 -31 q 3 -182 4 -184 q 2 -179 2 -180 l 2 -165 q 4 -158 2 -159 q 6 -144 4 -152 q 27 -119 16 -130 q 207 416 207 59 q 165 658 207 545 q 128 739 150 699 q 79 819 106 780 l 4 914 q 2 934 2 916 l 2 938 q 4 942 2 941 l 4 951 "},"Å":{"x_min":35.84375,"x_max":900.125,"ha":914,"o":"m 590 1174 q 551 1095 590 1133 q 470 1059 510 1059 l 468 1059 l 465 1059 l 463 1059 q 382 1095 415 1066 q 346 1174 346 1128 l 346 1181 q 381 1269 346 1235 q 470 1304 416 1304 q 590 1183 590 1304 l 590 1174 m 466 1258 q 388 1177 388 1243 q 408 1127 390 1151 q 452 1102 426 1102 q 458 1101 454 1101 l 463 1101 q 523 1125 502 1101 q 543 1176 543 1147 q 523 1232 543 1208 q 466 1257 499 1257 l 466 1258 m 893 960 q 818 893 848 949 q 789 788 789 841 l 789 159 q 818 130 798 130 q 876 162 823 130 q 900 141 893 152 l 740 -33 l 718 -27 q 722 -1 722 -19 l 722 0 l 722 1 q 673 169 673 89 l 299 -31 l 281 -15 l 301 12 l 137 145 q 44 149 95 167 l 35 176 l 220 244 q 403 377 326 283 q 472 592 472 462 q 467 642 472 619 q 294 857 434 850 q 154 820 214 862 q 77 688 89 775 q 74 668 75 677 q 74 648 74 658 q 136 495 74 558 q 289 419 192 438 l 285 394 q 101 479 172 387 q 36 676 36 561 q 101 880 36 794 q 288 976 173 976 l 294 976 q 503 869 428 976 q 572 637 572 776 q 371 293 572 455 l 242 219 q 415 81 319 137 l 458 87 q 662 208 567 129 l 674 231 l 674 800 l 657 895 l 678 908 l 707 834 q 893 980 764 982 q 893 960 895 957 "},"╚":{"x_min":304,"x_max":998.4375,"ha":1024,"o":"m 422 1264 l 422 351 l 998 351 l 998 233 l 304 233 l 304 1264 l 422 1264 m 680 610 l 998 610 l 998 492 l 561 492 l 561 1264 l 680 1264 l 680 610 "},"ø":{"x_min":54.21875,"x_max":507,"ha":551,"o":"m 480 688 l 507 674 l 431 532 q 507 339 507 422 q 353 43 507 207 q 260 -33 282 -33 l 255 -33 q 154 23 232 0 l 95 -69 l 66 -56 l 117 40 l 57 57 q 54 82 54 71 q 82 129 54 106 q 86 226 85 178 q 88 326 88 275 q 80 543 88 436 l 375 669 q 385 646 385 658 q 372 625 385 631 l 409 568 l 480 688 m 368 412 l 200 108 l 310 57 l 329 57 q 425 249 425 142 q 368 411 425 312 l 368 412 m 269 583 l 178 551 l 178 147 l 347 450 l 269 583 "},"}":{"x_min":36.3125,"x_max":400.953125,"ha":404,"o":"m 36 943 q 63 944 44 943 q 90 945 82 945 q 191 935 144 945 q 224 925 209 932 q 255 912 240 919 q 280 880 271 903 q 294 807 294 847 l 294 532 l 299 491 q 307 452 302 473 q 325 423 314 434 q 362 406 344 414 q 400 391 381 398 q 344 370 373 389 q 312 336 327 361 q 292 262 298 305 q 293 184 293 223 q 293 104 293 144 q 293 27 293 65 q 292 -51 293 -11 q 291 -59 292 -54 q 290 -69 290 -65 q 285 -85 289 -76 q 276 -105 282 -94 q 241 -138 265 -126 q 169 -157 206 -157 q 150 -159 158 -158 q 137 -160 142 -160 l 103 -160 q 77 -159 92 -160 q 42 -157 62 -158 l 40 -136 q 53 -138 46 -137 q 67 -138 60 -138 q 80 -138 72 -138 q 92 -137 88 -137 q 103 -134 97 -136 q 116 -130 109 -133 q 147 -113 137 -127 q 172 -69 163 -93 l 172 269 q 187 312 173 290 q 279 379 218 355 q 299 386 290 383 q 315 391 308 389 q 280 401 297 394 q 244 419 262 408 q 191 469 214 436 q 186 483 189 476 q 180 497 183 490 q 179 505 179 501 q 178 513 179 509 l 178 812 q 158 880 178 848 q 119 911 146 897 q 83 918 104 916 q 64 920 73 919 q 47 920 55 920 l 36 920 l 36 943 "},"‰":{"x_min":114.890625,"x_max":1665.03125,"ha":1633,"o":"m 881 978 l 931 978 l 406 -48 l 353 -48 l 881 978 m 1440 395 q 1601 342 1541 395 q 1665 165 1666 281 q 1598 10 1663 76 q 1440 -55 1533 -57 q 1218 165 1223 -46 q 1281 325 1215 257 q 1440 395 1348 395 m 1310 165 q 1334 37 1305 90 q 1440 -26 1369 -26 q 1544 40 1508 -26 q 1575 165 1572 92 q 1545 293 1576 237 q 1440 360 1508 360 q 1334 296 1365 355 q 1310 165 1314 254 m 337 942 q 498 889 438 942 q 562 712 563 828 q 495 557 560 623 q 337 492 430 489 q 115 712 120 500 q 178 872 112 804 q 337 942 245 942 m 207 712 q 231 584 202 637 q 337 521 266 521 q 441 587 405 521 q 472 712 469 639 q 442 840 473 784 q 337 907 405 907 q 231 843 262 902 q 207 712 211 801 m 943 399 q 1104 346 1044 399 q 1168 169 1169 285 q 1101 14 1166 80 q 943 -51 1034 -55 q 721 169 726 -42 q 784 329 718 261 q 943 399 851 399 m 813 169 q 839 41 810 93 q 943 -22 874 -22 q 1047 44 1011 -22 q 1078 169 1075 96 q 1048 297 1079 241 q 943 364 1012 364 q 839 300 868 359 q 813 169 817 259 "},"Ä":{"x_min":35.84375,"x_max":900.125,"ha":914,"o":"m 583 1261 q 609 1242 600 1255 q 615 1226 615 1237 q 616 1222 616 1224 l 616 1215 q 615 1209 616 1210 q 593 1166 613 1195 q 575 1142 586 1156 q 551 1110 565 1129 q 527 1088 540 1099 q 500 1062 515 1076 l 470 1060 l 522 1235 q 547 1258 534 1252 q 556 1261 555 1261 l 575 1261 q 583 1259 580 1261 l 583 1261 m 383 1265 q 387 1265 384 1262 l 393 1265 l 408 1265 q 411 1264 409 1265 q 415 1264 413 1264 q 438 1237 433 1255 q 441 1229 441 1234 l 441 1215 q 440 1210 441 1214 q 438 1204 438 1207 q 433 1190 436 1195 l 348 1065 l 319 1065 l 337 1209 q 340 1218 337 1209 q 346 1229 343 1223 q 355 1244 350 1236 q 367 1255 358 1248 q 383 1264 376 1262 l 383 1265 m 893 960 q 818 893 848 949 q 789 788 789 841 l 789 159 q 818 130 798 130 q 876 162 823 130 q 900 141 893 152 l 740 -33 l 718 -27 q 722 -1 722 -19 l 722 0 l 722 1 q 673 169 673 89 l 299 -31 l 281 -15 l 301 12 l 137 145 q 44 149 95 167 l 35 176 l 220 244 q 403 377 326 283 q 472 592 472 462 q 467 642 472 619 q 294 857 434 850 q 154 820 214 862 q 77 688 89 775 q 74 668 75 677 q 74 648 74 658 q 136 495 74 558 q 289 419 192 438 l 285 394 q 101 479 172 387 q 36 676 36 561 q 101 880 36 794 q 288 976 173 976 l 294 976 q 503 869 428 976 q 572 637 572 776 q 371 292 572 455 l 242 219 q 415 81 319 137 l 458 87 q 662 208 567 129 l 674 231 l 674 799 l 657 895 l 678 908 l 707 834 q 893 980 764 982 q 893 960 895 957 "},"a":{"x_min":52.640625,"x_max":591.734375,"ha":618,"o":"m 290 658 q 334 653 322 658 q 520 548 426 587 q 523 539 523 540 q 504 521 523 536 q 482 472 482 507 l 482 147 l 482 144 q 494 100 482 121 q 533 76 509 76 q 573 104 558 76 l 591 90 l 479 -40 q 469 -33 472 -37 q 448 2 465 -19 q 401 53 411 31 q 392 80 395 63 q 386 123 388 97 l 187 -46 l 167 -27 l 177 -15 q 80 134 95 97 q 52 310 52 198 q 74 394 62 358 q 101 459 85 431 q 177 553 127 508 l 290 658 m 252 577 q 140 315 140 487 q 248 79 152 175 q 273 75 262 68 l 276 75 l 393 162 l 393 495 l 252 577 "},"—":{"x_min":0,"x_max":993.140625,"ha":1106,"o":"m 0 635 l 993 635 l 993 581 l 0 581 l 0 635 "},"=":{"x_min":163.90625,"x_max":658.390625,"ha":675,"o":"m 163 325 l 658 325 l 658 251 l 163 251 l 163 325 m 163 557 l 658 557 l 658 482 l 163 482 l 163 557 "},"N":{"x_min":16.53125,"x_max":975.921875,"ha":1021,"o":"m 268 980 q 424 929 355 982 q 517 795 491 878 q 685 977 560 957 q 730 981 707 981 q 878 936 814 981 q 946 818 945 889 l 946 693 q 970 680 957 682 l 970 655 q 868 623 899 644 q 809 536 823 596 q 809 169 789 348 q 881 65 818 65 q 895 66 891 65 q 955 111 914 71 l 975 93 l 835 -29 q 809 -32 820 -37 q 710 44 763 30 q 685 272 685 127 q 698 487 685 376 q 720 548 702 507 q 783 605 750 580 q 852 647 816 629 q 852 707 852 686 q 850 736 852 729 q 693 903 834 903 q 532 762 568 903 q 562 470 562 604 q 501 151 562 284 q 417 28 461 67 q 281 -31 363 -21 q 262 -32 276 -32 q 204 -26 242 -32 q 110 -10 166 -21 q 58 -21 87 -10 q 35 0 45 -21 q 16 113 45 70 l 34 140 q 70 130 49 130 q 149 152 87 130 q 174 131 166 145 q 152 80 152 105 q 192 19 152 43 q 274 -4 231 -4 q 405 96 352 -4 q 461 392 461 201 q 418 713 461 571 q 264 870 380 841 q 218 877 239 877 q 97 824 146 877 q 49 693 49 771 q 226 457 49 539 l 218 433 q 71 527 125 457 q 17 693 17 597 q 108 924 19 852 q 268 980 172 977 "},"ú":{"x_min":44.9375,"x_max":570,"ha":601,"o":"m 138 -166 q 173 -202 137 -183 q 248 -222 209 -222 q 306 -199 288 -222 l 327 -234 q 244 -257 299 -257 q 129 -229 180 -257 q 72 -148 72 -197 q 113 -86 72 -110 q 206 -63 153 -63 q 338 -117 290 -63 q 383 -99 362 -110 q 423 -74 403 -88 q 473 0 470 -39 l 473 17 q 426 131 473 84 q 390 161 422 135 q 298 235 358 187 l 295 253 q 416 358 374 292 q 436 434 436 390 q 405 540 436 495 q 319 590 373 590 q 206 535 264 571 l 206 108 q 249 73 222 74 q 307 106 283 73 l 332 85 q 186 -35 192 -35 q 175 -28 192 -35 q 176 -16 176 -26 l 176 -15 q 76 38 156 19 q 78 56 68 45 q 96 71 87 62 q 113 91 104 80 l 113 536 l 44 536 l 44 561 q 206 811 144 633 l 206 813 l 237 813 l 206 671 l 208 587 l 408 682 q 427 665 426 675 q 429 642 429 664 q 498 593 466 630 q 533 503 531 550 q 409 300 528 391 q 570 31 570 141 q 552 -39 570 -4 q 395 -140 522 -94 q 349 -154 381 -146 q 266 -176 317 -163 q 177 -138 215 -138 q 138 -166 144 -138 "},"2":{"x_min":44.03125,"x_max":634.390625,"ha":671,"o":"m 608 638 q 520 448 589 518 q 195 132 434 362 l 164 92 l 498 92 q 507 89 503 89 q 580 158 535 89 q 613 218 599 186 l 634 214 l 571 -4 l 44 -4 l 73 45 q 105 79 84 58 q 155 133 125 101 q 258 242 196 177 q 403 395 320 308 q 501 623 488 484 l 501 625 q 328 823 491 799 q 312 825 320 824 q 295 826 303 826 q 155 770 214 826 q 78 631 99 719 l 52 632 q 144 842 64 760 q 353 929 227 929 q 531 862 456 929 q 611 684 611 791 q 610 661 611 673 q 608 638 609 650 "},"ü":{"x_min":26.265625,"x_max":578.34375,"ha":609,"o":"m 130 664 q 150 644 147 655 q 156 617 152 630 q 173 595 159 604 l 199 583 l 199 120 q 266 75 219 75 q 401 176 300 75 l 401 519 q 359 561 401 533 q 355 577 355 566 q 355 580 355 579 q 356 582 356 580 l 356 583 q 387 607 367 590 q 434 652 406 625 q 450 655 445 655 q 470 650 460 655 q 499 607 489 619 q 515 594 505 601 q 540 580 525 587 q 543 570 543 575 q 539 561 543 566 q 526 554 533 558 q 507 543 518 550 q 495 498 495 519 l 495 104 q 515 77 495 87 l 518 77 q 563 113 542 77 l 578 95 l 455 -36 l 439 -30 q 404 15 439 4 l 403 133 q 304 56 355 98 q 199 -36 252 14 l 196 -36 q 185 -33 187 -36 q 73 36 172 16 l 73 40 q 76 57 73 48 q 111 111 111 83 l 111 489 q 81 541 111 522 q 51 523 62 534 q 26 541 31 530 l 130 664 m 417 945 q 450 899 450 933 q 405 816 450 872 q 334 745 368 775 l 306 744 l 356 919 q 407 946 362 946 q 417 943 407 946 l 417 945 m 218 949 q 222 949 220 949 q 225 950 223 950 l 227 950 l 240 950 q 265 934 254 950 q 277 904 277 918 q 273 887 277 896 q 269 874 270 879 l 183 748 l 155 748 l 172 893 q 188 926 173 908 q 218 947 204 944 l 218 949 "},"Z":{"x_min":28,"x_max":669,"ha":705,"o":"m 638 690 q 576 554 631 612 q 452 471 526 498 q 420 461 437 465 q 384 453 404 457 q 669 99 669 397 q 570 -84 652 -7 q 384 -173 487 -164 q 352 -180 370 -175 q 310 -191 334 -185 q 274 -204 288 -200 q 255 -210 261 -208 q 227 -178 241 -194 q 198 -146 213 -161 q 129 -105 158 -105 q 77 -126 98 -105 q 57 -176 57 -147 q 87 -260 57 -219 q 66 -274 82 -269 q 28 -171 28 -235 q 79 -87 28 -105 q 138 -63 107 -76 q 208 -36 170 -51 q 251 -18 223 -8 l 254 -18 q 387 -136 295 -136 q 524 -63 464 -136 q 580 83 580 4 q 473 280 580 186 q 263 382 372 369 q 243 384 252 383 q 223 385 233 385 q 113 301 130 385 q 61 305 91 296 q 200 429 105 405 q 98 489 133 454 q 81 515 81 507 q 109 525 81 525 q 112 523 111 523 l 113 523 q 265 467 163 467 q 288 467 276 467 q 311 470 299 468 q 460 539 397 479 q 526 686 526 601 q 456 844 526 775 q 298 917 388 912 q 141 868 206 922 q 63 733 77 817 l 36 736 q 130 917 44 847 q 326 981 211 981 l 331 981 q 547 914 461 981 q 639 719 639 840 q 639 705 639 712 q 638 690 639 697 "},"u":{"x_min":26.265625,"x_max":578.34375,"ha":610,"o":"m 130 664 q 148 650 136 661 q 168 618 154 628 q 185 603 178 611 q 199 583 193 594 l 199 121 q 266 75 219 75 q 315 96 287 75 q 334 114 324 105 q 355 133 344 123 q 382 158 370 147 q 401 176 394 169 l 401 519 q 359 561 394 536 q 356 580 356 569 l 356 583 q 397 619 376 596 q 420 647 412 637 q 431 660 428 657 q 448 659 438 662 q 464 656 457 656 q 540 580 497 603 q 539 561 546 572 q 517 549 525 554 q 504 538 508 544 q 498 523 500 532 q 495 498 496 514 l 495 104 q 513 77 495 77 q 563 114 542 77 l 578 95 l 454 -36 q 448 -33 452 -34 q 439 -29 445 -31 q 404 15 425 9 l 403 133 q 304 54 355 97 q 199 -36 252 12 q 196 -35 199 -35 q 185 -33 189 -35 q 73 36 172 16 l 73 37 l 73 40 q 76 57 73 48 q 95 71 89 65 q 105 85 101 78 q 109 100 108 91 q 110 123 110 110 l 110 384 q 111 435 111 412 q 111 475 111 458 q 80 539 111 539 q 51 523 66 539 q 26 541 31 530 l 130 664 "},"":{"x_min":39.734375,"x_max":652.78125,"ha":657,"o":"m 276 875 q 177 812 195 875 q 175 794 176 802 q 174 778 174 785 q 197 678 174 755 q 218 612 205 650 l 351 613 l 351 536 l 218 536 q 220 462 219 499 q 221 385 221 424 q 210 71 221 231 q 177 -260 200 -89 l 152 -260 q 111 412 111 108 q 111 472 111 442 q 112 533 111 502 l 44 537 q 47 562 33 548 q 103 622 94 578 l 143 812 q 307 953 187 953 l 307 954 q 419 919 368 949 q 491 831 480 884 l 500 123 q 552 80 512 80 q 633 115 594 80 l 652 98 l 481 -33 q 462 -2 462 -29 l 462 0 l 462 1 l 375 45 q 370 63 368 56 q 407 113 400 86 l 407 798 q 355 851 404 826 q 309 870 326 866 q 276 875 293 875 "},"˜":{"x_min":-1.390625,"x_max":384.75,"ha":431,"o":"m 116 924 l 293 851 l 294 850 l 297 850 l 300 850 q 327 857 311 850 q 342 875 334 864 q 356 900 350 886 l 384 890 q 300 781 354 839 q 273 763 290 763 l 262 763 q 257 763 259 763 q 245 768 255 764 q 238 772 244 769 q 231 776 237 773 l 91 837 l 77 837 q 71 836 75 837 q 65 834 68 834 l 25 787 l 25 785 l 22 785 l 20 785 l 19 785 q -1 794 4 785 q 75 905 19 837 q 83 911 77 908 q 95 921 88 915 q 108 924 104 924 l 111 924 l 112 924 q 115 922 113 922 l 116 922 l 116 924 "},"Ó":{"x_min":37,"x_max":693,"ha":726,"o":"m 641 514 q 592 546 607 514 q 571 584 580 577 q 555 575 564 584 q 541 565 552 572 q 513 543 531 557 q 551 483 541 513 q 562 412 562 453 q 474 249 562 305 q 288 204 400 204 q 195 198 217 204 q 140 140 140 186 q 238 85 140 85 l 251 85 l 421 87 q 573 52 527 87 q 619 -66 619 16 q 295 -267 619 -267 q 37 -137 37 -267 q 69 -64 37 -96 q 188 -14 102 -33 q 126 5 150 -5 q 88 30 102 16 q 70 61 75 44 q 66 101 66 79 q 97 184 66 151 q 207 232 128 218 q 110 307 136 263 q 84 412 84 350 q 157 565 84 508 q 323 617 223 617 q 413 605 374 617 q 488 565 452 593 l 510 585 q 622 638 572 638 q 693 564 693 638 q 641 514 693 514 m 323 578 q 185 407 185 578 q 321 239 185 239 q 427 279 394 239 q 461 407 461 319 q 323 578 461 578 m 238 -8 q 130 -123 130 -28 q 303 -224 130 -224 q 543 -102 543 -224 q 508 -30 543 -52 q 399 -8 474 -8 l 238 -8 "},"k":{"x_min":48.71875,"x_max":340.90625,"ha":340,"o":"m 114 833 q 100 861 107 848 q 87 882 94 873 l 102 898 q 150 826 139 871 q 335 953 176 953 l 335 928 q 202 814 232 916 l 204 715 q 250 848 218 812 q 340 898 271 871 l 328 732 q 313 733 322 733 q 228 689 265 733 l 327 689 l 327 656 l 202 656 l 202 105 q 232 79 210 79 q 274 103 254 79 l 290 87 q 193 -30 236 33 q 172 -31 181 -35 q 69 42 140 25 q 64 61 64 49 q 114 142 114 96 l 114 656 l 48 656 l 48 689 l 114 689 l 114 833 "},"Ù":{"x_min":33,"x_max":1372,"ha":1374,"o":"m 1372 560 q 1320 510 1372 510 q 1272 542 1287 510 q 1251 580 1259 573 q 1234 573 1245 580 q 1193 539 1227 566 q 1231 479 1220 509 q 1243 409 1243 449 q 1155 247 1243 302 q 967 202 1082 202 q 875 196 896 202 q 820 136 820 182 q 918 81 820 81 l 929 81 l 1101 85 q 1253 49 1207 85 q 1299 -70 1299 12 q 975 -271 1299 -271 q 717 -141 717 -271 q 749 -68 717 -100 q 867 -18 782 -37 q 806 1 830 -9 q 768 26 781 12 q 750 57 755 40 q 746 98 746 75 q 777 180 746 147 q 888 228 809 214 q 789 304 815 261 q 764 408 764 347 q 837 561 764 504 q 1002 613 901 613 q 1092 601 1054 613 q 1167 561 1130 589 l 1190 581 q 1301 635 1249 635 q 1372 560 1372 635 m 1140 404 q 1002 574 1140 574 q 865 404 865 574 q 1001 235 865 235 q 1140 404 1140 235 m 1221 -105 q 1187 -35 1221 -57 q 1079 -13 1154 -13 l 918 -13 q 810 -128 810 -33 q 983 -228 810 -228 q 1221 -105 1221 -228 m 412 0 l 412 44 l 444 45 q 483 51 473 46 q 496 72 493 57 q 485 100 496 81 q 483 102 483 101 q 482 104 483 103 l 326 329 l 243 249 l 243 101 q 252 58 243 70 q 291 45 262 46 l 341 43 l 341 0 l 40 0 l 40 43 l 90 45 q 129 58 119 46 q 140 102 140 70 l 140 873 q 124 922 140 909 q 63 934 108 934 q 47 934 58 934 q 33 933 37 933 l 33 973 l 243 989 l 242 311 l 448 512 q 464 547 464 528 q 445 571 464 565 q 394 577 433 577 l 359 577 l 359 614 l 671 614 l 671 577 l 669 577 q 469 468 578 577 l 401 401 l 603 111 q 727 43 646 50 l 727 0 l 412 0 "},"Ÿ":{"x_min":4,"x_max":918,"ha":956,"o":"m 734 983 l 754 968 l 747 939 q 846 747 808 833 q 902 594 884 661 q 918 444 918 536 q 901 290 918 378 q 858 144 884 190 l 809 51 q 776 3 798 32 q 723 -66 755 -26 q 411 -265 557 -265 q 296 -239 346 -265 q 232 -148 232 -209 q 292 -84 232 -84 q 339 -113 324 -84 q 336 -130 336 -123 q 335 -141 336 -136 q 334 -150 334 -146 q 367 -205 334 -187 q 432 -222 393 -222 q 602 -142 507 -222 q 673 -71 642 -108 q 725 4 703 -34 q 746 50 742 33 q 770 135 757 93 q 793 218 782 176 q 807 297 803 257 q 812 379 812 337 q 796 522 812 474 q 778 585 789 549 q 748 669 766 621 q 704 749 730 701 q 644 858 678 796 l 634 858 q 520 724 566 796 q 536 589 536 658 q 490 380 536 482 q 354 219 437 267 l 495 104 q 539 92 509 92 q 602 117 560 92 l 620 93 l 417 -30 l 395 -9 l 414 17 q 344 82 381 53 q 265 136 306 112 q 249 144 258 139 q 229 155 240 148 l 155 154 l 152 180 q 336 253 259 197 q 441 416 421 318 q 445 459 443 436 q 448 508 448 482 q 296 851 448 762 q 223 875 256 875 q 148 860 181 875 q 91 820 115 845 q 55 760 68 795 q 42 683 42 725 q 55 600 42 638 q 93 533 68 562 q 153 484 118 504 q 232 459 187 465 l 226 436 q 30 565 90 444 q 4 705 4 616 q 83 893 4 809 q 267 978 163 978 q 421 911 348 978 q 510 764 490 847 q 630 885 574 831 q 734 982 686 939 l 734 983 m 576 1265 q 608 1235 597 1256 q 609 1224 609 1229 q 609 1217 609 1219 q 562 1137 609 1193 q 492 1067 523 1092 l 464 1065 l 514 1240 q 549 1265 533 1265 q 576 1263 572 1265 l 576 1265 m 376 1270 l 386 1270 l 402 1270 q 424 1255 413 1270 q 434 1228 434 1240 q 426 1195 434 1207 l 341 1069 l 312 1069 l 330 1213 q 376 1268 336 1253 l 376 1270 "},"€":{"x_min":-29.171875,"x_max":887.578125,"ha":903,"o":"m 441 453 l 168 453 l 168 443 q 262 246 176 344 q 447 119 345 152 q 494 232 475 154 q 493 322 506 287 l 441 453 m 386 593 l 165 592 q 163 548 163 569 q 163 507 162 526 l 419 509 l 386 593 m 363 648 l 343 702 l 465 844 q 430 913 461 883 q 361 947 398 947 l 361 948 q 358 947 359 947 q 168 649 194 947 l 363 648 m 5 649 l 72 649 q 347 983 126 983 l 347 985 q 490 870 472 965 l 601 983 l 812 910 q 840 916 819 906 l 863 959 l 887 946 l 807 800 l 786 800 l 559 877 q 462 800 523 880 q 448 749 448 774 l 448 746 q 490 648 451 743 l 745 648 l 719 593 l 512 593 q 523 563 515 585 q 545 507 531 541 l 683 509 l 657 454 l 566 454 q 585 402 576 427 q 602 354 594 378 q 605 338 605 343 l 472 113 q 637 92 561 92 q 862 150 763 92 l 875 133 l 711 -16 q 508 -24 613 -38 q 464 -17 486 -21 q 420 -6 443 -13 q 166 165 263 36 q 61 452 73 288 l -27 452 l 6 507 l 59 509 q 63 592 59 551 l -29 592 l 5 649 "},"¢":{"x_min":76,"x_max":610,"ha":641,"o":"m 367 760 l 390 760 l 390 658 q 536 607 476 650 q 607 473 607 554 q 542 425 607 425 q 537 425 541 425 q 531 426 533 426 q 497 479 502 441 q 496 545 496 486 q 486 580 496 564 q 462 608 477 597 q 428 625 447 619 q 390 630 409 632 l 390 6 l 392 5 l 396 5 q 527 63 474 5 q 583 199 577 119 l 610 201 q 459 -7 598 42 q 390 -21 416 -23 l 390 -163 l 367 -163 l 367 -18 q 190 43 263 -18 q 92 202 119 101 q 76 294 76 262 q 80 366 76 333 q 91 430 84 400 q 195 584 113 519 q 367 657 269 644 l 367 760 m 366 627 q 256 552 294 612 q 212 436 230 509 q 194 312 194 368 q 230 122 194 211 q 364 6 276 6 l 367 6 l 366 627 "},"ß":{"x_min":36.15625,"x_max":511,"ha":558,"o":"m 309 954 q 435 934 373 952 q 446 946 438 943 l 451 946 q 453 945 452 946 q 459 942 456 943 q 467 937 462 940 l 406 822 q 356 839 387 829 q 283 862 325 850 q 255 867 268 867 q 175 818 196 867 q 171 794 171 807 l 224 558 l 382 660 l 383 659 l 386 659 q 473 602 433 659 q 511 492 511 549 q 508 472 511 485 q 393 295 492 399 q 504 109 504 263 q 492 24 504 66 q 463 -40 483 -9 q 415 -94 442 -71 q 356 -130 388 -116 q 289 -146 323 -144 q 185 -133 243 -148 l 171 -260 l 143 -260 q 106 533 111 113 l 39 537 q 37 558 33 543 q 39 560 39 559 q 40 562 39 561 q 79 586 57 579 q 143 821 126 697 q 309 953 196 953 l 309 954 m 191 -113 q 296 -123 244 -137 q 381 -61 351 -108 q 412 40 412 -18 q 380 152 412 100 q 287 215 345 208 q 253 203 272 209 q 216 190 235 197 l 191 -113 m 217 227 q 356 301 291 244 q 430 436 430 366 q 413 500 430 468 q 330 563 378 563 q 320 565 327 565 q 265 544 299 565 q 221 513 236 526 l 217 227 "},"╕":{"x_min":-15.265625,"x_max":550,"ha":621,"o":"m 432 233 l -15 233 l -15 351 l 432 351 l 432 492 l -15 492 l -15 610 l 550 610 l 550 -421 l 432 -421 l 432 233 "},"└":{"x_min":433,"x_max":999.640625,"ha":975,"o":"m 433 363 l 433 1264 l 551 1264 l 551 481 l 999 481 l 999 363 l 433 363 "},"é":{"x_min":41.15625,"x_max":597.453125,"ha":622,"o":"m 503 597 q 524 583 514 590 q 546 573 535 577 q 550 560 550 569 q 546 548 550 553 q 503 498 503 523 l 503 138 q 536 87 503 101 l 579 120 l 597 101 l 476 -28 l 471 -28 l 464 -25 q 409 47 444 27 l 409 512 q 396 533 409 521 q 273 533 318 533 q 218 536 229 534 q 219 497 219 516 q 219 459 219 479 q 177 -260 219 69 l 152 -260 q 111 412 111 108 q 111 472 111 442 q 112 533 111 502 l 43 537 q 41 545 41 539 q 46 562 41 556 q 102 621 93 578 l 142 812 q 159 855 142 813 q 247 926 177 896 q 365 951 306 951 q 493 903 427 951 q 531 796 531 876 q 461 701 531 701 q 397 783 397 701 q 409 830 397 815 q 355 860 404 845 q 289 872 314 872 q 212 845 247 872 q 173 781 173 819 q 218 598 173 735 l 503 597 "},"s":{"x_min":43.59375,"x_max":419.40625,"ha":392,"o":"m 306 954 q 381 936 344 951 q 399 948 390 948 q 419 936 408 948 l 366 827 q 248 865 313 865 q 176 784 176 865 q 218 612 176 738 q 220 526 219 569 q 221 441 221 484 q 210 83 221 258 q 177 -260 200 -90 l 152 -260 q 111 412 111 108 q 111 472 111 442 q 112 533 111 502 l 43 537 q 46 562 42 558 q 102 622 93 578 l 142 812 q 306 954 190 962 "},"B":{"x_min":40.96875,"x_max":1078,"ha":1099,"o":"m 852 983 q 873 963 868 976 q 863 939 868 952 q 862 914 858 927 q 909 826 866 891 q 975 746 952 757 l 1018 746 q 1037 724 1030 739 l 826 596 q 979 516 913 573 q 1071 370 1051 451 q 1078 306 1078 335 q 868 28 1078 134 q 703 -24 780 -14 q 635 -28 678 -26 q 530 -31 593 -31 l 214 151 q 164 156 191 156 q 103 137 119 156 q 85 94 85 124 q 91 48 85 78 l 76 39 q 55 98 55 60 q 112 192 55 152 q 172 219 140 212 q 236 231 229 228 q 509 551 509 312 q 456 768 509 677 q 269 875 390 875 q 195 862 229 875 q 136 826 161 850 q 95 769 111 802 q 79 694 80 736 q 140 523 76 593 q 306 445 205 451 l 304 420 q 290 419 297 419 q 276 419 283 419 q 108 513 181 419 q 41 700 39 602 q 100 881 45 809 q 264 976 160 958 q 307 981 285 981 q 385 969 346 981 q 456 937 423 958 q 517 888 490 917 q 563 826 544 860 l 852 983 m 620 484 q 502 305 584 356 q 434 274 485 294 q 295 224 382 255 q 443 137 373 180 q 580 53 513 95 q 710 20 648 20 q 860 58 774 20 q 972 245 972 128 q 953 337 972 292 q 842 457 923 413 q 683 496 774 496 q 620 484 662 494 m 696 856 q 632 825 662 841 q 575 792 602 809 q 624 569 624 676 q 622 542 624 559 q 621 517 621 526 q 876 667 758 576 l 755 853 q 696 856 735 874 "},"…":{"x_min":156,"x_max":1234,"ha":1280,"o":"m 232 132 q 284 109 262 132 q 307 57 307 87 q 284 3 307 25 q 232 -19 262 -19 q 178 3 201 -19 q 156 57 156 26 q 178 109 156 87 q 232 132 200 132 m 695 132 q 748 109 726 132 q 770 57 770 87 q 747 3 770 25 q 695 -19 725 -19 q 642 3 664 -19 q 620 57 620 26 q 642 109 620 87 q 695 132 664 132 m 1157 132 q 1211 109 1189 132 q 1234 57 1234 87 q 1211 3 1234 25 q 1157 -19 1189 -19 q 1105 3 1128 -19 q 1083 57 1083 26 q 1105 109 1083 87 q 1157 132 1127 132 "},"?":{"x_min":9.859375,"x_max":404,"ha":423,"o":"m 190 141 q 269 61 199 90 l 269 58 l 270 57 l 270 54 l 269 43 l 266 36 q 216 7 221 12 q 190 -40 190 -10 l 163 -40 q 152 -14 160 -27 q 132 10 144 -1 q 107 28 120 21 q 81 35 94 35 l 81 62 q 158 129 134 72 q 163 141 163 141 l 190 141 m 155 931 l 169 931 q 387 775 336 931 q 404 694 404 722 q 385 601 404 654 q 342 518 366 544 l 216 378 q 189 301 189 346 q 193 250 189 283 l 173 251 q 151 365 151 301 q 167 439 151 382 q 195 508 187 500 l 313 651 q 346 761 346 692 q 335 812 346 788 q 306 855 325 836 q 263 884 287 874 q 212 895 239 895 q 136 847 166 895 q 100 760 108 808 q 59 746 84 746 q 39 750 48 746 q 9 810 9 772 l 9 813 q 155 930 51 921 l 155 931 "},"H":{"x_min":-22.078125,"x_max":860,"ha":878,"o":"m 416 976 q 526 935 480 935 q 583 973 552 935 l 604 954 q 483 832 550 879 l 336 890 q 297 858 307 871 q 266 755 266 822 l 329 611 q 536 736 419 683 q 604 773 553 773 q 860 390 860 647 q 680 38 860 156 q 593 8 625 19 q 551 -5 561 -2 q 501 -16 544 -8 q 378 -40 458 -25 q 279 24 344 16 q 211 -8 236 24 q 188 -82 188 -40 q 198 -130 188 -107 q 225 -171 208 -153 q 265 -199 242 -189 q 313 -210 288 -210 q 415 -144 378 -210 l 440 -148 q 313 -239 408 -239 q 201 -193 247 -239 q 156 -84 156 -150 q 286 74 156 29 q 393 102 347 97 q 516 12 434 52 q 688 115 619 19 q 750 387 755 208 q 677 562 741 486 q 514 650 607 650 q 340 573 421 650 l 407 385 q 417 344 417 366 q 332 223 417 283 q 189 172 255 172 q 125 181 154 172 l 11 238 q -9 238 0 232 q -22 255 -19 244 l 80 332 q 147 257 107 288 q 239 219 194 219 q 295 240 269 219 q 321 300 321 262 q 301 376 321 334 q 234 517 265 446 q 177 659 204 587 l 168 708 q 213 792 194 758 q 244 845 232 826 q 288 906 264 876 q 343 966 312 935 q 383 986 355 986 q 416 976 402 986 "},"c":{"x_min":65,"x_max":398.84375,"ha":421,"o":"m 251 661 l 272 661 l 347 599 q 379 609 365 597 l 398 592 l 309 519 l 293 519 l 207 584 l 168 547 q 157 460 161 504 q 153 369 153 416 q 173 150 153 259 q 264 86 204 86 q 284 88 271 86 l 366 154 l 390 138 l 200 -36 q 186 -26 190 -31 l 186 -3 q 94 73 120 19 q 65 190 78 104 l 65 438 l 73 497 l 251 661 "},"¶":{"x_min":78.96875,"x_max":743.890625,"ha":737,"o":"m 390 925 l 738 925 l 738 892 l 655 892 l 655 -97 l 743 -97 l 743 -128 l 273 -128 l 273 -97 l 379 -97 l 379 440 q 364 439 372 439 q 349 439 356 439 q 320 441 340 440 q 260 446 301 443 q 116 542 163 462 q 80 651 85 589 q 78 664 78 655 l 78 675 q 84 729 78 705 q 167 886 92 825 q 313 924 231 924 l 327 924 q 333 923 328 924 q 341 922 338 922 l 390 925 m 442 892 l 442 -97 l 592 -97 l 592 892 l 442 892 "},"−":{"x_min":-2.78125,"x_max":711.171875,"ha":761,"o":"m -2 360 l 711 360 l 711 316 l -2 316 l -2 360 "},"•":{"x_min":47,"x_max":387,"ha":427,"o":"m 47 536 q 60 602 47 571 q 96 656 73 633 q 149 692 119 679 q 216 706 180 706 q 282 692 251 706 q 337 656 313 679 q 373 602 360 633 q 387 536 387 571 q 373 470 387 501 q 337 417 360 440 q 282 381 313 394 q 216 368 251 368 q 149 381 180 368 q 96 417 119 394 q 60 470 73 440 q 47 536 47 501 "},"¥":{"x_min":4,"x_max":1068.4375,"ha":1103,"o":"m 573 500 l 802 500 q 786 560 795 530 q 766 621 777 590 q 644 858 738 685 q 571 785 632 858 q 521 724 522 728 q 535 600 535 668 q 491 380 535 479 q 354 219 444 272 l 496 104 q 532 92 510 92 q 603 117 562 92 l 621 93 l 418 -30 l 396 -9 l 415 17 q 326 92 379 55 q 277 123 302 107 q 229 155 252 140 l 155 154 l 152 180 q 397 312 318 204 q 449 504 449 385 q 440 607 449 554 q 264 868 405 817 q 212 877 239 877 q 92 818 143 877 q 42 688 42 761 q 92 536 42 599 q 232 460 144 470 l 226 436 q 58 524 118 443 q 4 706 4 596 q 83 893 4 810 q 268 978 163 978 q 423 911 350 978 q 511 764 490 846 q 598 858 546 803 q 725 988 651 912 l 734 983 l 754 968 q 747 939 744 949 q 868 693 832 793 q 914 500 902 596 l 1068 500 l 1068 425 l 917 425 q 911 347 915 386 q 896 268 907 308 l 1068 268 l 1068 194 l 875 194 q 723 -71 830 60 q 417 -265 573 -259 q 298 -241 348 -267 q 233 -148 233 -209 q 292 -84 233 -84 q 339 -113 324 -84 q 337 -131 338 -123 q 337 -145 337 -138 q 428 -222 337 -222 q 695 -20 577 -222 q 751 88 727 35 q 789 194 775 142 l 573 194 l 573 268 l 806 268 l 810 310 q 812 344 811 328 q 813 376 813 361 q 813 401 813 389 q 812 425 813 412 l 573 425 l 573 500 "},"(":{"x_min":64,"x_max":347.1875,"ha":324,"o":"m 347 954 l 344 913 q 194 672 248 813 q 143 392 143 538 q 167 216 154 288 q 194 103 180 144 q 344 -154 229 5 l 344 -185 q 138 67 198 -40 q 64 383 64 205 q 140 699 64 551 q 347 952 213 845 l 347 954 "},"U":{"x_min":17.65625,"x_max":802.671875,"ha":822,"o":"m 135 983 q 236 900 198 976 l 236 165 q 360 61 256 108 q 408 70 392 61 q 476 111 435 86 q 572 169 517 136 l 572 800 q 506 861 559 861 l 506 890 q 612 982 570 904 l 641 982 q 748 888 673 912 l 748 859 q 686 788 695 847 l 686 140 q 716 92 686 98 q 777 127 736 94 l 802 103 l 648 -42 l 624 -31 l 630 -10 q 568 127 568 14 l 568 131 q 460 67 524 105 q 308 -21 395 28 q 269 -28 287 -28 q 229 2 229 -28 l 90 74 q 87 98 87 83 l 87 101 q 125 173 125 138 l 125 176 l 125 177 l 125 178 l 126 784 q 87 862 126 841 q 66 849 78 856 q 35 833 53 842 l 17 858 l 135 983 "},"▬":{"x_min":31.953125,"x_max":718.109375,"ha":793,"o":"m 31 799 l 718 799 l 718 118 l 31 118 l 31 799 "},"╫":{"x_min":-15.078125,"x_max":998.46875,"ha":982,"o":"m 303 -421 l 304 363 l -15 363 l -15 481 l 303 481 l 303 1264 l 422 1264 l 422 481 l 561 481 l 561 1264 l 679 1264 l 679 481 l 998 481 l 998 363 l 679 363 l 679 -421 l 561 -421 l 561 363 l 422 363 l 422 -421 l 303 -421 "},"Ñ":{"x_min":16.78125,"x_max":976.6875,"ha":1021,"o":"m 265 980 l 268 979 q 423 929 357 979 q 518 794 490 879 q 730 979 568 979 q 924 876 867 979 q 947 817 947 835 l 947 692 q 970 680 958 681 l 970 655 q 821 567 851 635 q 810 535 810 542 l 810 169 q 828 105 810 140 q 875 65 848 65 q 921 77 901 65 q 955 111 925 80 l 976 93 l 836 -29 q 814 -33 832 -33 l 812 -33 q 810 -32 811 -33 q 711 44 764 30 q 688 286 688 122 q 721 548 688 504 q 852 647 762 602 q 853 660 852 651 q 854 673 854 669 q 694 903 854 903 q 533 762 569 903 q 554 603 547 687 q 561 422 561 519 q 519 194 561 311 q 393 6 470 58 q 254 -32 336 -32 q 225 -29 243 -32 q 180 -21 206 -26 q 111 -10 127 -10 q 58 -21 87 -10 l 55 -21 q 36 0 41 -14 q 38 22 37 11 q 39 44 39 33 q 16 113 39 83 l 34 140 q 78 129 57 129 q 150 152 76 129 q 175 131 167 145 q 159 84 159 111 q 271 -4 159 -4 q 321 2 303 -4 q 415 119 376 26 q 456 270 450 198 q 460 383 460 313 q 443 601 460 494 q 375 802 419 748 q 211 876 314 876 q 93 817 140 876 q 49 692 49 764 q 226 456 49 538 l 218 432 q 69 524 122 456 q 17 692 17 592 q 23 776 17 737 q 110 919 37 857 q 265 979 179 979 l 265 980 m 423 1222 q 605 1148 604 1148 q 633 1155 616 1148 q 664 1198 651 1173 l 690 1188 q 575 1061 615 1061 q 397 1136 552 1061 l 394 1134 l 393 1136 l 383 1136 q 372 1133 382 1134 q 326 1084 330 1084 q 301 1092 311 1084 q 390 1214 363 1195 q 422 1221 400 1221 l 423 1221 l 423 1222 "},"F":{"x_min":-5,"x_max":794.765625,"ha":742,"o":"m 321 995 q 377 987 348 990 q 433 981 405 983 q 491 967 465 975 q 541 950 518 960 l 726 871 q 775 897 750 872 l 794 875 l 671 757 l 650 760 l 508 835 q 485 818 496 826 q 465 803 475 810 q 360 601 360 715 q 369 542 360 569 q 392 496 376 522 q 434 440 408 471 q 482 469 459 451 q 556 548 529 504 q 580 548 572 555 q 670 498 630 505 q 672 491 672 497 q 668 465 672 473 q 606 403 634 439 q 573 404 591 396 q 523 443 561 416 q 454 414 483 439 l 630 177 q 668 20 668 94 q 658 -51 668 -18 q 559 -205 644 -148 q 383 -257 485 -257 q 198 -208 276 -257 q 100 -54 109 -154 q 115 37 100 4 q 166 115 120 51 q 192 152 177 133 q 223 193 207 170 q 232 215 232 202 q 186 276 232 257 q 158 282 175 282 q 90 230 108 282 l 63 241 q 156 317 93 317 q 193 310 172 317 q 270 197 270 285 q 264 154 270 175 q 240 106 253 130 q 211 54 226 82 q 193 24 201 39 q 175 -5 185 9 q 154 -69 154 -45 q 229 -187 154 -144 q 372 -225 293 -225 q 519 -180 462 -225 q 578 -42 578 -133 q 462 200 578 51 q 412 266 446 222 q 349 348 372 318 q 321 385 326 378 q 270 521 270 461 q 269 525 269 522 q 333 717 269 635 q 374 757 339 724 q 473 853 408 790 q 389 886 433 872 q 300 906 345 899 q 277 908 288 907 q 255 909 266 909 q 90 849 154 909 q 28 717 28 792 q 132 560 28 618 l 125 538 q 28 604 57 567 q -5 715 -5 643 q 96 925 -5 849 q 321 993 185 993 l 321 995 "},"╤":{"x_min":-15.28125,"x_max":998.6875,"ha":989,"o":"m 998 492 l -15 492 l -15 610 l 998 610 l 998 492 m 432 233 l -15 233 l -15 351 l 998 351 l 998 233 l 550 233 l 550 -421 l 432 -421 l 432 233 "},":":{"x_min":87.5,"x_max":272.25,"ha":310,"o":"m 163 141 l 193 141 q 213 97 198 112 q 265 64 234 76 l 265 37 q 252 29 259 35 q 234 16 245 23 q 206 -1 226 8 q 197 -26 201 -9 q 193 -40 194 -34 q 187 -41 190 -40 q 181 -43 184 -43 l 173 -43 l 172 -42 l 169 -42 q 154 -19 163 -31 q 133 8 145 -6 q 93 30 109 25 l 87 62 q 134 91 115 72 q 161 133 152 110 l 161 136 l 162 137 l 163 139 l 163 140 l 163 141 m 165 638 l 193 638 q 230 576 202 596 q 239 571 234 574 q 251 565 244 568 q 259 563 254 564 q 272 560 265 563 l 272 532 q 225 506 247 524 q 211 483 219 496 q 191 453 202 471 q 188 452 190 453 q 184 451 186 451 l 172 451 q 165 453 166 451 l 165 458 q 163 464 165 462 q 155 486 163 478 q 102 526 138 514 q 95 531 100 526 l 91 532 q 87 533 90 533 l 87 560 q 113 573 100 565 q 140 592 126 581 q 165 636 158 610 l 165 638 "},"╓":{"x_min":304,"x_max":999.46875,"ha":983,"o":"m 304 -421 l 304 481 l 999 481 l 999 363 l 680 363 l 680 -421 l 561 -421 l 561 351 l 422 351 l 422 -421 l 304 -421 "},"Û":{"x_min":-1.390625,"x_max":582.390625,"ha":613,"o":"m 146 664 l 165 648 l 158 632 q 198 566 189 597 q 202 490 202 545 l 381 661 q 411 657 391 662 q 464 605 447 616 q 531 577 486 588 q 528 554 531 559 q 513 537 524 548 q 495 487 495 518 l 495 391 q 496 295 496 361 q 496 125 496 229 q 506 95 496 109 q 529 77 515 77 q 543 84 536 77 l 564 112 l 582 95 l 472 -36 q 457 -25 464 -34 q 404 38 450 16 l 404 497 q 337 552 366 552 q 282 520 316 552 q 243 484 263 502 q 205 447 224 466 l 205 108 q 246 54 214 72 q 245 36 252 48 q 199 9 210 23 q 183 -9 192 0 q 168 -31 175 -19 l 146 -31 q 66 34 120 20 q 65 57 65 35 q 114 113 114 99 q 114 186 114 142 q 113 288 114 230 l 113 466 q 78 543 113 520 q 65 529 72 537 q 46 509 57 520 q 26 530 36 516 l 146 664 m -1 816 l 533 816 l 533 755 l -1 755 l -1 816 "},"*":{"x_min":5.5625,"x_max":470.875,"ha":504,"o":"m 231 983 l 251 983 l 277 784 l 456 859 l 469 840 l 313 719 l 470 592 l 462 578 l 279 655 l 251 461 l 231 461 l 202 655 l 16 581 l 5 597 l 163 719 l 13 840 l 19 859 l 202 784 l 231 983 "},"†":{"x_min":75,"x_max":620,"ha":639,"o":"m 556 560 q 447 591 522 560 q 399 608 414 605 q 379 612 392 611 q 348 615 367 614 q 367 507 351 543 q 415 444 383 471 q 361 84 375 290 q 349 -279 354 5 l 338 -279 q 333 -67 336 -158 q 327 84 331 22 q 305 276 320 187 q 269 444 290 365 q 298 473 286 458 q 318 508 310 488 q 331 553 327 527 q 338 615 335 579 q 237 590 285 608 q 137 561 168 561 q 75 617 75 561 q 93 661 75 644 q 139 679 112 679 q 168 674 153 679 q 237 645 176 673 q 338 623 279 627 q 332 674 338 658 q 311 734 325 701 q 275 864 275 822 q 293 919 275 897 q 345 945 314 945 q 395 918 374 945 q 411 864 411 894 q 406 825 411 843 q 377 740 400 797 q 348 623 352 679 q 447 644 407 629 q 525 673 518 672 q 553 678 539 678 q 620 618 620 678 q 601 576 620 593 q 556 560 582 560 "},"°":{"x_min":225.015625,"x_max":470.875,"ha":439,"o":"m 381 978 q 434 943 420 959 q 465 886 454 922 q 470 857 470 873 l 470 852 q 469 845 470 850 q 468 838 468 841 q 418 758 459 790 q 394 743 406 748 q 352 735 375 735 l 344 735 q 288 748 318 735 q 226 843 241 775 q 225 847 226 844 q 225 851 225 850 l 225 858 q 231 898 225 875 q 305 974 251 953 q 352 979 326 979 q 367 978 359 979 q 381 976 375 978 l 381 978 m 347 932 q 313 922 329 930 q 273 877 286 907 q 270 865 270 869 q 269 859 269 863 l 269 852 q 302 790 269 812 q 322 779 312 783 q 330 777 325 779 q 338 776 336 776 l 356 776 q 368 779 359 776 q 408 804 391 787 q 420 827 419 815 q 422 832 422 829 l 422 836 q 423 841 423 837 l 423 848 q 421 861 423 852 q 416 883 419 869 q 393 916 411 904 q 362 929 380 927 q 354 929 359 929 q 347 930 350 930 l 347 932 "},"V":{"x_min":39.890625,"x_max":1061,"ha":1086,"o":"m 573 844 q 804 981 655 981 q 1022 840 973 981 q 1046 707 1046 766 l 1046 697 l 1061 693 l 1061 669 q 918 627 969 650 q 860 559 860 607 q 876 512 860 534 q 955 423 900 479 q 988 390 972 407 q 1023 358 1005 373 q 1054 277 1054 327 q 983 110 1054 191 q 809 -4 911 26 q 600 -28 730 -28 l 354 151 q 286 166 326 166 q 170 144 237 166 l 163 169 q 229 196 195 183 q 294 223 262 209 q 418 240 341 240 q 539 519 539 315 q 482 770 539 663 q 406 843 458 815 q 300 871 354 871 q 144 815 205 871 q 78 667 80 760 q 141 491 75 561 q 309 404 201 425 l 307 380 q 118 468 196 386 q 40 668 41 553 q 101 878 37 800 q 297 980 167 963 q 309 981 304 981 q 322 981 315 981 q 462 940 390 981 q 573 844 531 900 m 591 804 q 633 579 633 679 q 448 222 633 376 l 674 48 q 756 18 705 18 q 864 48 809 18 q 944 118 919 77 q 965 188 965 148 q 951 247 965 220 q 872 344 937 274 q 780 445 797 420 q 749 530 749 490 q 810 630 749 588 q 868 659 836 648 q 936 675 900 669 q 907 822 935 726 q 862 897 896 863 q 799 932 828 932 q 591 804 646 933 "},"å":{"x_min":51.25,"x_max":591.734375,"ha":599,"o":"m 290 658 l 305 658 q 334 653 322 658 q 520 548 426 587 q 522 539 523 541 q 519 528 522 536 q 490 508 502 521 q 482 476 482 489 l 482 473 l 482 472 l 482 147 l 482 144 l 482 143 q 491 104 482 132 q 515 80 500 89 q 536 76 532 76 l 537 76 l 538 76 l 541 76 q 573 104 566 93 l 591 90 l 479 -40 q 462 -23 468 -38 q 448 3 459 -3 q 427 19 437 12 q 409 33 416 26 q 394 75 399 53 q 386 123 388 98 l 191 -35 l 167 -27 l 177 -15 l 94 101 q 51 283 51 186 q 51 298 51 289 q 52 311 52 307 q 56 339 55 323 q 90 448 65 398 q 123 492 108 473 q 149 522 138 511 l 290 658 m 252 577 q 180 500 209 544 q 151 430 159 469 q 138 340 138 377 l 138 334 q 140 327 138 329 l 140 315 q 169 197 145 250 q 213 116 181 161 q 222 106 216 112 q 236 90 229 100 q 248 79 240 86 q 266 73 256 73 l 272 73 q 276 75 273 75 l 393 162 l 393 495 l 252 577 m 419 827 q 380 748 419 786 q 299 712 339 712 l 297 712 l 294 712 l 292 712 q 211 748 244 719 q 175 827 175 781 l 175 834 q 210 922 175 888 q 299 957 245 957 q 419 836 419 957 l 419 827 m 295 911 q 217 830 217 895 q 237 780 219 804 q 281 755 258 755 q 287 754 283 754 l 292 754 q 352 777 331 754 q 372 829 372 800 q 352 884 372 861 q 295 909 328 909 l 295 911 "}," ":{"x_min":0,"x_max":0,"ha":307},"0":{"x_min":63.875,"x_max":644,"ha":694,"o":"m 354 926 q 585 758 509 924 q 644 440 644 629 q 584 144 644 269 q 354 -19 508 -20 q 126 144 204 -16 q 64 436 68 266 q 76 601 62 523 q 120 749 90 679 q 354 926 199 928 m 354 893 q 200 716 234 893 q 189 614 193 684 q 185 436 186 544 q 201 180 183 268 q 354 14 239 14 q 526 436 530 14 q 521 602 524 536 q 510 705 517 669 q 354 893 473 893 "},"”":{"x_min":34.71875,"x_max":387.734375,"ha":450,"o":"m 297 961 q 379 892 365 961 q 381 783 394 823 q 338 707 372 748 q 281 649 304 667 l 263 664 q 315 758 281 694 q 297 823 348 823 q 229 892 229 823 q 297 961 229 961 m 102 961 q 185 892 170 961 q 187 783 200 823 q 143 707 177 748 q 87 649 109 667 l 69 664 q 120 758 87 694 q 102 823 154 823 q 34 892 34 823 q 102 961 34 961 "},"¾":{"x_min":35,"x_max":872.125,"ha":878,"o":"m 379 145 l 322 157 l 626 800 l 686 791 l 379 145 m 241 383 q 109 411 172 383 q 35 497 35 444 q 89 551 35 551 q 107 548 98 551 q 150 491 150 543 q 148 477 150 486 q 146 465 146 469 q 241 425 146 425 q 330 454 298 425 q 361 526 361 480 q 319 616 361 581 q 205 651 277 651 q 174 648 197 651 q 134 645 151 645 l 134 688 q 258 724 204 700 q 329 798 329 755 q 296 852 329 830 q 217 875 263 875 q 142 856 179 875 q 83 805 101 836 l 45 827 q 252 944 105 944 q 259 943 256 944 q 286 939 270 941 q 324 933 302 937 q 394 894 365 923 q 428 824 428 862 q 421 781 428 799 q 312 699 405 741 q 468 557 468 669 q 398 430 468 480 q 241 383 334 383 m 761 132 l 761 40 q 784 28 761 30 q 808 27 791 27 q 854 27 826 27 l 854 -14 l 566 -14 l 566 25 q 659 33 639 25 q 664 46 664 35 q 664 62 664 40 q 663 132 664 83 l 422 132 l 422 182 q 541 352 426 203 q 613 442 577 396 q 686 533 650 488 l 760 533 l 760 202 l 872 202 l 872 132 l 761 132 m 491 201 l 664 201 l 664 419 l 491 201 "},"@":{"x_min":50.765625,"x_max":1015,"ha":1021,"o":"m 1015 535 q 959 287 1015 394 q 776 158 893 158 q 671 181 729 158 q 622 227 635 205 q 609 287 615 240 l 410 138 l 390 155 l 400 166 q 335 249 360 216 q 303 297 310 282 q 275 452 275 352 q 297 525 285 493 q 324 582 308 558 q 400 665 350 622 q 456 711 428 689 q 513 755 485 733 q 557 751 542 755 q 742 659 643 695 q 745 651 745 651 q 726 636 745 647 q 704 593 704 622 l 704 309 l 704 308 l 704 307 q 713 275 704 289 q 738 253 723 262 q 769 240 752 244 q 802 239 787 236 q 986 512 965 239 q 891 690 994 607 q 671 801 803 758 q 481 839 553 840 q 198 718 314 839 q 87 463 87 602 q 99 386 87 420 q 325 97 153 209 q 639 0 482 -4 q 775 52 709 2 q 838 104 807 79 q 899 155 869 129 q 916 131 916 140 q 878 88 916 118 q 812 35 839 56 q 770 0 785 13 q 656 -66 689 -52 q 531 -93 593 -95 q 135 127 262 -76 q 51 402 55 258 q 241 788 44 642 q 605 911 405 911 q 891 809 773 911 q 1015 535 1015 701 m 610 322 l 610 613 l 469 686 q 357 455 357 607 q 465 248 370 334 q 491 244 480 240 q 493 245 491 245 l 610 322 "},"ö":{"x_min":57.671875,"x_max":510,"ha":523,"o":"m 373 665 q 390 644 387 657 l 372 632 q 510 347 510 437 q 431 139 510 244 q 279 -29 406 105 l 272 -31 l 261 -33 q 256 -32 260 -32 q 57 52 206 18 l 57 57 q 60 77 57 64 q 91 183 86 108 q 92 298 92 190 q 79 543 92 407 l 373 665 m 181 551 l 181 120 q 216 102 199 111 q 251 84 233 94 q 321 59 303 59 q 341 63 326 59 q 355 77 347 68 q 372 102 362 87 q 428 254 428 193 q 409 343 428 272 l 407 344 q 267 583 407 344 l 181 551 m 397 946 q 431 905 431 934 q 314 746 431 844 l 286 746 l 336 920 q 386 947 344 947 q 397 944 386 947 l 397 946 m 197 950 q 201 950 200 950 q 204 951 202 951 l 206 951 l 219 951 q 245 935 234 951 q 256 905 256 920 q 252 888 256 898 q 248 874 248 879 l 162 749 l 134 749 l 151 894 q 168 927 152 909 q 197 948 183 945 l 197 950 "},"i":{"x_min":36.59375,"x_max":301.4375,"ha":333,"o":"m 165 665 q 179 644 177 655 q 171 620 179 634 q 250 563 200 583 q 250 538 258 555 q 222 519 226 523 q 207 488 209 508 l 207 128 q 240 77 207 91 l 282 110 l 301 91 l 180 -38 q 168 -35 171 -38 q 113 37 150 15 l 113 502 q 100 523 110 516 q 53 499 72 523 l 36 519 l 165 665 m 237 965 q 269 910 269 949 q 158 762 231 827 l 137 763 q 175 941 143 859 q 223 968 195 968 q 237 965 229 968 "},"┴":{"x_min":-15.265625,"x_max":998.640625,"ha":975,"o":"m 998 363 l -15 363 l -15 481 l 432 481 l 432 1264 l 550 1264 l 550 481 l 998 481 l 998 363 "},"╧":{"x_min":-15.28125,"x_max":998.6875,"ha":1001,"o":"m 998 492 l -15 492 l -15 610 l 432 610 l 432 1264 l 550 1264 l 550 610 l 998 610 l 998 492 m 998 233 l -15 233 l -15 351 l 998 351 l 998 233 "},"╠":{"x_min":304,"x_max":999.46875,"ha":1011,"o":"m 304 -421 l 304 1264 l 422 1264 l 422 -421 l 304 -421 m 561 492 l 561 1264 l 680 1264 l 680 610 l 999 610 l 999 492 l 561 492 m 561 -421 l 561 351 l 999 351 l 999 233 l 680 233 l 680 -421 l 561 -421 "},"═":{"x_min":-15.28125,"x_max":998.6875,"ha":1006,"o":"m 998 492 l -15 492 l -15 610 l 998 610 l 998 492 m 998 233 l -15 233 l -15 351 l 998 351 l 998 233 "},"þ":{"x_min":-3,"x_max":848.6875,"ha":883,"o":"m 713 730 q 690 683 690 711 q 697 641 690 673 l 797 536 q 834 482 820 512 q 848 420 848 451 q 763 181 848 318 l 579 -30 q 511 -12 551 -23 q 419 13 472 -1 l 407 17 q 365 -261 398 -136 l 334 -263 q 300 59 300 -137 q 226 81 273 81 q 195 77 208 81 q 152 37 173 62 l 131 45 l 224 219 q 231 217 227 217 q 241 213 236 216 q 303 174 261 198 l 303 698 q 261 826 303 768 q 147 888 215 888 q 99 876 122 888 q 61 847 77 865 q 35 805 45 829 q 26 754 26 781 l 26 739 q 70 622 26 679 q 167 560 116 564 l 164 535 q 44 599 94 542 q -3 728 -3 654 q -2 746 -3 737 q 0 762 -1 754 q 54 908 0 835 q 183 988 109 988 q 339 926 286 988 q 397 789 376 880 q 398 769 398 786 q 399 728 398 753 q 401 676 400 704 q 402 625 401 648 q 403 584 403 601 q 404 564 404 566 l 698 750 l 713 730 m 569 629 q 524 592 546 607 q 482 564 503 577 q 446 538 462 551 q 417 507 429 525 l 417 134 l 604 65 l 622 65 q 722 194 682 108 q 733 234 732 215 q 735 282 735 254 l 735 329 q 730 348 732 334 q 723 379 728 361 q 712 418 719 397 q 690 462 704 440 q 651 516 669 494 q 615 555 632 537 q 587 589 598 572 q 569 629 575 605 "},"]":{"x_min":1.09375,"x_max":258,"ha":339,"o":"m 1 933 l 258 933 l 258 -170 l 1 -170 l 1 -135 l 190 -135 l 190 897 l 1 897 l 1 933 "},"m":{"x_min":29.28125,"x_max":874.9375,"ha":906,"o":"m 154 670 q 169 644 168 654 q 172 611 165 638 q 192 590 183 600 q 206 571 200 581 l 205 487 l 381 664 l 383 663 l 394 663 q 408 640 402 660 q 436 615 412 631 q 476 579 463 600 q 500 486 497 547 l 683 661 q 708 655 703 661 q 826 577 757 592 q 826 556 826 558 q 824 552 825 555 q 799 524 818 549 q 791 352 793 452 q 793 123 790 252 q 815 83 795 83 q 858 111 834 83 l 874 95 l 766 -36 q 761 -33 763 -34 q 755 -29 758 -31 q 744 -1 754 -15 q 697 65 697 19 l 697 500 q 623 554 660 554 l 622 554 l 503 444 l 503 118 q 540 61 503 86 l 540 34 q 468 -31 468 8 l 443 -31 q 365 38 436 17 l 365 62 q 405 127 405 87 l 404 470 q 373 526 401 503 q 319 548 347 548 q 207 439 254 494 q 207 267 207 345 q 208 127 207 189 q 249 66 208 84 q 249 38 251 39 q 222 23 234 30 q 203 12 210 17 q 174 -31 181 -6 q 144 -29 155 -42 q 69 37 129 14 l 69 58 l 69 61 q 114 119 108 73 l 114 492 q 84 543 107 521 l 48 511 l 29 532 l 154 670 "},"8":{"x_min":62,"x_max":658,"ha":691,"o":"m 366 928 q 535 877 461 928 q 620 732 618 821 q 564 593 621 647 q 432 515 533 566 q 582 395 521 465 q 658 223 658 309 q 644 152 658 186 q 357 -18 578 -18 q 168 30 246 -18 q 64 190 81 87 q 62 207 63 198 q 62 223 62 215 q 263 472 62 358 q 148 569 195 511 q 94 705 96 636 q 181 869 91 804 q 366 928 262 928 m 143 197 q 213 54 159 105 q 361 -1 270 -1 l 366 -1 q 497 43 440 -1 q 557 165 557 90 q 466 346 557 264 q 290 454 405 399 q 186 371 216 414 q 143 197 143 310 m 200 700 q 398 529 242 593 q 502 602 462 551 q 545 714 545 654 q 545 726 545 720 q 544 739 545 732 q 399 891 520 866 q 369 896 384 896 q 246 841 300 896 q 194 733 194 789 q 200 700 194 716 "},"ž":{"x_min":0,"x_max":0,"ha":307},"R":{"x_min":21.796875,"x_max":1000.03125,"ha":1013,"o":"m 779 992 l 794 972 q 784 935 779 950 q 852 847 794 912 q 934 775 912 780 q 965 783 956 783 q 981 759 979 775 q 769 598 865 691 q 833 392 811 544 q 879 143 863 193 q 926 91 894 91 q 984 125 951 91 l 1000 107 l 891 -31 l 865 -31 q 745 202 786 53 q 704 467 722 296 q 654 527 698 527 l 550 466 q 269 -33 550 -33 q 130 -14 159 -14 q 64 -21 99 -14 q 45 -10 56 -21 q 21 119 53 74 l 37 140 q 85 129 59 129 q 163 152 128 129 q 177 133 175 142 q 163 72 163 69 q 167 51 163 61 q 246 -2 188 -2 q 359 42 306 -2 q 451 373 451 118 q 449 433 451 401 q 445 500 448 465 q 426 630 439 571 q 392 738 414 690 q 214 879 329 879 q 92 827 134 879 q 58 698 53 780 q 238 452 70 512 l 226 431 q 26 667 55 477 q 22 723 22 694 q 72 895 22 824 q 229 985 128 975 q 242 986 235 986 q 256 986 249 986 q 494 805 405 986 l 779 992 m 678 868 q 507 772 583 828 q 553 511 551 640 q 830 696 705 583 l 678 868 "},"╞":{"x_min":433,"x_max":999.640625,"ha":999,"o":"m 433 -421 l 433 1264 l 551 1264 l 551 610 l 999 610 l 999 492 l 551 492 l 551 351 l 999 351 l 999 233 l 551 233 l 551 -421 l 433 -421 "},"á":{"x_min":28,"x_max":596,"ha":607,"o":"m 161 -31 q 154 -27 159 -29 q 147 -21 148 -25 l 147 1 q 28 194 28 34 l 28 453 l 36 500 l 211 663 l 232 663 l 306 603 q 320 603 316 601 l 322 604 l 368 649 l 368 836 q 359 856 365 844 q 345 886 354 869 l 359 901 q 406 830 394 876 q 474 926 417 895 q 590 955 522 955 l 590 957 l 590 930 q 505 897 540 926 q 465 818 467 866 l 462 745 q 495 840 481 815 q 533 875 511 865 q 564 888 548 881 q 596 901 580 894 l 584 746 q 570 747 579 747 q 483 695 523 747 l 582 695 l 582 661 l 465 661 l 465 114 q 469 98 465 108 q 494 86 483 86 q 516 97 505 86 q 528 111 524 105 l 545 94 q 449 -22 488 37 q 438 -25 441 -25 q 428 -24 435 -26 q 338 44 394 44 q 251 17 302 44 q 205 -7 227 5 q 161 -31 183 -19 m 368 606 l 267 520 l 254 520 l 167 587 l 128 549 q 124 515 126 526 q 122 502 122 504 l 123 195 q 180 108 123 149 q 293 66 236 66 q 368 148 368 66 l 368 606 "},"×":{"x_min":54.171875,"x_max":450.03125,"ha":638,"o":"m 93 806 l 251 646 l 411 806 l 450 767 l 290 607 l 450 448 l 411 410 l 251 568 l 93 410 l 54 448 l 212 607 l 54 767 l 93 806 "},"o":{"x_min":57.828125,"x_max":512,"ha":538,"o":"m 374 665 q 391 644 388 656 l 373 631 q 508 379 494 462 q 512 337 512 358 q 280 -29 512 165 q 256 -32 277 -32 q 57 52 206 17 l 57 55 q 60 77 57 66 q 87 137 82 104 q 89 210 89 161 q 88 335 89 259 q 80 542 85 480 l 374 665 m 267 583 l 181 551 l 181 120 l 310 61 q 342 63 322 55 q 424 256 424 122 q 408 344 424 320 l 267 583 "},"5":{"x_min":39.34375,"x_max":620.875,"ha":637,"o":"m 140 928 l 157 928 q 339 889 235 889 q 439 898 378 889 q 588 925 500 907 l 594 925 l 600 925 q 590 909 594 918 q 578 892 585 901 q 301 783 489 783 q 178 795 240 783 l 164 798 l 135 522 q 333 585 218 585 q 352 584 343 585 q 372 582 361 583 q 557 480 485 572 q 620 276 628 390 q 531 66 611 147 q 318 -18 446 -18 q 140 20 217 -18 q 39 161 39 68 q 103 231 39 231 q 165 167 165 231 l 165 164 q 156 83 146 114 q 293 4 182 4 q 453 66 393 4 q 513 229 513 128 q 471 401 513 322 q 342 514 422 490 q 315 518 328 516 q 289 521 303 521 q 108 440 201 521 l 90 455 q 140 926 140 684 l 140 928 "},"─":{"x_min":-15.28125,"x_max":998.6875,"ha":1050,"o":"m 998 363 l -15 363 l -15 481 l 998 481 l 998 363 "},"7":{"x_min":79.171875,"x_max":673.671875,"ha":632,"o":"m 155 932 l 188 932 l 202 918 l 673 918 l 673 890 q 526 673 590 779 q 418 464 462 568 q 393 5 281 151 l 254 -33 q 233 80 233 18 q 370 477 233 240 q 447 597 391 513 q 594 815 502 681 l 229 815 q 181 799 201 810 q 105 680 134 748 l 79 681 l 155 932 "},"K":{"x_min":5.84375,"x_max":908.78125,"ha":915,"o":"m 553 982 q 908 689 837 964 q 839 660 879 667 q 844 708 844 680 q 740 882 844 808 q 542 949 644 949 q 344 897 429 949 q 224 736 249 839 q 221 719 221 725 q 251 624 221 684 l 392 396 l 335 613 q 362 684 335 656 q 549 789 421 743 q 585 811 557 811 q 597 808 589 811 q 662 717 625 761 q 747 630 700 673 q 755 595 755 623 l 592 484 l 625 444 l 761 111 q 817 63 781 63 q 872 78 835 63 l 885 56 q 776 -31 814 11 q 771 -32 775 -32 q 657 73 715 -32 q 532 386 607 224 q 486 416 526 416 l 410 377 l 407 365 l 440 220 q 446 173 446 199 q 396 34 446 94 q 265 -32 343 -26 q 153 -16 221 -36 q 50 -22 87 -8 q 32 -9 36 -20 q 34 5 33 -3 q 35 20 35 13 q 5 116 35 74 q 19 135 7 123 q 57 131 43 133 q 78 130 72 130 q 146 152 107 130 l 165 133 q 149 81 149 105 q 178 21 149 45 q 251 -3 208 -3 q 353 109 353 -3 q 290 331 353 208 q 209 477 251 406 q 119 616 167 547 q 107 668 107 641 q 125 729 107 698 q 524 982 278 982 l 553 982 m 490 709 q 381 651 433 702 q 363 591 363 634 l 418 416 q 543 497 501 469 q 591 527 586 525 q 607 541 598 533 q 630 563 616 550 q 573 652 607 613 q 490 708 530 704 l 490 709 "},",":{"x_min":44.453125,"x_max":252.796875,"ha":283,"o":"m 200 165 q 201 164 200 164 l 202 164 l 204 164 l 205 164 q 244 141 227 164 q 251 123 248 136 q 252 120 251 122 q 252 116 252 118 l 252 101 q 252 97 252 100 q 251 94 251 95 l 73 -260 l 44 -260 l 129 115 q 175 161 143 149 q 195 164 188 164 l 198 164 l 200 164 l 200 165 "},"d":{"x_min":48.828125,"x_max":533,"ha":575,"o":"m 214 926 q 153 915 170 922 q 120 865 132 902 l 120 862 q 181 786 120 818 l 415 634 q 533 399 533 530 q 520 312 533 358 q 381 64 488 185 l 281 -31 l 258 -31 q 173 38 258 3 q 141 48 170 39 q 54 77 112 57 l 54 78 q 55 102 48 87 q 89 120 84 116 q 103 153 103 130 l 103 155 l 103 157 l 103 534 l 216 623 q 61 748 171 662 q 48 798 48 769 q 87 901 48 853 q 187 954 132 954 q 214 950 199 954 l 214 926 m 254 595 q 195 528 193 570 l 195 135 l 322 64 l 343 64 q 388 117 368 87 q 425 180 409 146 q 449 248 441 213 q 458 316 458 283 q 254 594 458 491 l 254 595 "},"¨":{"x_min":73.609375,"x_max":370.859375,"ha":424,"o":"m 337 960 q 363 941 354 954 q 366 936 363 941 l 369 930 q 370 925 369 928 q 370 919 370 922 l 370 914 q 369 908 370 910 q 347 865 366 890 q 330 841 340 855 q 305 810 320 828 q 281 785 294 797 q 254 761 268 772 l 226 760 l 276 934 q 301 957 288 951 q 311 960 306 960 l 329 960 q 337 958 334 960 l 337 960 m 137 964 q 143 963 138 963 q 147 964 144 964 l 163 964 q 167 963 165 964 q 170 963 169 963 q 193 936 187 953 q 195 928 195 933 l 195 915 q 194 909 195 912 q 193 903 193 905 q 187 889 193 898 l 102 764 l 73 764 l 91 908 q 94 916 91 908 q 100 928 97 922 q 109 943 104 934 q 137 962 120 957 l 137 964 "},"E":{"x_min":68,"x_max":852.78125,"ha":870,"o":"m 812 986 l 831 974 l 753 834 l 547 883 q 501 835 521 856 q 469 794 482 813 q 496 748 480 774 q 532 687 511 722 q 558 647 543 670 q 594 594 573 624 l 705 698 q 714 697 709 698 q 725 695 718 697 l 730 695 q 831 621 773 652 l 831 599 l 763 531 q 759 530 762 530 q 734 534 742 530 q 648 595 681 577 l 609 567 l 662 470 q 589 223 662 312 q 501 176 549 176 q 316 329 358 176 l 344 330 q 476 207 388 207 q 489 207 483 207 q 502 210 495 208 q 579 311 579 223 q 547 447 579 348 l 380 732 l 395 761 l 483 878 q 355 949 426 949 q 198 835 249 949 q 158 605 158 743 q 160 541 158 572 q 168 482 162 509 q 509 93 226 127 q 568 88 538 88 q 838 156 697 88 l 852 133 l 622 -28 l 480 -28 q 188 129 304 -28 q 72 452 91 262 q 68 543 68 495 q 126 835 68 719 q 358 981 202 981 q 507 897 436 981 l 585 988 q 767 949 644 976 l 812 986 "},"Y":{"x_min":4,"x_max":917,"ha":959,"o":"m 735 983 l 754 968 q 747 939 744 949 q 868 693 832 793 q 917 439 917 562 q 894 261 917 350 q 723 -71 854 90 q 417 -265 573 -259 q 298 -241 348 -267 q 233 -148 233 -209 q 292 -84 233 -84 q 339 -113 324 -84 q 337 -131 338 -123 q 337 -145 337 -138 q 428 -222 337 -222 q 695 -20 577 -222 q 810 310 797 148 q 812 344 811 328 q 813 376 813 361 q 765 621 813 504 q 644 858 737 685 q 571 785 632 858 q 521 724 522 728 q 535 600 535 668 q 491 380 535 479 q 354 219 444 272 l 496 104 q 532 92 510 92 q 603 117 562 92 l 621 93 l 418 -30 l 396 -9 l 415 17 q 326 92 379 55 q 277 123 302 107 q 229 155 252 140 l 155 154 l 152 180 q 397 312 318 204 q 449 504 449 385 q 440 607 449 554 q 264 868 405 817 q 212 877 239 877 q 92 818 143 877 q 42 688 42 761 q 92 536 42 599 q 232 460 144 470 l 226 436 q 58 524 118 443 q 4 706 4 596 q 83 893 4 810 q 268 978 163 978 q 423 911 350 978 q 511 764 490 846 q 598 858 546 803 q 725 988 651 912 l 735 983 "},"╢":{"x_min":-15.078125,"x_max":679,"ha":758,"o":"m 303 -421 l 304 363 l -15 363 l -15 481 l 303 481 l 303 1264 l 422 1264 l 422 -421 l 303 -421 m 561 -421 l 561 1264 l 679 1264 l 679 -421 l 561 -421 "},"\"":{"x_min":26.390625,"x_max":470.875,"ha":439,"o":"m 177 978 l 212 968 q 231 937 222 958 q 233 930 233 934 l 233 922 l 54 554 l 26 554 l 113 929 q 145 965 126 950 q 177 976 161 976 l 177 978 m 402 983 l 413 983 q 436 978 425 983 q 462 955 447 973 q 470 924 470 939 l 470 923 l 470 921 l 470 920 l 470 917 q 466 898 469 909 q 455 881 462 888 l 288 558 l 258 558 l 351 927 q 372 964 355 945 q 402 981 386 978 l 402 983 "},"‹":{"x_min":88.890625,"x_max":370.859375,"ha":421,"o":"m 347 1 l 88 314 l 347 626 l 370 626 l 208 314 l 370 1 l 347 1 "},"„":{"x_min":34.71875,"x_max":387.734375,"ha":450,"o":"m 297 175 q 379 106 365 175 q 381 -3 394 37 q 338 -78 372 -37 q 281 -138 304 -119 l 263 -122 q 315 -27 281 -92 q 297 37 348 37 q 229 106 229 37 q 297 175 229 175 m 102 175 q 185 106 170 175 q 187 -3 200 37 q 143 -78 177 -37 q 87 -138 109 -119 l 69 -122 q 120 -27 87 -92 q 102 37 154 37 q 34 106 34 37 q 102 175 34 175 "},"╘":{"x_min":433,"x_max":999.640625,"ha":1011,"o":"m 433 233 l 433 1264 l 551 1264 l 551 610 l 999 610 l 999 492 l 551 492 l 551 351 l 999 351 l 999 233 l 433 233 "},"Í":{"x_min":4.171875,"x_max":517.78125,"ha":601,"o":"m 404 409 q 420 491 411 429 q 428 617 430 552 q 406 731 426 682 q 336 777 386 780 q 293 717 288 773 q 321 593 297 661 q 373 468 345 525 q 404 409 401 412 m 434 352 q 488 -33 566 95 q 212 -180 411 -162 q 67 -141 131 -193 q 70 -32 2 -90 q 102 -39 106 0 q 103 -39 102 -39 q 104 -39 104 -39 q 141 -124 104 -93 q 276 -133 179 -155 q 437 37 445 -91 q 384 263 429 166 q 192 88 297 133 q 38 77 87 44 q 47 247 -2 106 q 113 420 98 359 q 31 383 127 480 q 4 420 12 408 q 190 510 140 525 q 168 331 240 495 q 168 331 168 331 q 169 331 169 331 q 125 183 134 227 q 136 133 116 138 q 239 166 175 120 q 361 315 304 212 q 216 699 190 586 q 326 816 243 812 q 463 761 429 820 q 496 620 498 701 q 471 461 494 540 q 434 352 448 383 "},"´":{"x_min":119.453125,"x_max":326.421875,"ha":304,"o":"m 280 974 q 291 971 283 974 q 302 968 294 971 q 323 943 316 956 q 326 934 326 937 l 326 919 q 325 912 326 915 q 313 894 323 909 l 150 738 l 119 738 l 208 904 q 227 932 215 918 q 255 961 240 946 q 280 972 266 971 l 280 974 "},"ì":{"x_min":42.203125,"x_max":623.171875,"ha":645,"o":"m 607 926 q 605 924 606 924 q 516 891 557 924 q 469 819 475 860 l 470 119 q 531 74 485 74 q 605 112 577 87 l 623 94 l 452 -37 q 434 -7 441 -35 l 434 -1 l 347 41 q 342 59 341 53 q 379 109 372 81 l 380 791 q 347 837 380 809 q 252 865 312 865 q 177 812 193 865 l 174 795 q 173 784 173 792 q 218 612 173 748 l 351 612 l 351 533 l 218 533 q 220 459 219 496 q 221 383 221 421 q 210 70 221 230 q 177 -260 200 -89 l 152 -260 q 111 412 111 108 q 111 472 111 442 q 112 533 111 502 l 44 533 q 46 558 39 538 q 59 568 53 563 q 72 578 65 573 q 103 621 98 599 l 143 812 q 302 954 186 954 q 402 901 384 938 q 417 821 420 866 q 485 926 448 902 q 607 951 516 944 l 607 926 "},"±":{"x_min":9.8125,"x_max":572.625,"ha":585,"o":"m 264 931 l 324 931 l 324 637 l 572 637 l 572 583 l 321 583 l 321 287 l 264 287 l 264 583 l 9 583 l 9 637 l 264 637 l 264 931 m 63 142 l 509 142 l 509 79 l 63 79 l 63 142 "},"Ú":{"x_min":-1.390625,"x_max":874.9375,"ha":906,"o":"m 154 670 q 169 644 168 654 q 172 611 165 638 q 192 590 183 600 q 206 571 200 581 l 205 487 l 381 664 l 383 663 l 394 663 q 408 640 402 660 q 436 615 412 631 q 476 579 463 600 q 500 486 497 547 l 683 661 q 708 655 703 661 q 826 577 757 592 q 826 556 826 558 q 824 552 825 555 q 799 524 818 549 q 791 352 793 452 q 793 123 790 252 q 815 83 795 83 q 858 111 834 83 l 874 95 l 766 -36 q 761 -33 763 -34 q 755 -29 758 -31 q 744 -1 754 -15 q 697 65 697 19 l 697 500 q 623 554 660 554 l 622 554 l 503 444 l 503 118 q 540 61 503 86 l 540 34 q 468 -31 468 8 l 443 -31 q 365 38 436 17 l 365 62 q 405 127 405 87 l 404 470 q 373 526 401 503 q 319 548 347 548 q 207 439 254 494 q 207 267 207 345 q 208 127 207 189 q 249 66 208 84 q 249 38 251 39 q 222 23 234 30 q 203 12 210 17 q 174 -31 181 -6 q 144 -29 155 -42 q 69 37 129 14 l 69 58 l 69 61 q 114 119 108 73 l 114 492 q 84 543 107 521 l 48 511 l 29 532 l 154 670 m -1 816 l 847 816 l 847 755 l -1 755 l -1 816 "},"|":{"x_min":357,"x_max":471,"ha":549,"o":"m 357 886 l 471 886 l 471 -15 l 357 -15 l 357 886 "},"§":{"x_min":138,"x_max":561,"ha":587,"o":"m 442 938 q 522 862 522 922 q 507 827 522 844 q 474 810 493 810 q 411 839 445 810 q 358 870 379 870 q 317 859 337 870 q 284 832 298 849 q 262 794 270 815 q 254 753 254 774 q 304 604 254 668 q 359 544 331 574 q 415 485 387 515 q 518 351 497 389 q 561 193 561 279 q 536 47 561 114 q 438 -102 502 -38 q 283 -175 366 -175 q 168 -100 168 -175 q 186 -61 168 -76 q 227 -46 204 -46 q 280 -71 251 -46 q 302 -90 291 -80 q 324 -111 313 -100 q 354 -116 337 -116 q 419 -75 387 -116 q 448 0 448 -36 q 418 99 448 65 l 206 337 q 157 429 174 370 q 138 530 138 484 q 164 666 138 591 q 434 938 255 938 q 437 936 436 936 l 442 937 l 442 938 m 196 672 q 178 580 178 616 q 252 388 178 472 q 341 289 290 348 q 458 152 391 230 q 480 106 469 130 q 505 55 491 81 q 519 140 519 97 q 446 329 519 231 q 375 411 410 369 q 304 493 340 452 q 200 670 219 590 l 196 672 "},"Ý":{"x_min":4,"x_max":918,"ha":956,"o":"m 734 983 l 754 968 l 747 939 q 846 747 808 833 q 902 594 884 661 q 918 444 918 536 q 901 290 918 378 q 858 144 884 190 l 809 51 q 776 3 798 32 q 723 -66 755 -26 q 411 -265 557 -265 q 296 -239 346 -265 q 232 -148 232 -209 q 292 -84 232 -84 q 339 -113 324 -84 q 336 -130 336 -123 q 335 -141 336 -136 q 334 -150 334 -146 q 367 -205 334 -187 q 432 -222 393 -222 q 602 -142 507 -222 q 673 -71 642 -108 q 725 4 703 -34 q 746 50 742 33 q 770 135 757 93 q 793 218 782 176 q 807 297 803 257 q 812 379 812 337 q 796 522 812 474 q 778 585 789 549 q 748 669 766 621 q 704 749 730 701 q 644 858 678 796 l 634 858 q 520 724 566 796 q 536 589 536 658 q 490 380 536 482 q 354 219 437 267 l 495 104 q 539 92 509 92 q 602 117 560 92 l 620 93 l 417 -30 l 395 -9 l 414 17 q 344 83 381 53 q 265 136 306 112 q 249 144 258 139 q 229 155 240 148 l 155 154 l 152 180 q 336 253 259 197 q 441 416 421 318 q 445 459 443 436 q 448 508 448 482 q 296 851 448 762 q 223 875 256 875 q 148 860 181 875 q 91 820 115 845 q 55 760 68 795 q 42 683 42 725 q 55 600 42 638 q 93 533 68 562 q 153 484 118 504 q 232 459 187 465 l 226 436 q 30 565 90 444 q 4 705 4 616 q 83 893 4 809 q 267 978 163 978 q 421 911 348 978 q 510 764 490 847 q 630 885 574 831 q 734 982 686 939 l 734 983 m 517 1302 q 561 1271 555 1302 q 563 1254 563 1265 q 551 1222 563 1232 l 387 1065 l 358 1065 l 445 1232 q 517 1300 480 1300 l 517 1302 "},"╪":{"x_min":-15.265625,"x_max":998.640625,"ha":999,"o":"m 432 233 l -15 233 l -15 351 l 432 351 l 432 492 l -15 492 l -15 610 l 432 610 l 432 1264 l 550 1264 l 550 610 l 998 610 l 998 492 l 550 492 l 550 351 l 998 351 l 998 233 l 550 233 l 550 -421 l 432 -421 l 432 233 "},"b":{"x_min":55,"x_max":513,"ha":534,"o":"m 310 954 l 314 927 q 179 803 212 919 l 179 534 l 383 669 l 399 648 l 382 631 l 493 441 q 513 341 513 385 q 458 180 513 267 q 374 74 420 117 q 314 21 343 48 q 254 -31 285 -4 l 253 -31 l 252 -31 l 250 -31 l 247 -31 q 191 2 217 -31 l 55 56 q 80 103 56 80 q 88 783 88 230 q 64 880 88 852 l 76 906 l 76 908 q 100 883 81 908 q 122 823 122 855 q 310 952 157 944 l 310 954 m 287 569 l 178 490 l 178 134 l 188 111 l 301 58 l 316 58 q 395 145 364 93 q 432 258 432 205 q 402 377 432 311 l 287 569 "},"q":{"x_min":40,"x_max":509.484375,"ha":558,"o":"m 306 661 q 506 554 384 592 q 509 544 509 548 q 485 505 509 516 l 435 -265 l 406 -265 q 392 -48 398 -146 q 383 132 385 50 l 166 -36 q 151 -20 151 -31 q 155 2 151 -5 q 40 270 40 147 q 109 469 40 366 q 284 661 163 548 l 306 661 m 235 575 q 126 334 126 447 q 242 77 126 220 l 266 76 q 382 170 316 104 l 382 493 l 235 575 "},"╬":{"x_min":-15.078125,"x_max":998.078125,"ha":1001,"o":"m 680 610 l 998 610 l 998 492 l 561 492 l 561 1264 l 680 1264 l 680 610 m 303 610 l 303 1264 l 422 1264 l 422 492 l -15 492 l -15 610 l 303 610 m 303 233 l -15 233 l -15 351 l 422 351 l 422 -421 l 303 -421 l 303 233 m 680 233 l 680 -421 l 561 -421 l 561 351 l 998 351 l 998 233 l 680 233 "},"Ö":{"x_min":23.609375,"x_max":998.6875,"ha":1036,"o":"m 366 1009 q 393 999 387 1005 q 406 976 400 985 q 420 960 413 967 q 490 931 452 937 q 588 915 543 921 q 656 905 616 912 q 748 887 695 898 q 850 830 800 869 q 920 756 888 802 q 945 717 940 730 q 979 616 963 680 q 989 566 984 592 q 997 512 994 540 l 997 505 q 998 499 997 502 l 998 487 q 984 387 998 441 q 919 229 962 296 q 875 170 900 198 q 820 118 851 143 q 608 0 732 46 q 552 -19 575 -14 q 525 -25 540 -22 q 495 -31 511 -28 l 472 -31 q 460 -29 468 -31 q 445 -28 452 -28 q 290 33 370 0 q 126 110 211 67 q 40 73 79 103 l 23 92 l 190 213 q 473 76 350 156 q 514 59 493 66 q 558 49 536 52 q 572 48 565 48 l 598 48 q 611 49 607 48 q 672 63 638 49 q 762 116 719 81 q 784 135 773 124 q 809 160 795 146 q 836 190 825 177 q 855 216 847 203 q 872 243 863 228 q 888 277 880 258 q 926 405 918 339 q 927 423 926 413 q 929 439 929 433 l 929 452 q 922 527 929 488 q 823 708 902 633 q 791 735 807 723 q 761 755 776 748 l 630 798 l 422 824 q 370 845 391 828 q 325 899 338 867 q 259 859 290 881 q 201 809 229 837 q 181 787 188 798 q 162 741 166 762 q 161 721 161 734 l 161 713 l 161 710 q 181 638 162 674 l 262 531 q 343 426 265 527 q 352 385 352 405 l 352 384 l 352 383 l 352 380 q 287 288 352 337 q 170 262 243 262 q 152 263 169 262 q 102 267 134 264 l 94 296 q 120 292 104 292 q 133 291 125 291 l 145 291 q 216 299 180 291 q 238 327 234 313 q 243 349 243 333 l 243 355 q 241 360 243 359 q 236 378 240 369 q 226 395 233 388 q 151 481 186 437 q 86 573 116 526 q 65 645 66 602 l 65 648 l 65 656 q 120 783 65 726 q 261 892 184 849 q 299 917 280 903 q 337 949 318 931 q 366 1008 359 976 l 366 1009 m 626 1290 q 652 1271 643 1284 l 658 1260 q 659 1255 658 1259 q 659 1249 659 1251 l 659 1244 q 658 1238 659 1240 q 636 1197 657 1217 q 597 1144 620 1170 q 543 1091 575 1118 l 515 1090 l 565 1265 q 590 1288 577 1282 q 611 1292 600 1292 l 615 1292 q 620 1290 618 1292 q 626 1288 623 1288 l 626 1290 m 426 1295 q 431 1295 427 1295 q 436 1296 434 1296 l 448 1296 q 454 1294 451 1296 q 459 1293 456 1293 q 481 1266 476 1283 q 484 1258 484 1261 l 484 1249 q 481 1233 484 1244 q 479 1226 481 1229 q 476 1219 479 1222 l 391 1094 l 362 1094 l 380 1238 q 398 1273 386 1261 q 426 1293 409 1290 l 426 1295 "},"z":{"x_min":24,"x_max":335,"ha":378,"o":"m 179 688 q 198 671 197 681 q 200 647 200 668 q 304 523 304 615 q 265 404 304 468 q 180 305 230 345 l 250 236 q 285 248 265 241 q 328 265 304 255 l 335 238 q 272 209 311 227 q 335 -18 335 97 q 329 -80 335 -54 q 175 -263 293 -246 q 155 -264 168 -264 q 51 -193 86 -264 q 24 -58 24 -134 q 60 69 24 12 q 96 116 73 91 q 150 169 118 141 l 69 241 l 67 259 q 211 433 200 326 q 196 503 215 468 q 139 543 173 537 q 58 504 103 549 l 42 517 l 179 688 m 172 141 q 57 -56 57 70 q 77 -173 57 -126 q 164 -237 104 -237 q 179 -236 175 -237 q 260 -80 260 -226 q 172 141 260 38 "},"╡":{"x_min":-15.265625,"x_max":550,"ha":629,"o":"m 432 233 l -15 233 l -15 351 l 433 351 l 432 492 l -15 492 l -15 610 l 432 610 l 432 1264 l 550 1264 l 550 -421 l 432 -421 l 432 233 "},"╦":{"x_min":-15.28125,"x_max":998.6875,"ha":1001,"o":"m 998 492 l -15 492 l -15 610 l 998 610 l 998 492 m 303 233 l -15 233 l -15 351 l 422 351 l 422 -421 l 303 -421 l 303 233 m 561 -421 l 561 351 l 998 351 l 998 233 l 679 233 l 679 -421 l 561 -421 "},"╖":{"x_min":-15.078125,"x_max":679,"ha":732,"o":"m 303 -421 l 304 363 l -15 363 l -15 481 l 679 481 l 679 -421 l 561 -421 l 561 363 l 422 363 l 422 -421 l 303 -421 "},"æ":{"x_min":41.09375,"x_max":746.859375,"ha":765,"o":"m 288 661 l 303 661 l 470 563 l 585 658 l 612 658 l 746 435 q 492 226 601 335 q 477 208 484 220 q 476 202 476 205 l 476 201 l 476 194 q 480 172 476 186 q 506 126 488 144 q 528 107 514 118 q 570 88 542 97 q 588 84 581 86 q 598 83 591 83 l 610 83 q 614 84 613 83 l 623 84 q 677 106 657 91 q 716 144 698 118 l 735 130 q 641 43 688 84 q 546 -36 594 1 q 530 -20 537 -34 q 531 -15 530 -17 q 532 -9 532 -12 q 463 19 484 5 q 409 73 431 40 q 382 129 391 97 l 178 -36 l 163 -27 l 167 -9 l 81 108 q 42 258 50 179 q 41 272 41 262 l 41 284 q 43 304 41 291 q 48 338 45 318 q 113 497 64 431 q 129 517 123 508 q 143 533 136 526 l 288 661 m 243 577 q 185 520 207 551 q 164 484 175 506 q 146 444 152 462 q 131 347 131 394 l 131 336 q 132 318 131 330 q 132 301 132 306 q 140 260 136 277 q 146 231 143 243 q 198 129 160 179 l 218 104 q 238 80 224 97 q 254 75 245 75 l 256 75 l 257 75 l 259 75 l 260 75 l 263 76 l 380 162 l 381 501 l 243 577 m 541 572 q 510 562 523 570 q 485 522 490 543 q 476 458 480 491 q 471 388 473 425 q 469 359 469 376 q 469 322 469 343 q 469 278 469 300 q 472 237 470 256 l 624 369 l 641 390 l 541 572 "},"É":{"x_min":59.734375,"x_max":1395.9375,"ha":1449,"o":"m 77 -1 q 65 0 72 -1 q 59 10 59 1 q 61 24 59 17 q 65 35 62 31 q 98 95 75 50 q 155 203 122 141 q 227 341 188 266 q 306 493 266 417 q 382 642 345 570 q 448 771 419 714 q 495 864 477 828 q 515 902 513 899 l 256 902 q 219 881 238 902 q 195 846 212 873 q 160 789 179 820 q 125 727 141 757 q 102 682 109 698 q 94 681 100 675 l 81 689 q 80 700 79 692 l 140 941 q 151 956 143 956 q 170 953 156 956 q 218 948 187 950 q 286 945 250 946 q 361 945 323 945 q 429 945 400 945 q 479 946 454 945 q 531 949 505 948 q 632 953 581 953 q 644 943 643 953 q 638 921 645 934 q 615 877 636 916 q 563 778 594 838 q 492 643 531 718 q 411 489 452 567 q 331 334 370 410 q 260 198 291 259 q 208 96 229 136 q 184 48 187 56 l 519 48 q 552 88 531 59 q 594 149 573 117 q 631 209 615 181 q 652 245 648 236 q 661 248 657 250 l 673 238 q 676 225 677 234 q 661 180 672 213 q 640 111 651 148 q 620 41 629 74 q 608 -6 611 8 q 595 -21 605 -21 q 587 -19 593 -21 q 572 -15 581 -18 q 516 -8 552 -10 q 438 -4 480 -6 q 354 -1 397 -2 q 277 -1 311 -1 l 77 -1 m 861 500 q 867 447 861 468 q 882 416 873 427 q 901 402 891 405 q 919 398 911 398 q 959 402 938 398 q 991 413 980 405 q 1005 411 998 418 l 1011 400 q 1008 387 1013 395 q 993 375 1004 383 q 967 360 983 368 q 931 347 951 352 q 886 341 911 341 q 846 350 865 341 q 812 374 827 359 q 788 406 797 388 q 779 440 779 423 q 779 484 779 458 q 780 534 780 509 q 781 579 780 559 q 782 605 782 598 l 782 630 q 782 655 782 638 q 782 693 782 672 q 783 737 783 715 q 783 777 783 759 l 716 777 q 700 791 700 777 q 704 802 700 798 q 719 812 709 807 q 748 836 729 818 q 787 877 768 855 q 823 922 807 900 q 845 959 840 944 q 861 970 850 970 q 872 952 872 970 l 866 838 l 1020 838 q 1027 827 1033 838 l 1016 787 q 1007 777 1016 777 l 865 777 q 861 616 861 698 l 861 500 m 1130 665 q 1128 701 1130 687 q 1122 725 1126 715 q 1110 741 1118 734 q 1091 754 1102 747 l 1070 766 q 1062 775 1062 768 l 1062 782 q 1070 791 1062 788 l 1177 852 q 1193 857 1187 857 q 1201 843 1201 857 l 1205 761 l 1211 761 q 1270 832 1234 801 q 1340 863 1305 863 q 1382 847 1368 863 q 1395 812 1395 832 q 1380 770 1395 786 q 1350 754 1365 754 q 1332 757 1340 754 q 1318 763 1325 761 q 1283 773 1302 773 q 1251 762 1269 773 q 1219 723 1233 751 q 1211 701 1213 713 q 1208 686 1208 688 l 1208 437 q 1214 400 1208 409 q 1238 390 1220 390 l 1288 390 q 1297 379 1297 390 l 1297 358 q 1291 347 1297 347 q 1253 349 1286 347 q 1176 351 1220 351 q 1094 349 1126 351 q 1058 347 1062 347 q 1051 358 1051 347 l 1051 379 q 1063 390 1051 390 l 1105 390 q 1129 412 1129 390 q 1130 475 1130 441 q 1130 554 1130 508 l 1130 665 m 734 297 l 1389 297 l 1389 212 l 734 212 l 734 297 "},"~":{"x_min":-1.390625,"x_max":384.75,"ha":431,"o":"m 116 924 l 293 851 l 294 850 l 297 850 l 300 850 q 327 857 311 850 q 342 875 334 864 q 356 900 350 886 l 384 890 q 300 781 354 839 q 273 763 290 763 l 262 763 q 257 763 259 763 q 245 768 255 764 q 225 776 237 770 q 194 788 212 781 q 140 812 166 799 q 91 836 115 825 q 86 837 90 837 l 77 837 q 71 836 75 837 q 65 834 68 834 l 25 787 l 25 786 l 22 786 l 20 786 l 19 786 q -1 794 4 786 q 75 905 19 837 q 83 911 77 908 q 95 921 88 915 q 108 924 104 924 l 111 924 l 112 924 q 115 922 113 922 l 116 922 l 116 924 "},"³":{"x_min":37,"x_max":375,"ha":664,"o":"m 198 458 q 74 492 117 458 q 37 559 37 519 q 82 605 37 605 q 131 552 131 605 l 131 541 l 130 534 q 198 497 123 497 q 286 598 291 497 q 251 664 283 637 q 180 691 219 691 q 162 688 173 691 q 113 684 137 684 l 113 724 q 167 737 142 729 q 212 755 192 744 q 260 819 266 784 q 184 879 252 879 q 78 817 115 879 l 45 840 q 201 942 91 942 q 301 911 260 942 q 342 819 347 875 q 259 732 338 771 q 375 607 375 703 q 319 498 375 541 q 198 458 266 458 "},"¡":{"x_min":79.171875,"x_max":270.859375,"ha":294,"o":"m 163 373 l 187 373 l 243 -190 q 245 -211 245 -198 q 177 -268 245 -268 q 104 -201 104 -268 q 104 -199 104 -202 q 105 -190 104 -197 l 163 373 m 163 707 l 190 707 q 215 651 194 673 q 269 625 237 625 l 269 622 l 270 619 l 270 609 q 268 600 270 609 q 190 518 202 570 l 163 519 q 81 595 144 573 q 79 616 79 604 q 80 623 79 619 q 133 652 122 643 q 148 672 140 659 q 163 705 156 686 l 163 707 "},"╩":{"x_min":-15.28125,"x_max":998.6875,"ha":1004,"o":"m 422 492 l -15 492 l -15 610 l 303 610 l 303 1264 l 422 1264 l 422 492 m 998 492 l 561 492 l 561 1264 l 679 1264 l 679 610 l 998 610 l 998 492 m 998 233 l -15 233 l -15 351 l 998 351 l 998 233 "},"[":{"x_min":88,"x_max":347.6875,"ha":324,"o":"m 88 933 l 347 933 l 347 901 l 156 898 l 156 -135 l 344 -135 l 344 -170 l 88 -170 l 88 933 "},"L":{"x_min":10.828125,"x_max":673.609375,"ha":699,"o":"m 661 776 q 649 594 670 694 q 630 576 644 580 q 594 582 618 582 q 529 565 555 582 q 497 514 497 545 q 502 487 497 500 q 569 453 512 453 q 626 465 602 453 l 641 442 q 568 420 606 420 q 459 505 483 420 q 451 564 451 536 q 480 645 451 616 q 504 662 494 659 q 531 661 502 661 q 624 784 633 661 q 541 913 618 864 q 387 955 472 955 q 231 905 294 955 q 168 778 168 855 q 188 691 168 734 q 259 572 215 635 l 343 455 q 369 372 369 416 q 327 266 369 314 q 270 221 299 240 q 213 187 241 201 l 427 90 q 511 68 473 68 q 583 94 551 68 q 611 121 594 104 q 651 164 627 137 l 673 151 q 474 -33 559 -33 q 458 -32 463 -33 q 304 24 373 -1 q 177 74 234 51 q 109 99 115 99 q 87 93 115 99 l 34 19 l 10 31 l 112 216 l 180 201 q 238 231 212 206 q 269 287 263 255 q 248 379 277 338 q 81 625 149 518 q 65 700 62 662 q 170 902 69 819 q 388 982 263 982 q 569 933 497 982 q 661 776 649 882 "}," ":{"x_min":0,"x_max":0,"ha":307},"%":{"x_min":114.890625,"x_max":1168.03125,"ha":1172,"o":"m 881 978 l 931 978 l 406 -48 l 353 -48 l 881 978 m 943 399 q 1104 346 1044 399 q 1168 169 1169 285 q 1101 14 1166 80 q 943 -51 1034 -55 q 721 169 726 -42 q 784 329 718 261 q 943 399 851 399 m 813 169 q 839 41 810 93 q 943 -22 874 -22 q 1047 44 1011 -22 q 1078 169 1075 96 q 1048 297 1079 241 q 943 364 1012 364 q 839 300 868 359 q 813 169 817 259 m 337 942 q 498 889 438 942 q 562 712 563 828 q 495 557 560 623 q 337 492 430 489 q 115 712 120 500 q 178 872 112 804 q 337 942 245 942 m 207 712 q 231 584 202 637 q 337 521 266 521 q 441 587 405 521 q 472 712 469 639 q 442 840 473 784 q 337 907 405 907 q 231 843 262 902 q 207 712 211 801 "},"P":{"x_min":-3,"x_max":849,"ha":884,"o":"m 690 983 l 705 962 q 682 914 682 942 q 689 873 682 905 l 823 544 q 849 420 849 481 q 764 181 849 317 l 579 -31 q 507 -11 550 -24 q 407 17 465 0 q 365 -261 398 -136 l 334 -263 q 300 59 300 -137 q 226 81 273 81 q 195 77 208 81 q 152 37 173 62 l 131 45 l 224 219 q 231 217 227 217 q 241 213 236 216 q 303 174 261 198 l 303 698 q 259 825 303 769 q 147 888 215 888 q 99 876 122 888 q 61 847 77 865 q 35 806 45 829 q 26 757 26 782 l 26 754 q 70 622 20 686 q 167 560 116 564 l 164 535 q 44 599 94 542 q -3 728 -3 654 q -2 746 -3 737 q 0 762 -1 754 q 54 908 0 835 q 183 988 109 988 q 339 926 286 988 q 404 758 383 874 l 548 904 q 623 949 587 930 q 690 981 658 967 l 690 983 m 561 862 q 417 701 468 774 l 417 135 l 604 65 l 622 65 q 722 194 682 108 q 745 290 743 239 l 745 389 q 715 458 740 400 q 646 624 690 517 q 594 755 615 696 q 561 861 572 814 l 561 862 "},"À":{"x_min":44.453125,"x_max":1058.421875,"ha":1108,"o":"m 379 151 q 450 97 393 123 q 556 70 504 70 q 630 120 623 70 l 630 612 l 531 520 q 513 518 525 518 q 498 520 502 518 l 412 586 l 373 548 q 356 331 356 456 q 379 151 356 183 m 695 -22 q 600 44 655 44 q 506 16 566 44 q 456 -8 481 4 q 405 -34 431 -20 q 391 -25 395 -30 l 391 -2 q 300 74 326 20 q 270 191 284 105 l 270 440 l 279 498 l 456 662 l 477 662 l 552 601 l 558 601 q 590 612 575 601 l 632 654 l 632 838 q 609 888 626 865 l 626 905 q 669 827 657 872 q 848 961 708 961 q 859 960 855 961 l 857 934 q 730 816 752 923 l 730 513 q 909 669 809 594 q 926 648 925 662 l 927 643 q 925 631 927 640 q 983 556 955 598 q 1058 319 1058 444 q 963 16 1058 186 q 897 -86 944 -17 q 776 -261 851 -155 l 754 -242 q 968 230 968 25 q 854 541 968 388 q 822 560 841 557 l 726 467 l 726 128 q 752 88 726 88 q 823 132 786 88 q 836 109 836 117 q 834 103 836 105 q 822 91 833 102 q 791 57 812 80 q 755 16 769 34 q 734 -13 741 -1 q 695 -22 725 -22 m 306 954 q 338 947 316 954 q 386 933 361 941 q 433 919 411 926 q 465 908 455 912 q 483 919 473 919 q 502 908 491 919 l 450 798 q 410 819 437 808 q 352 840 383 830 q 293 858 322 851 q 248 865 265 865 q 176 784 176 865 q 218 612 176 738 q 220 526 219 569 q 220 441 220 484 q 210 83 220 258 q 177 -260 200 -90 l 152 -260 q 111 412 111 108 q 111 472 111 442 q 112 533 111 502 l 44 537 l 44 547 q 47 562 44 559 q 102 622 94 578 l 143 812 q 294 954 188 954 l 306 954 "},"_":{"x_min":0,"x_max":845.90625,"ha":821,"o":"m 0 -40 l 845 -40 l 843 -104 l 0 -104 l 0 -40 "},"┬":{"x_min":-15.265625,"x_max":998.640625,"ha":961,"o":"m 432 363 l -15 363 l -15 481 l 998 481 l 998 363 l 550 363 l 550 -421 l 432 -421 l 432 363 "},"ñ":{"x_min":26.875,"x_max":582.109375,"ha":599,"o":"m 146 664 l 165 648 l 158 632 q 198 566 189 597 q 202 490 202 547 l 381 661 l 384 661 l 387 661 q 411 657 404 661 q 421 645 415 651 q 436 629 427 639 q 531 578 472 590 q 532 573 531 575 l 532 565 q 528 553 529 561 q 495 493 495 525 q 495 487 495 491 q 496 480 496 483 l 496 125 q 533 82 496 82 q 543 84 540 82 l 564 112 l 582 95 l 472 -36 q 456 -25 463 -34 q 404 38 450 16 l 404 497 q 339 552 366 552 l 336 554 l 328 554 l 205 447 l 205 108 q 220 77 205 97 q 246 54 236 59 q 248 45 248 51 q 245 36 248 44 q 202 15 220 26 q 168 -31 190 0 l 163 -32 q 146 -31 153 -32 q 97 20 129 2 q 75 33 82 28 q 65 42 68 38 q 63 46 62 45 q 64 51 64 48 l 64 53 l 94 80 q 113 140 113 115 l 113 476 q 78 543 113 521 q 37 515 64 522 q 26 530 31 519 l 146 664 m 232 906 q 419 830 411 830 q 472 880 447 830 l 499 871 q 383 743 424 743 q 206 818 361 743 l 186 818 l 180 815 q 160 792 171 804 q 139 767 150 779 l 135 767 q 110 775 130 767 q 144 821 123 793 q 190 886 164 848 q 218 904 203 901 q 223 905 221 904 q 229 906 226 906 l 232 906 "},"+":{"x_min":99.65625,"x_max":725.03125,"ha":718,"o":"m 383 783 l 450 783 l 450 438 l 725 438 l 725 374 l 447 374 l 447 24 l 383 24 l 383 374 l 99 374 l 99 438 l 383 438 l 383 783 "},"‚":{"x_min":34.71875,"x_max":193.28125,"ha":282,"o":"m 102 175 q 185 106 170 175 q 187 -3 200 37 q 143 -78 177 -37 q 87 -138 109 -119 l 69 -122 q 120 -27 87 -92 q 102 37 154 37 q 34 106 34 37 q 102 175 34 175 "},"½":{"x_min":94.828125,"x_max":950.125,"ha":967,"o":"m 400 174 l 342 186 l 647 819 l 708 809 l 400 174 m 897 0 l 490 0 q 602 113 512 44 q 709 197 673 167 q 749 229 745 226 q 822 347 822 292 q 680 440 822 440 q 546 338 581 440 l 502 338 q 577 476 512 426 q 730 522 637 522 q 851 498 799 522 q 928 376 928 460 q 812 208 928 298 q 722 143 767 176 q 632 79 677 110 l 839 79 q 909 147 868 79 l 950 140 l 897 0 m 151 421 l 151 462 q 174 457 167 457 q 243 465 209 457 l 250 470 l 249 853 l 132 777 l 94 805 l 285 940 l 355 940 l 355 486 q 367 462 355 468 q 450 457 391 457 l 450 421 l 151 421 "},"╛":{"x_min":-15.265625,"x_max":550,"ha":626,"o":"m 550 233 l -15 233 l -15 351 l 432 351 l 432 492 l -15 492 l -15 610 l 432 610 l 432 1264 l 550 1264 l 550 233 "},"Æ":{"x_min":26.46875,"x_max":1329.703125,"ha":1360,"o":"m 1289 986 l 1313 974 l 1239 840 l 1046 883 q 985 788 1003 831 q 1096 598 1022 710 l 1201 698 l 1218 698 l 1313 626 q 1226 531 1286 567 q 1150 595 1185 571 l 1113 571 q 1172 445 1163 510 l 1114 256 q 1064 196 1101 220 q 988 176 1028 176 q 893 225 931 176 q 853 328 860 267 l 876 330 q 907 248 878 286 q 979 205 938 205 q 1065 233 1032 205 q 1097 313 1097 261 q 1082 385 1097 346 q 1051 441 1076 396 q 982 567 1026 487 q 934 648 958 607 q 885 732 910 689 l 990 870 q 868 951 944 951 q 713 631 713 951 q 715 550 713 587 q 724 485 718 514 l 750 343 q 775 280 753 323 q 1060 87 864 87 q 1315 155 1174 87 l 1329 130 l 1101 -28 l 1082 -29 q 683 202 811 -37 q 268 -28 496 60 l 251 -15 q 266 17 262 -4 l 126 130 q 68 153 95 153 q 38 149 48 153 l 26 177 q 168 231 98 199 q 288 301 238 266 q 366 372 337 335 q 439 598 439 458 q 397 772 439 698 q 254 861 347 861 q 115 795 169 861 q 67 648 67 734 q 122 498 67 559 q 264 419 176 437 l 258 397 q 92 481 155 409 q 27 656 27 555 q 86 870 27 780 q 271 975 154 975 q 410 930 342 975 q 507 820 478 887 q 528 751 515 804 q 542 673 542 701 q 207 216 542 363 q 255 178 231 196 q 303 139 279 159 q 396 80 379 80 q 450 89 432 80 q 671 237 501 113 l 633 380 q 630 406 632 385 q 628 464 629 427 q 623 615 625 535 q 621 785 621 694 q 604 901 621 806 l 630 908 l 657 824 q 868 983 740 983 q 1014 896 953 983 l 1085 974 q 1169 961 1128 967 q 1251 952 1211 956 l 1289 986 "},"╜":{"x_min":-15.078125,"x_max":679,"ha":755,"o":"m 679 363 l -15 363 l -15 481 l 303 481 l 303 1264 l 422 1264 l 422 481 l 561 481 l 561 1264 l 679 1264 l 679 363 "},"'":{"x_min":50,"x_max":265.296875,"ha":247,"o":"m 183 978 q 209 929 188 947 q 227 919 215 926 q 259 901 240 912 q 265 879 265 894 q 262 870 265 879 q 180 769 237 865 q 87 569 122 669 q 86 563 86 566 l 50 564 q 109 815 109 769 q 77 871 109 864 q 75 893 75 879 l 75 894 q 76 898 75 896 q 155 978 161 936 l 183 978 "},"Š":{"x_min":65,"x_max":1015,"ha":1039,"o":"m 549 985 q 565 985 555 985 q 580 986 574 986 q 721 931 627 986 q 790 892 756 912 q 858 852 823 872 q 902 846 874 846 q 973 900 956 846 q 972 912 972 904 q 970 916 972 915 q 951 944 956 932 l 951 947 q 956 968 951 958 q 974 972 965 972 q 987 971 984 972 q 1003 934 1003 955 q 940 823 1003 854 l 799 757 l 781 759 l 553 890 q 474 905 526 905 q 230 787 327 905 q 137 527 137 677 q 232 259 137 376 q 470 92 317 155 q 498 84 473 91 q 571 65 523 77 l 717 65 q 774 78 737 65 q 915 170 858 108 q 979 320 979 238 q 973 405 979 383 q 908 516 958 467 q 793 568 852 568 q 744 556 759 568 q 619 499 738 558 q 455 431 495 438 l 322 549 q 296 595 305 566 q 285 647 285 626 q 338 767 285 714 q 461 820 393 820 q 557 786 508 820 q 618 707 603 754 l 597 698 q 456 785 543 785 q 358 748 397 785 q 320 654 320 712 q 329 613 320 633 q 355 578 339 593 q 392 555 371 564 q 433 546 412 546 q 478 554 461 546 l 720 669 l 725 668 l 727 669 q 877 604 788 669 q 1015 340 1015 501 q 953 146 1015 240 q 799 11 894 59 q 603 -29 719 -29 q 133 212 267 -29 q 99 283 117 237 q 88 327 94 305 q 77 372 83 350 q 65 461 65 423 q 295 889 65 737 q 403 942 340 919 q 549 983 466 965 l 549 985 m 376 1297 l 403 1297 l 538 1159 l 674 1297 l 703 1297 l 577 1069 l 502 1069 l 376 1297 "},"ª":{"x_min":39,"x_max":451.34375,"ha":475,"o":"m 391 269 q 413 295 404 277 l 451 267 l 356 159 q 333 172 340 163 q 329 181 330 177 q 325 191 327 185 q 309 204 318 197 q 291 217 301 210 q 278 262 282 238 l 154 163 l 111 176 l 124 192 l 70 265 q 47 330 56 284 q 39 399 39 372 q 94 555 39 487 q 127 588 97 559 q 213 672 156 617 l 226 672 q 258 667 248 672 q 312 635 279 653 q 391 593 345 616 q 397 576 397 583 q 390 557 397 573 q 372 547 377 552 q 368 533 368 539 l 368 302 q 391 269 368 272 m 40 -7 l 40 51 l 438 51 l 438 -7 l 40 -7 m 278 322 l 278 538 l 196 586 q 128 438 128 527 q 191 276 128 348 q 204 268 193 272 l 278 322 "},"╟":{"x_min":304,"x_max":999.46875,"ha":982,"o":"m 561 -421 l 561 1264 l 680 1264 l 680 481 l 999 481 l 999 363 l 680 363 l 680 -421 l 561 -421 m 304 -421 l 304 1264 l 422 1264 l 422 -421 l 304 -421 "},"ð":{"x_min":27.609375,"x_max":533,"ha":600,"o":"m 27 732 l 76 739 q 67 749 72 744 q 60 758 63 753 q 54 806 54 783 q 92 914 54 876 q 202 952 131 952 q 477 947 457 952 l 477 924 q 433 921 457 922 q 381 921 409 921 l 287 921 q 167 911 200 921 q 119 862 119 895 q 180 786 119 826 l 217 761 l 403 790 l 403 738 l 282 719 l 414 634 q 456 594 426 629 q 533 388 533 513 q 483 213 533 315 q 381 64 435 116 l 281 -31 l 257 -31 q 157 44 257 3 l 53 77 q 51 84 53 78 l 51 87 q 55 102 51 95 q 88 117 75 114 q 102 158 102 131 l 102 534 l 217 618 q 117 694 163 648 l 27 680 l 27 732 m 253 595 q 194 529 194 570 l 194 136 l 321 65 l 342 65 q 388 117 367 87 q 425 180 409 147 q 449 248 441 213 q 458 316 458 283 q 253 594 458 491 l 253 595 "},"T":{"x_min":16.671875,"x_max":838.609375,"ha":804,"o":"m 733 798 q 766 785 746 785 q 821 810 792 785 l 838 795 l 710 687 l 696 687 l 519 781 l 517 780 l 516 780 q 492 774 499 780 q 389 635 389 691 q 419 560 389 583 l 562 444 q 584 377 584 409 q 523 280 584 330 q 352 229 459 229 q 324 229 338 229 q 295 232 310 230 l 520 104 q 610 79 563 79 q 780 149 684 79 l 796 130 q 749 91 773 110 q 698 52 724 72 q 662 24 680 38 q 626 -2 644 11 q 546 -32 581 -32 q 498 -20 523 -32 q 116 190 319 63 q 71 182 84 190 q 38 144 58 173 l 16 157 l 99 269 q 155 305 127 305 q 245 271 189 305 q 324 262 294 265 q 366 260 355 260 q 483 301 449 260 q 480 364 502 337 q 308 512 345 463 q 289 602 280 551 q 483 798 314 690 q 424 832 453 816 q 364 867 395 849 q 238 909 287 909 q 137 873 180 909 q 85 783 94 838 q 83 767 84 775 q 83 752 83 758 q 142 608 83 693 l 127 595 q 50 757 50 672 q 54 792 50 775 q 173 941 72 885 q 363 990 259 990 q 447 946 356 994 q 733 798 538 898 "},"š":{"x_min":44.25,"x_max":507,"ha":542,"o":"m 394 818 q 507 683 507 790 q 486 604 507 635 l 366 433 q 462 353 423 403 q 507 239 507 296 q 427 84 507 148 q 272 -6 398 62 q 249 -29 262 -23 q 208 -15 222 -29 l 187 5 l 49 87 l 44 105 q 155 252 155 187 l 155 263 q 111 339 134 302 q 62 412 88 376 q 49 448 53 424 q 66 492 58 484 q 153 580 76 506 q 237 656 233 655 q 255 660 245 660 q 278 653 262 660 q 409 597 331 597 q 462 624 442 597 q 479 684 479 649 q 451 755 479 725 q 385 785 424 785 q 324 718 328 785 l 269 748 q 369 820 303 820 q 394 817 380 820 l 394 818 m 295 337 q 137 146 284 333 l 278 57 q 312 46 298 46 q 396 89 359 46 q 433 178 433 132 q 426 218 433 201 q 370 289 413 250 q 295 336 326 329 l 295 337 m 193 569 q 131 512 151 544 l 131 508 q 175 415 131 485 q 202 372 188 393 q 231 329 216 351 l 240 326 l 380 496 q 285 528 331 510 q 193 568 238 546 l 193 569 m 110 1131 l 139 1131 l 273 993 l 409 1131 l 438 1131 l 312 903 l 237 903 l 110 1131 "},"╙":{"x_min":304,"x_max":999.46875,"ha":992,"o":"m 999 363 l 304 363 l 304 1264 l 422 1264 l 422 481 l 561 481 l 561 1264 l 680 1264 l 680 481 l 999 481 l 999 363 "},"Þ":{"x_min":29.78125,"x_max":534,"ha":555,"o":"m 410 648 l 421 628 l 408 612 l 521 399 q 534 366 534 376 q 496 225 534 298 q 463 170 485 203 q 406 89 440 137 q 304 -31 333 -7 q 290 -33 301 -33 l 286 -33 l 280 -29 l 276 -20 l 191 16 l 168 -260 l 140 -258 l 114 24 q 102 39 114 31 q 89 41 99 41 q 46 14 60 41 l 29 30 l 107 142 l 103 791 q 73 884 98 817 l 86 899 q 141 821 128 862 q 209 926 172 902 q 332 951 239 944 l 332 926 q 328 924 331 924 q 239 891 282 924 q 193 819 197 860 q 198 578 195 662 q 203 480 201 494 l 410 648 m 313 522 l 204 436 l 199 120 l 313 65 l 340 65 q 375 111 358 88 q 411 158 393 134 q 453 269 453 220 q 405 400 453 319 q 375 445 395 415 q 323 520 355 476 l 313 522 "},"╨":{"x_min":-15.078125,"x_max":998.46875,"ha":990,"o":"m 998 363 l -15 363 l -15 481 l 303 481 l 303 1264 l 422 1264 l 422 481 l 561 481 l 561 1264 l 679 1264 l 679 481 l 998 481 l 998 363 "},"j":{"x_min":31.953125,"x_max":272.25,"ha":299,"o":"m 165 665 q 181 647 179 659 q 179 635 180 641 q 175 619 177 629 q 212 587 193 601 q 254 562 231 573 q 252 539 259 548 q 206 489 212 523 l 206 85 l 231 -35 l 202 -35 l 179 26 q 116 -155 122 -143 q 100 -191 113 -163 q 63 -264 87 -218 l 31 -264 q 84 -128 63 -204 q 112 38 105 -52 q 112 507 133 297 q 83 521 100 521 q 54 501 66 521 l 38 519 l 165 665 m 254 954 q 272 916 272 940 q 270 907 272 910 q 222 841 248 875 q 163 768 195 807 l 140 769 q 183 950 147 862 q 220 967 195 967 q 254 954 241 967 "},"┌":{"x_min":433,"x_max":999.640625,"ha":963,"o":"m 999 481 l 999 363 l 551 363 l 551 -421 l 433 -421 l 433 481 l 999 481 "},"1":{"x_min":124.4375,"x_max":574.734375,"ha":548,"o":"m 366 929 l 440 929 l 440 91 q 574 18 440 18 l 574 0 l 192 0 l 192 19 q 334 90 331 19 l 330 785 q 324 810 327 799 q 318 829 321 820 l 145 679 l 124 698 l 366 929 "},"›":{"x_min":88.890625,"x_max":376.421875,"ha":393,"o":"m 113 1 l 88 1 l 251 313 l 88 626 l 113 626 l 376 313 l 113 1 "},"ä":{"x_min":51.25,"x_max":591.734375,"ha":599,"o":"m 290 658 l 305 658 q 334 653 322 658 q 520 548 426 587 q 522 539 523 541 q 519 528 522 536 q 490 508 502 521 q 482 476 482 489 l 482 473 l 482 472 l 482 147 l 482 144 l 482 143 q 491 104 482 132 q 515 80 500 89 q 536 76 532 76 l 537 76 l 538 76 l 541 76 q 573 104 566 93 l 591 90 l 479 -40 q 462 -23 468 -38 q 448 3 459 -3 q 427 19 437 12 q 409 33 416 26 q 394 75 399 53 q 386 123 388 98 l 191 -35 l 167 -27 l 177 -15 l 94 101 q 51 283 51 186 q 51 298 51 289 q 52 311 52 307 q 56 339 55 323 q 90 448 65 398 q 123 492 108 473 q 149 522 138 511 l 290 658 m 252 577 q 180 500 209 544 q 151 430 159 469 q 138 340 138 377 l 138 334 q 140 327 138 329 l 140 315 q 169 197 145 250 q 213 116 181 161 q 222 106 216 112 q 236 90 229 100 q 248 79 240 86 q 266 73 256 73 l 272 73 q 276 75 273 75 l 393 162 l 393 495 l 252 577 m 437 940 q 463 921 455 931 q 469 905 469 916 q 470 901 470 903 l 470 894 q 469 888 470 890 q 447 847 468 867 q 354 743 412 791 l 325 741 l 376 917 q 401 938 388 933 q 422 942 411 942 l 426 942 q 431 940 429 942 q 437 938 434 938 l 437 940 m 237 945 q 242 945 238 945 q 247 946 245 946 l 259 946 q 264 944 262 946 q 269 943 266 943 q 293 917 286 933 q 295 909 295 915 l 295 899 q 293 883 295 894 q 290 877 291 880 q 287 869 290 874 l 202 745 l 173 745 l 191 888 q 209 923 197 911 q 222 936 211 927 q 230 940 226 939 q 237 943 234 942 l 237 945 "},"<":{"x_min":37.5,"x_max":220.84375,"ha":285,"o":"m 219 579 l 219 516 l 81 333 l 220 111 l 220 46 l 37 315 l 37 347 l 219 579 "},"£":{"x_min":10.828125,"x_max":673.609375,"ha":760,"o":"m 41 493 l 169 493 q 127 556 149 523 q 81 625 105 589 q 65 700 62 662 q 168 906 69 819 q 386 988 265 988 q 568 937 494 988 q 661 776 648 882 q 649 594 670 694 q 630 576 644 580 q 594 582 618 582 q 529 565 555 582 q 497 514 497 545 q 502 487 497 500 q 569 453 512 453 q 626 465 602 453 l 641 442 q 568 420 606 420 q 459 505 483 420 q 451 564 451 536 q 480 645 451 616 q 504 662 494 659 q 531 661 502 661 q 624 784 633 661 q 541 916 618 866 q 387 962 472 962 q 231 909 297 962 q 168 778 168 857 q 188 691 168 734 q 236 612 204 660 q 316 493 268 563 l 426 493 l 426 460 l 340 460 l 343 455 q 355 433 351 441 l 429 433 l 429 400 l 366 400 q 368 386 368 393 q 369 372 369 379 q 327 266 369 314 q 270 221 299 240 q 213 187 241 201 l 427 90 q 511 68 473 68 q 583 94 551 68 q 611 121 594 104 q 651 164 627 137 l 673 151 q 474 -33 559 -33 q 458 -32 463 -33 q 298 27 370 0 q 168 77 226 54 q 106 99 110 101 q 87 93 99 97 l 34 19 l 10 31 l 112 216 l 180 201 q 238 231 212 206 q 269 287 263 255 q 248 379 277 338 l 233 400 l 44 400 l 44 433 l 211 433 l 193 460 l 41 460 l 41 493 "},"t":{"x_min":44.9375,"x_max":333.78125,"ha":375,"o":"m 333 536 l 206 536 l 206 108 q 253 76 221 76 q 307 107 286 76 l 328 90 l 192 -36 l 175 -27 l 176 -15 q 76 38 156 19 l 78 57 q 96 71 87 62 q 113 91 104 80 l 113 536 l 44 536 l 44 561 q 143 673 94 597 q 206 811 185 742 l 206 813 l 238 813 q 205 634 205 697 q 206 614 205 620 l 333 614 l 333 536 "},"ù":{"x_min":39.734375,"x_max":597.171875,"ha":636,"o":"m 597 540 l 468 540 l 468 112 q 481 95 474 101 q 518 80 501 80 q 554 94 536 80 q 570 110 563 102 l 591 94 l 455 -32 l 437 -23 q 438 -11 438 -22 q 339 42 420 23 q 340 52 339 46 q 341 60 341 58 q 357 75 349 66 q 376 95 366 84 l 376 540 l 308 540 l 308 564 q 398 682 362 592 l 444 832 q 289 862 382 862 q 178 812 192 862 q 176 798 177 805 q 175 785 175 792 q 219 612 175 737 q 220 483 220 560 q 220 302 220 406 q 178 -260 213 24 l 153 -260 q 125 69 135 -103 q 113 433 115 241 q 113 533 110 483 l 44 537 q 47 562 33 548 q 103 621 94 578 l 143 812 q 226 920 167 881 q 352 954 279 954 q 462 933 408 954 q 480 945 468 942 q 501 933 494 942 l 468 674 l 468 618 l 597 618 l 597 540 "},"W":{"x_min":42,"x_max":1380,"ha":1402,"o":"m 665 1001 q 821 873 791 995 q 1065 992 930 992 q 1261 904 1199 992 q 1319 694 1308 836 l 1339 688 l 1336 663 q 1174 563 1174 651 q 1198 493 1174 531 l 1335 358 q 1380 256 1380 313 q 1273 67 1380 155 q 1234 39 1257 53 q 1180 10 1212 25 q 1041 -31 1096 -31 q 1005 -24 1021 -31 q 906 26 960 -4 q 784 99 851 56 l 770 101 q 641 20 686 48 q 591 -10 597 -7 q 573 -18 584 -12 q 547 -31 562 -24 l 351 124 q 298 138 327 138 q 215 113 265 138 l 199 138 l 366 231 l 404 231 q 525 556 525 306 q 469 765 525 676 q 290 868 404 868 q 139 804 201 868 q 78 651 78 740 q 139 488 78 558 q 293 408 198 420 q 304 406 301 408 l 301 383 q 115 465 189 390 q 42 652 42 542 q 108 865 42 770 q 294 978 180 966 q 309 979 301 979 q 325 979 318 979 q 519 899 436 979 q 665 1001 552 994 m 831 752 q 948 484 831 681 q 967 405 967 447 q 930 286 967 351 q 860 173 922 266 q 975 106 918 137 q 1091 48 1032 76 q 1133 43 1109 43 q 1245 91 1190 43 q 1297 177 1297 138 q 1280 237 1297 201 q 1139 386 1213 322 q 1077 522 1077 454 q 1210 665 1077 629 q 1187 783 1196 740 q 1174 838 1178 826 q 1053 954 1136 938 l 1033 954 q 894 888 960 954 q 831 752 831 824 m 545 867 q 632 592 632 752 q 433 208 632 369 q 480 164 456 185 q 527 120 504 142 q 638 58 598 58 q 665 66 654 58 q 707 91 686 78 q 747 117 728 103 q 814 173 786 144 q 884 324 884 249 q 877 362 884 345 q 839 434 857 398 q 801 506 821 470 q 749 656 754 594 q 746 675 747 666 q 746 694 746 684 q 776 835 746 773 l 776 838 l 776 840 q 739 922 776 888 q 665 952 707 949 q 545 867 565 958 "},"╥":{"x_min":-15.078125,"x_max":998.46875,"ha":983,"o":"m 303 -421 l 304 363 l -15 363 l -15 481 l 998 481 l 998 363 l 679 363 l 679 -421 l 561 -421 l 561 351 l 422 351 l 422 -421 l 303 -421 "},"ï":{"x_min":20.828125,"x_max":318.28125,"ha":331,"o":"m 164 669 q 179 650 177 658 l 171 625 q 251 560 184 600 q 252 553 252 562 q 250 543 252 551 q 207 493 207 518 l 207 126 q 234 80 207 91 q 280 114 263 90 l 301 95 l 177 -36 q 172 -33 175 -34 q 166 -29 169 -31 q 113 41 160 14 l 113 507 q 93 530 113 522 l 85 530 q 54 504 68 530 l 36 523 l 164 669 m 283 950 q 307 936 301 944 q 318 912 307 934 l 318 907 q 271 823 318 879 q 235 784 253 801 q 201 751 218 767 l 172 750 l 222 924 q 272 951 243 951 q 283 948 272 951 l 283 950 m 84 954 q 101 956 88 956 q 143 909 143 956 q 138 892 143 902 q 134 878 134 883 l 48 753 l 20 753 l 38 898 q 54 932 40 915 q 84 952 69 949 l 84 954 "},">":{"x_min":51.390625,"x_max":236.125,"ha":261,"o":"m 52 582 l 236 305 l 236 277 l 51 46 l 51 105 l 187 291 l 52 509 l 52 582 "},"v":{"x_min":31.609375,"x_max":526,"ha":558,"o":"m 116 693 l 139 684 q 128 634 128 659 q 188 499 128 565 l 381 661 l 406 661 q 427 590 411 616 q 526 347 526 466 q 514 261 526 308 q 417 95 491 173 q 271 -30 384 58 q 246 -30 264 -33 q 223 -23 227 -27 q 155 14 192 -1 q 76 41 119 30 q 74 49 76 42 q 73 59 73 55 l 73 61 q 101 102 91 81 q 101 142 101 117 q 104 198 102 166 q 108 297 108 262 q 105 361 108 331 q 96 416 102 390 q 66 479 89 441 q 43 517 52 501 q 31 544 34 533 l 31 548 q 67 623 46 587 q 116 691 88 659 l 116 693 m 306 554 q 191 448 229 509 l 191 109 l 309 50 l 327 50 q 410 148 378 87 q 440 273 441 209 q 402 413 437 338 q 320 536 369 483 q 313 544 317 540 q 306 552 309 548 l 306 554 "},"Ò":{"x_min":-23,"x_max":700.390625,"ha":751,"o":"m 547 517 q 472 522 517 517 q 368 537 428 527 q 186 558 248 558 q 17 469 17 558 q 55 404 17 426 q 81 393 60 401 q 143 372 103 386 q 162 428 150 397 q 190 495 175 459 l 275 490 q 257 436 268 469 q 230 357 246 402 q 296 350 257 354 q 390 342 336 346 l 434 476 l 529 467 l 484 332 q 654 198 654 316 q 613 90 654 141 q 448 -7 534 -7 q 311 70 361 -7 q 173 0 215 0 q 97 29 126 0 q 71 95 71 55 q 93 213 71 143 q 111 273 102 244 q 130 333 121 302 q -23 465 -23 372 q 40 577 -23 534 q 253 629 114 629 q 422 609 332 629 q 449 601 429 608 q 505 583 469 594 q 579 561 568 561 q 623 593 617 561 q 648 625 630 625 q 681 613 662 625 q 700 591 700 601 q 640 537 700 559 q 547 517 589 517 m 585 216 q 472 299 585 288 q 395 78 395 95 q 435 44 395 44 q 542 114 492 44 q 585 216 585 171 m 381 307 q 303 310 344 307 q 218 321 262 314 q 149 70 149 105 q 180 41 149 41 q 222 54 199 41 q 381 307 310 98 "},"╒":{"x_min":433,"x_max":999.640625,"ha":1024,"o":"m 433 -421 l 433 610 l 999 610 l 999 492 l 551 492 l 551 351 l 999 351 l 999 233 l 551 233 l 551 -421 l 433 -421 "},"&":{"x_min":32,"x_max":849.578125,"ha":849,"o":"m 494 694 q 340 496 474 583 l 545 192 q 565 246 546 194 q 620 397 584 297 q 671 466 634 438 q 750 495 709 495 q 837 457 799 495 l 794 378 q 773 394 785 385 q 742 414 760 403 q 727 417 734 417 q 698 410 713 417 q 672 391 684 403 q 651 366 660 380 q 638 340 642 353 l 569 159 l 646 65 q 710 36 675 36 q 812 115 780 36 q 845 119 821 119 l 849 119 q 728 -21 816 15 q 670 -32 698 -32 q 512 68 580 -32 q 290 -29 414 -29 q 113 25 186 -29 q 32 189 32 86 q 95 354 32 276 q 240 465 151 425 q 153 669 158 571 l 153 673 l 153 678 q 194 797 153 743 q 316 860 241 860 q 440 828 388 860 q 497 724 497 787 q 496 709 497 717 q 494 694 495 701 m 256 433 q 140 241 140 355 q 144 198 140 220 q 326 20 166 59 q 346 18 340 18 q 386 23 365 18 q 427 38 408 29 q 463 61 446 48 q 491 86 480 73 l 256 433 m 316 818 q 229 715 229 802 q 233 677 229 695 q 323 517 252 599 q 428 722 428 606 q 341 821 428 821 q 329 820 334 821 q 316 818 323 819 "},"Ð":{"x_min":26.421875,"x_max":1039,"ha":1058,"o":"m 1039 369 q 918 71 1039 200 q 623 -58 794 -58 q 527 -33 569 -58 l 301 101 q 218 129 254 129 q 97 88 152 129 l 79 105 q 357 223 188 223 q 457 322 459 280 q 432 366 451 337 q 380 438 412 394 l 236 435 l 236 494 l 359 492 q 338 525 348 508 q 316 558 327 542 q 293 633 293 601 q 300 658 293 637 q 620 801 343 761 q 312 888 476 888 q 129 826 202 888 q 51 653 51 761 q 175 481 51 546 l 165 458 q 59 539 100 472 q 26 671 26 597 q 123 896 26 807 q 352 988 216 981 l 352 989 l 373 989 q 791 841 611 989 q 966 632 898 754 q 1039 369 1039 500 m 978 274 q 882 561 978 419 q 659 772 791 696 l 659 773 l 657 772 q 505 748 580 772 q 405 654 405 715 q 406 648 405 653 q 407 643 407 644 l 501 492 l 634 494 l 634 435 l 529 437 q 569 354 569 389 q 533 283 569 302 l 359 199 q 722 13 586 13 q 902 89 830 13 q 978 274 978 165 "},"I":{"x_min":30,"x_max":727,"ha":755,"o":"m 716 700 q 685 662 720 662 q 663 668 672 662 l 663 669 q 632 703 663 703 q 558 607 558 703 q 571 543 558 572 q 712 272 608 461 q 724 230 724 253 q 672 103 724 175 q 553 5 624 33 q 401 -22 503 -13 q 304 -26 353 -26 q 288 -36 297 -37 q 270 -26 275 -36 q 222 66 259 26 q 131 114 179 114 q 84 93 102 114 q 54 50 74 83 q 30 52 38 50 q 156 158 41 151 q 256 155 220 162 q 282 161 268 161 q 327 109 313 161 q 382 42 342 65 q 468 19 422 19 q 577 60 528 19 q 627 162 627 104 q 621 198 627 181 l 468 483 q 451 541 451 514 q 460 576 451 559 q 539 689 490 640 q 657 747 597 747 q 716 700 711 740 m 315 990 q 340 985 328 990 q 572 847 451 902 q 597 842 584 842 q 670 876 637 842 q 657 909 658 892 q 689 936 657 936 q 727 906 727 936 q 693 835 727 858 q 601 783 606 784 q 499 758 549 758 l 289 872 q 228 880 261 880 q 115 849 163 880 q 63 752 63 813 q 119 623 63 676 q 232 573 169 579 l 229 549 q 88 609 143 556 q 31 751 31 666 q 121 898 31 837 q 289 966 186 942 q 315 988 301 974 l 315 990 "},"G":{"x_min":76,"x_max":992,"ha":1027,"o":"m 570 1004 l 586 985 l 559 948 q 634 894 611 920 l 620 877 q 540 923 583 909 q 519 877 523 895 q 520 831 510 855 q 595 656 566 744 q 600 635 600 648 q 552 504 600 588 q 664 552 609 526 q 772 609 719 579 q 855 734 855 672 q 832 786 855 762 l 736 874 q 732 898 732 879 q 809 984 773 952 q 830 972 823 980 q 821 949 830 969 l 947 819 q 954 826 950 819 q 962 829 958 830 q 979 805 968 824 q 895 695 939 747 q 802 594 851 642 q 941 479 891 558 q 992 306 992 399 q 982 232 992 265 q 641 -29 921 -5 q 609 -31 625 -30 q 577 -32 593 -32 q 176 158 312 -32 q 76 508 76 300 q 76 533 76 520 q 77 558 76 545 q 172 843 86 726 q 427 978 268 978 q 523 962 470 978 l 570 1004 m 194 515 q 335 115 210 274 q 603 -10 433 -10 q 625 -9 614 -10 q 647 -7 636 -8 q 825 69 764 5 q 891 250 892 136 q 824 421 891 343 q 665 501 756 501 q 651 500 658 501 q 636 498 643 500 q 470 418 598 493 q 398 403 433 403 q 194 513 292 403 l 194 515 m 193 565 q 277 479 230 512 q 390 438 335 438 q 428 444 408 438 q 497 547 497 467 q 485 603 497 573 l 409 794 q 498 933 456 883 q 430 943 473 943 q 247 804 315 943 q 193 565 193 691 "},"`":{"x_min":84.734375,"x_max":291.6875,"ha":318,"o":"m 130 972 q 155 961 141 971 q 183 932 170 946 q 202 904 195 918 l 291 738 l 261 738 l 97 894 q 85 912 86 909 q 84 919 84 915 l 84 934 q 87 943 84 937 q 108 968 93 956 q 119 971 116 971 q 130 974 127 974 l 130 972 "},"╔":{"x_min":304,"x_max":998.4375,"ha":1013,"o":"m 422 -421 l 304 -421 l 304 610 l 998 610 l 998 492 l 422 492 l 422 -421 m 680 233 l 680 -421 l 561 -421 l 561 351 l 998 351 l 998 233 l 680 233 "},"r":{"x_min":24.09375,"x_max":386.796875,"ha":425,"o":"m 146 664 q 164 650 151 661 q 165 616 164 622 q 197 561 192 579 q 202 498 202 541 l 307 661 l 329 661 q 359 609 335 641 q 377 583 370 594 q 386 565 384 572 q 377 504 386 525 q 343 452 370 486 l 317 454 l 263 543 q 231 492 245 516 q 209 445 218 468 q 204 310 206 387 q 203 133 203 233 q 273 65 203 83 l 355 130 l 372 108 l 212 -36 q 186 -20 190 -29 q 193 -9 193 -23 l 64 62 l 64 65 q 69 84 64 69 q 104 109 99 100 q 113 152 108 118 l 113 473 q 78 543 113 520 q 40 516 60 516 q 24 530 29 516 l 146 664 "},"¿":{"x_min":35,"x_max":423.1875,"ha":396,"o":"m 269 411 q 282 287 282 358 q 231 146 282 214 q 184 89 208 118 q 137 32 161 59 q 86 -99 86 -33 q 130 -194 86 -156 q 230 -229 173 -229 q 294 -191 270 -229 q 309 -155 300 -173 q 324 -119 317 -137 q 371 -81 342 -81 q 423 -128 423 -81 q 407 -192 423 -173 q 339 -243 387 -220 q 259 -267 289 -267 q 94 -197 159 -267 q 35 -27 35 -131 q 89 134 35 59 q 140 191 115 162 q 192 250 166 221 q 247 373 247 314 q 243 411 247 378 l 269 411 m 276 707 q 301 652 276 673 q 353 622 309 644 q 355 609 355 619 l 355 606 q 351 595 353 604 q 305 573 326 586 q 289 551 298 563 q 270 520 281 538 l 263 519 q 256 519 261 519 q 246 520 252 519 q 218 570 246 543 q 168 598 190 598 l 168 626 q 196 635 182 627 q 222 654 211 643 q 240 679 233 665 q 246 707 247 693 l 276 707 "},"┐":{"x_min":-15.265625,"x_max":550,"ha":603,"o":"m 432 363 l -15 363 l -15 481 l 550 481 l 550 -421 l 432 -421 l 432 363 "},"ý":{"x_min":44.28125,"x_max":526,"ha":544,"o":"m 127 692 l 149 681 q 142 642 142 665 q 174 570 142 622 l 187 512 q 200 504 192 505 l 363 661 l 390 661 l 390 633 q 459 525 434 563 q 488 479 484 487 q 526 309 526 405 q 423 1 526 187 q 340 -133 386 -66 q 240 -268 294 -199 l 217 -255 q 267 -183 241 -223 q 322 -98 294 -144 q 377 -1 356 -41 q 404 63 397 38 l 443 206 q 444 225 444 209 q 297 548 444 422 q 243 506 267 529 q 200 459 219 483 q 195 369 197 415 q 194 275 194 323 q 212 80 194 93 q 223 77 214 80 l 226 77 q 287 116 258 77 l 301 93 q 248 50 272 70 q 207 10 225 30 q 193 -5 200 2 q 177 -24 186 -14 q 154 -29 172 -29 q 103 15 134 -29 q 84 24 93 19 q 65 34 75 29 q 61 61 61 43 l 61 64 q 91 90 78 65 q 104 132 104 112 l 104 458 q 77 504 92 481 q 44 548 62 526 q 127 691 66 630 l 127 692 m 341 1011 q 388 962 388 1011 q 374 931 388 944 l 210 774 l 181 774 l 269 941 q 341 1009 303 1009 l 341 1011 "},"x":{"x_min":44.453125,"x_max":511.15625,"ha":561,"o":"m 172 670 q 188 633 197 654 q 181 625 187 631 q 295 407 254 540 l 422 661 l 448 661 q 483 600 455 633 q 504 536 508 569 q 430 453 502 510 l 387 529 l 311 372 l 422 118 q 450 86 429 86 q 493 111 468 86 l 511 96 l 401 -33 l 384 -19 l 263 253 q 137 -21 170 17 q 108 -29 122 -35 q 105 -28 106 -28 l 44 83 l 94 178 l 116 178 l 163 101 l 248 293 q 156 496 165 479 q 112 547 155 500 l 63 517 l 50 532 l 172 670 "},"è":{"x_min":18.84375,"x_max":638.015625,"ha":614,"o":"m 592 839 q 493 877 543 877 q 424 790 424 877 q 463 618 424 734 l 578 618 l 578 540 l 463 540 q 454 91 463 291 q 428 -264 446 -108 l 404 -264 q 377 88 386 -77 q 369 407 369 255 q 369 473 369 440 q 370 540 369 507 l 174 539 q 175 461 175 498 q 175 387 175 423 q 165 78 175 241 q 138 -268 156 -84 l 116 -268 q 79 405 79 104 q 79 471 79 438 q 82 536 80 504 l 21 540 q 18 549 18 545 q 24 565 18 559 q 73 626 64 580 l 107 819 q 183 914 116 865 q 302 963 250 963 q 432 908 374 963 q 539 967 469 967 q 606 949 572 967 q 621 961 613 961 q 638 949 631 961 l 592 839 m 402 827 q 365 841 388 834 q 308 855 343 848 q 248 866 273 862 q 207 871 223 871 q 135 778 135 871 q 174 617 135 746 l 361 617 l 402 827 "},"º":{"x_min":42.609375,"x_max":403,"ha":445,"o":"m 203 176 l 194 179 q 42 236 162 208 l 42 250 q 46 271 42 259 q 69 391 69 294 q 66 487 69 436 q 57 594 63 537 l 290 685 q 317 648 312 672 l 308 643 q 403 447 403 515 q 222 176 403 257 l 217 175 q 202 175 205 172 l 199 176 l 203 176 m 46 6 l 46 63 l 397 64 l 397 6 l 46 6 m 310 436 l 301 441 q 205 597 301 444 l 161 580 l 161 302 q 256 263 244 263 q 300 319 286 263 q 310 402 310 356 q 303 444 310 419 l 310 436 "},"╝":{"x_min":-15.4375,"x_max":679,"ha":754,"o":"m 561 1264 l 679 1264 l 679 233 l -15 233 l -15 351 l 561 351 l 561 1264 m 303 610 l 303 1264 l 422 1264 l 422 492 l -15 492 l -15 610 l 303 610 "},"Ø":{"x_min":23.578125,"x_max":997,"ha":1033,"o":"m 820 1018 l 852 1001 q 824 946 841 978 q 786 869 808 913 q 945 712 888 827 q 997 489 997 610 q 976 357 997 399 l 908 219 q 638 12 861 121 q 475 -31 554 -31 q 316 17 441 -31 l 241 -104 l 208 -86 l 279 37 q 111 112 138 112 q 38 75 83 112 l 23 95 l 190 213 l 338 145 l 688 784 l 415 827 q 323 900 358 838 l 190 802 q 157 715 157 779 q 254 541 157 656 q 351 382 351 426 q 285 290 351 322 q 169 265 233 265 q 152 266 170 265 q 94 270 133 268 l 94 297 q 151 286 116 286 q 243 345 243 286 q 195 431 243 376 q 135 504 157 479 q 110 537 114 530 q 63 662 63 605 q 94 750 63 697 q 158 820 126 798 q 218 861 189 840 q 276 902 247 882 q 364 1003 361 966 q 378 1006 369 1006 l 380 1006 q 391 1003 380 1006 q 405 982 400 989 q 411 972 409 975 q 437 948 425 955 q 458 940 443 944 q 518 932 482 937 q 604 921 555 928 q 747 887 673 907 l 820 1018 m 726 765 l 372 122 q 424 96 398 108 q 477 70 451 83 q 588 45 536 45 q 723 86 649 45 q 926 474 926 203 q 869 651 926 565 q 726 763 808 741 l 726 765 "},"μ":{"x_min":113,"x_max":758.671875,"ha":785,"o":"m 113 632 l 228 632 l 238 112 q 265 58 238 80 q 325 36 292 36 q 487 322 442 36 q 495 372 495 373 l 495 632 l 617 632 l 617 87 q 630 52 617 69 q 662 36 644 36 q 711 80 692 36 q 726 149 726 117 q 725 179 725 156 l 757 180 q 758 149 758 174 q 625 -13 758 -13 q 553 14 583 -13 q 518 81 522 41 l 502 226 q 301 -13 454 -13 l 297 -13 l 293 -11 q 229 1 289 -11 q 146 116 162 48 q 179 -87 151 0 q 194 -128 186 -107 q 209 -168 202 -148 q 226 -250 226 -216 q 171 -303 226 -303 q 130 -283 148 -303 q 113 -241 113 -264 l 113 632 "},"÷":{"x_min":44.328125,"x_max":472.171875,"ha":501,"o":"m 237 256 l 267 256 q 287 212 272 227 q 339 179 308 191 l 339 152 q 326 144 333 150 q 308 131 319 138 q 280 113 300 123 q 271 88 275 105 q 267 75 268 80 q 261 73 264 75 q 255 72 258 72 l 247 72 l 246 73 l 243 73 q 228 95 237 83 q 207 123 219 108 q 167 145 183 140 l 161 177 q 208 206 189 187 q 235 248 226 225 l 235 251 l 236 252 l 237 254 l 237 255 l 237 256 m 239 753 l 267 753 q 304 691 276 711 q 313 686 308 689 q 325 680 318 683 q 333 678 328 679 q 346 675 339 678 l 346 647 q 299 621 321 639 q 285 598 293 611 q 265 568 276 586 q 262 567 264 568 q 258 566 260 566 l 246 566 q 239 568 240 566 l 239 573 q 237 579 239 577 q 229 601 237 593 q 176 641 212 629 q 169 646 174 641 l 165 647 q 161 648 164 648 l 161 675 q 187 688 174 680 q 214 707 200 696 q 239 751 232 725 l 239 753 m 44 458 l 472 458 l 472 385 l 44 385 l 44 458 "},"h":{"x_min":62.71875,"x_max":532,"ha":572,"o":"m 329 960 l 326 933 q 203 815 225 923 l 203 512 q 275 578 230 540 q 379 667 319 616 q 397 649 395 660 q 395 630 397 631 q 532 317 532 481 q 530 284 532 301 q 526 251 529 267 q 413 -17 477 91 q 246 -263 380 -73 l 224 -244 q 374 -9 315 -129 q 447 251 447 136 q 395 413 447 302 q 309 563 348 517 l 199 466 l 199 117 q 225 86 205 97 q 293 131 264 95 l 313 111 q 205 -14 239 48 q 168 -24 195 -24 l 167 -24 q 69 46 135 28 q 66 55 68 49 q 62 69 65 60 q 80 80 73 76 q 90 88 87 85 q 103 119 98 96 l 103 837 q 80 887 97 863 l 96 904 q 141 826 126 866 q 202 919 157 880 q 301 961 249 961 q 315 960 308 961 q 329 958 322 960 l 329 960 "},".":{"x_min":89,"x_max":264,"ha":313,"o":"m 89 58 q 114 120 89 94 q 176 147 140 147 q 238 120 212 147 q 264 58 264 94 q 238 -5 264 20 q 176 -32 212 -32 q 114 -5 140 -32 q 89 58 89 20 "},";":{"x_min":44.453125,"x_max":275.015625,"ha":313,"o":"m 179 159 l 205 159 q 216 156 208 159 q 244 135 231 152 q 254 109 254 126 q 245 81 254 95 q 79 -251 172 -100 q 66 -268 76 -262 q 62 -269 65 -269 l 58 -269 q 44 -267 52 -269 l 125 96 q 133 117 126 102 q 162 149 143 134 q 179 158 168 155 l 179 159 m 193 638 q 219 589 201 604 q 269 561 231 579 q 275 539 275 551 q 272 531 275 539 q 246 521 258 528 q 223 504 234 514 q 194 460 197 483 q 193 453 194 456 l 165 454 q 87 531 159 497 q 84 551 84 539 l 84 553 q 86 558 84 556 q 165 638 170 597 l 193 638 "},"f":{"x_min":41.46875,"x_max":419.40625,"ha":418,"o":"m 381 937 q 388 945 383 942 q 419 937 404 956 l 366 827 q 252 865 313 865 q 177 812 192 865 l 174 795 q 173 784 173 792 q 218 612 173 748 l 351 612 l 351 533 l 218 533 q 220 459 219 496 q 221 383 221 421 q 210 70 221 230 q 177 -260 200 -89 l 152 -260 q 111 412 111 108 q 111 472 111 442 q 112 533 111 502 l 43 533 q 45 558 38 538 q 58 568 52 563 q 71 578 64 573 q 102 621 98 599 l 142 812 q 302 954 185 954 q 381 937 340 954 "},"“":{"x_min":40.078125,"x_max":394.46875,"ha":486,"o":"m 326 625 q 243 693 258 625 q 241 803 229 762 q 285 878 251 837 q 341 938 319 919 l 359 922 q 308 827 341 892 q 326 763 275 763 q 394 693 394 763 q 326 625 394 625 m 130 625 q 47 693 62 625 q 45 803 33 762 q 89 878 55 837 q 145 938 123 919 l 163 922 q 112 827 145 892 q 130 763 79 763 q 198 693 198 763 q 130 625 198 625 "},"A":{"x_min":35.84375,"x_max":900.125,"ha":918,"o":"m 893 960 q 818 893 848 949 q 789 788 789 841 l 789 159 q 818 130 798 130 q 876 162 823 130 q 900 141 893 152 l 740 -33 l 718 -28 q 722 -1 722 -19 l 722 0 l 722 0 q 673 169 673 88 l 299 -31 l 281 -15 l 301 12 l 137 145 q 44 149 95 167 l 35 176 l 220 244 q 403 377 326 283 q 472 592 472 462 q 467 642 472 619 q 294 857 434 850 q 154 820 214 862 q 77 688 89 775 q 74 668 75 677 q 74 648 74 658 q 136 495 74 558 q 289 419 192 438 l 285 394 q 101 479 172 387 q 36 676 36 561 q 101 880 36 794 q 288 976 173 976 l 294 976 q 503 869 428 976 q 572 637 572 775 q 371 292 572 455 l 242 219 q 415 81 319 137 l 458 87 q 662 207 567 128 l 674 231 l 674 799 l 657 895 l 678 907 l 707 834 q 893 980 764 982 q 893 960 895 957 "},"6":{"x_min":71,"x_max":646,"ha":672,"o":"m 607 774 q 594 733 607 752 q 558 715 581 715 l 553 715 q 487 767 499 715 q 482 842 487 810 q 394 899 456 902 q 204 713 251 892 q 181 422 181 616 q 361 570 232 538 q 418 579 390 579 q 583 498 519 579 q 646 315 646 420 q 571 89 646 184 q 364 -15 489 -15 q 181 61 258 -15 q 78 236 114 128 q 73 294 75 264 q 71 358 71 325 q 142 733 71 576 q 400 925 231 929 q 607 776 596 920 l 607 774 m 191 231 q 240 84 196 154 q 364 1 292 1 q 494 68 448 0 q 536 230 536 127 q 532 294 536 261 q 490 422 520 366 q 390 506 450 493 q 345 513 365 513 q 223 430 266 513 q 189 265 189 362 q 189 248 189 256 q 191 231 189 240 "},"‘":{"x_min":40.078125,"x_max":198.625,"ha":360,"o":"m 130 625 q 47 693 62 625 q 45 803 33 762 q 89 878 55 837 q 145 938 123 919 l 163 922 q 112 827 145 892 q 130 763 79 763 q 198 693 198 763 q 130 625 198 625 "},"O":{"x_min":23.375,"x_max":998,"ha":1027,"o":"m 366 1010 q 392 1000 387 1005 q 488 931 419 955 q 540 920 507 926 q 620 909 573 915 q 696 899 664 904 q 748 887 728 894 q 932 730 863 845 q 998 492 998 623 q 920 231 998 351 q 719 49 848 119 q 445 -28 578 -28 q 385 -3 423 -21 q 291 41 347 13 q 126 110 188 92 q 40 73 78 103 l 23 92 l 190 213 q 473 75 349 156 q 591 48 531 48 q 634 52 615 48 q 844 202 759 80 q 929 454 929 320 q 928 472 929 463 q 926 491 927 481 q 750 755 905 683 q 627 792 709 774 q 421 824 545 809 q 324 899 357 833 q 162 715 162 809 q 167 673 162 691 q 245 548 177 637 q 294 487 269 518 q 343 426 319 456 q 353 383 353 405 q 287 288 353 337 q 179 259 237 259 q 102 267 148 259 l 94 297 q 216 299 133 280 q 243 354 243 320 q 226 395 243 376 q 65 645 71 554 l 65 648 l 65 651 q 146 811 65 741 q 223 865 185 839 q 299 919 260 891 q 366 1008 360 965 l 366 1010 "},"n":{"x_min":26.875,"x_max":582.390625,"ha":613,"o":"m 146 664 l 165 648 l 158 632 q 198 566 189 597 q 202 490 202 545 l 381 661 q 411 657 391 662 q 464 605 447 616 q 531 577 486 588 q 528 554 531 559 q 513 537 524 548 q 495 487 495 518 l 495 391 q 496 295 496 361 q 496 125 496 229 q 506 95 496 109 q 529 77 515 77 q 543 84 536 77 l 564 112 l 582 95 l 472 -36 q 457 -25 464 -34 q 404 38 450 16 l 404 497 q 337 552 366 552 q 282 520 316 552 q 243 484 263 502 q 205 447 224 466 l 205 108 q 246 54 214 72 q 245 36 252 48 q 199 9 210 23 q 183 -9 192 0 q 168 -31 175 -19 l 146 -31 q 66 34 120 20 q 65 57 65 35 q 114 113 114 99 q 114 186 114 142 q 113 288 114 230 l 113 466 q 78 543 113 520 q 65 529 72 537 q 46 509 57 520 q 26 530 36 516 l 146 664 "},"║":{"x_min":304,"x_max":680,"ha":758,"o":"m 561 -421 l 561 1264 l 680 1264 l 680 -421 l 561 -421 m 304 -421 l 304 1264 l 422 1264 l 422 -421 l 304 -421 "},"3":{"x_min":41.9375,"x_max":631,"ha":664,"o":"m 571 707 q 343 507 559 594 q 540 442 458 503 q 631 261 631 372 q 536 58 631 140 q 322 -19 446 -19 q 149 17 229 -19 q 42 146 53 62 q 54 203 39 178 q 102 229 71 229 q 153 203 135 229 q 170 147 170 179 q 165 114 170 143 q 168 80 163 93 q 322 3 193 3 q 475 75 425 3 q 516 244 521 140 q 497 323 513 286 q 454 388 481 360 q 390 435 426 417 q 310 461 353 454 q 289 462 303 462 q 267 460 281 462 q 238 455 253 458 q 210 451 224 453 q 188 448 196 448 l 188 479 q 279 507 235 489 q 364 551 322 525 q 470 693 470 618 q 460 743 470 718 q 435 789 451 768 q 398 825 420 810 q 351 850 376 841 q 290 860 322 860 q 172 823 233 860 q 85 741 107 787 l 64 757 q 108 828 81 796 q 169 883 135 861 q 244 918 204 905 q 328 931 285 931 q 496 876 426 931 q 571 725 571 818 l 571 707 "},"╣":{"x_min":-15.078125,"x_max":679,"ha":758,"o":"m 561 -421 l 561 1264 l 679 1264 l 679 -421 l 561 -421 m 422 1264 l 422 492 l -15 492 l -15 610 l 303 610 l 303 1264 l 422 1264 m 303 233 l -15 233 l -15 351 l 422 351 l 422 -421 l 303 -421 l 303 233 "},"9":{"x_min":60.40625,"x_max":642,"ha":705,"o":"m 323 924 q 550 815 462 924 q 641 576 629 719 q 642 553 642 565 q 642 530 642 542 q 568 183 642 346 q 305 -19 472 -19 q 168 18 227 -19 q 99 130 99 61 q 117 173 99 156 q 163 190 136 190 q 174 185 168 187 q 186 180 179 183 q 215 123 208 166 q 239 36 224 59 q 321 4 263 4 q 484 145 427 4 q 528 405 528 256 q 524 482 528 449 q 488 422 504 446 q 458 384 472 398 q 340 330 414 342 q 297 326 316 326 q 130 403 200 326 q 61 584 67 474 q 127 825 54 726 q 323 924 201 924 m 323 894 q 169 661 169 870 q 169 633 169 647 q 170 605 169 620 q 220 461 175 526 q 346 386 271 386 q 479 455 433 386 q 521 604 521 515 q 475 788 521 702 q 327 893 418 893 l 323 893 l 323 894 "},"l":{"x_min":65.21875,"x_max":347.171875,"ha":365,"o":"m 331 926 q 327 924 330 924 q 238 891 281 924 q 193 819 197 860 l 194 118 q 255 74 206 74 q 327 112 299 87 l 347 93 l 175 -38 q 158 -7 165 -36 l 158 -4 l 158 -1 l 69 41 q 65 59 64 53 q 103 109 96 81 l 103 791 q 73 884 103 823 l 86 899 q 141 821 127 862 q 208 926 172 902 q 331 951 238 944 l 331 926 "},"¤":{"x_min":37.875,"x_max":760.515625,"ha":790,"o":"m 78 814 l 214 682 q 398 742 295 742 q 584 680 502 742 l 718 814 l 760 775 l 623 641 q 686 456 686 559 q 623 274 686 353 l 760 141 l 718 101 l 584 236 q 398 171 503 171 q 214 234 295 171 l 78 101 l 37 141 l 174 276 q 113 456 113 352 q 174 640 113 559 l 37 775 l 78 814 m 398 693 q 233 622 300 690 q 167 457 167 555 q 234 289 167 358 q 398 220 304 220 q 562 290 492 220 q 633 457 633 362 q 563 622 633 553 q 398 692 494 692 l 398 693 "},"":{"x_min":41.15625,"x_max":574.453125,"ha":587,"o":"m 480 597 q 501 583 491 590 q 523 573 512 577 q 526 560 526 570 q 523 548 526 556 q 480 498 480 523 l 480 138 q 513 87 480 101 l 555 120 l 574 101 l 453 -28 l 446 -28 l 441 -25 q 386 47 421 27 l 386 512 q 373 533 386 521 q 267 533 306 533 q 218 536 229 534 q 219 497 219 516 q 219 459 219 479 q 177 -260 219 69 l 152 -260 q 111 412 111 108 q 111 472 111 442 q 112 533 111 502 l 43 537 q 41 545 41 539 q 46 562 41 556 q 102 621 93 578 l 142 812 q 159 855 142 813 q 234 926 177 896 q 341 951 288 951 q 470 903 402 951 q 508 796 508 876 q 436 701 508 701 q 374 783 374 701 q 386 830 374 815 q 343 860 378 846 q 288 872 310 872 q 211 845 246 872 q 173 781 173 819 q 217 598 173 735 l 480 597 "},"4":{"x_min":16.96875,"x_max":630.125,"ha":651,"o":"m 390 929 l 468 929 l 468 338 l 630 338 l 630 258 l 469 258 l 469 66 q 523 20 469 29 q 550 18 530 19 q 603 18 571 18 l 603 0 l 226 0 l 226 16 q 257 13 232 13 q 367 86 367 13 l 367 258 l 16 258 l 16 322 l 32 361 l 390 929 m 368 821 l 66 346 l 66 333 l 368 333 l 368 821 "},"p":{"x_min":29.21875,"x_max":533,"ha":561,"o":"m 126 693 q 145 674 141 686 q 137 644 145 658 q 199 522 192 590 l 411 668 l 422 648 l 409 631 q 437 585 423 608 q 466 538 451 562 q 529 404 519 451 q 533 365 533 384 q 304 -30 533 219 q 289 -33 297 -37 q 276 -20 277 -29 l 192 16 l 168 -259 l 141 -261 l 114 25 q 90 43 108 43 q 45 15 62 43 l 29 30 l 107 143 l 107 470 q 44 561 94 529 q 126 691 61 577 l 126 693 m 309 563 l 200 477 l 200 120 l 313 65 l 340 65 q 410 165 398 144 q 451 281 451 233 q 445 316 451 301 q 319 562 403 445 l 309 563 "},"│":{"x_min":433,"x_max":551,"ha":630,"o":"m 433 -421 l 433 1264 l 551 1264 l 551 -421 l 433 -421 "},"‡":{"x_min":102.078125,"x_max":594,"ha":600,"o":"m 538 -65 q 454 -41 514 -65 q 426 -30 439 -34 q 403 -23 412 -26 q 382 -19 396 -20 q 351 -17 369 -19 q 357 -57 354 -41 q 361 -80 360 -73 q 367 -96 364 -87 q 376 -119 371 -106 q 410 -229 410 -192 q 392 -274 410 -255 q 347 -293 375 -293 q 304 -273 321 -293 q 288 -226 288 -254 q 318 -117 288 -199 q 331 -71 325 -96 q 341 -17 338 -46 q 284 -23 299 -20 q 263 -30 275 -26 q 232 -42 250 -35 q 157 -65 182 -65 q 103 -12 103 -65 q 119 27 103 11 q 161 43 135 43 q 235 22 186 43 q 288 2 271 6 q 309 0 296 1 q 341 -2 322 -1 q 320 70 335 47 q 277 116 307 92 q 341 335 341 201 q 278 545 341 471 q 318 588 307 567 q 341 668 332 609 q 310 666 322 667 q 290 663 297 664 q 224 638 279 660 q 154 623 181 623 q 102 676 102 623 q 153 728 102 728 q 239 705 185 728 q 272 693 259 698 q 292 686 285 689 q 311 683 299 684 q 341 680 322 682 q 334 732 339 715 q 303 820 322 772 l 292 848 q 287 859 290 851 q 285 889 285 873 q 301 937 285 918 q 347 957 318 957 q 406 886 406 957 q 378 793 406 859 q 351 680 358 747 q 383 683 369 682 q 403 686 396 684 q 424 693 411 689 q 457 705 438 698 q 539 728 506 728 q 594 675 594 728 q 536 622 594 622 q 454 642 504 622 q 404 663 433 652 q 384 666 397 665 q 351 669 371 667 q 371 592 357 617 q 414 545 383 570 q 353 327 353 452 q 414 116 353 211 q 389 93 399 104 q 371 68 379 82 q 360 36 364 55 q 351 -8 355 18 q 382 -3 371 -5 q 399 0 393 -1 q 449 19 406 1 q 538 43 507 43 q 594 -9 594 43 q 538 -65 594 -65 "},"à":{"x_min":65,"x_max":853,"ha":870,"o":"m 173 150 q 244 95 187 122 q 351 69 298 69 q 426 119 418 69 l 425 611 l 326 519 q 292 519 306 512 l 206 584 l 167 547 q 151 330 151 455 q 173 150 151 181 m 490 -24 q 394 42 450 42 q 301 14 361 42 q 251 -10 276 2 q 199 -35 226 -22 q 185 -26 190 -31 l 185 -3 q 94 73 120 19 q 65 190 78 104 l 65 439 l 73 497 l 251 661 l 271 661 l 346 600 q 384 611 367 597 l 426 653 l 426 837 q 403 887 420 864 l 420 904 q 463 826 451 871 q 643 960 502 960 q 654 958 650 960 l 651 933 q 525 815 547 921 l 525 512 q 704 668 604 593 q 720 650 719 661 l 720 647 l 722 645 l 722 643 l 722 641 q 719 630 722 638 q 777 555 750 597 q 853 317 853 443 q 758 14 853 184 q 692 -88 739 -19 q 571 -263 646 -157 l 549 -244 q 763 229 763 24 q 648 540 763 387 q 616 559 636 556 l 521 466 l 521 127 q 547 87 521 87 q 618 131 580 87 q 629 102 634 112 q 617 90 627 101 q 586 56 607 79 q 550 15 564 33 q 529 -14 536 -2 q 491 -24 519 -24 l 490 -24 "},"Ü":{"x_min":18.046875,"x_max":802.671875,"ha":824,"o":"m 136 983 q 236 900 195 976 l 236 165 l 245 139 q 297 96 269 115 q 360 61 326 76 l 366 61 q 572 169 410 61 l 572 800 q 565 821 572 809 q 549 842 559 833 q 528 857 540 851 q 506 861 516 862 l 506 890 q 612 982 570 904 l 641 983 q 748 889 674 912 l 748 859 q 704 833 723 854 q 686 789 686 812 l 686 130 q 695 105 686 118 q 716 93 704 93 q 784 119 752 93 l 802 104 l 655 -31 l 624 -31 l 630 -9 q 568 131 568 15 q 460 65 524 104 q 308 -21 395 27 q 260 -29 291 -29 q 229 2 244 -29 l 90 75 q 86 94 86 84 l 87 97 l 87 101 q 125 179 125 139 l 127 805 q 102 844 127 829 l 98 844 l 95 846 l 91 846 q 36 833 62 846 l 18 858 l 136 983 m 524 1265 q 558 1216 558 1254 q 511 1137 558 1193 q 442 1066 470 1087 l 413 1065 l 463 1240 q 499 1265 488 1265 q 524 1263 522 1265 l 524 1265 m 326 1269 l 334 1270 q 384 1227 384 1272 q 380 1211 384 1219 q 376 1194 376 1198 l 290 1069 l 262 1069 l 279 1212 q 295 1246 281 1229 q 326 1268 309 1263 l 326 1269 "},"ó":{"x_min":19.84375,"x_max":618.015625,"ha":556,"o":"m 572 835 q 473 873 518 873 q 405 785 405 873 q 443 613 405 731 q 434 113 443 331 q 408 -268 426 -105 l 385 -268 q 364 66 373 -133 q 351 537 356 266 q 292 547 302 537 l 290 549 l 287 554 q 291 574 284 559 q 339 612 330 577 l 381 824 q 344 841 366 833 q 292 856 321 849 q 207 872 234 872 q 135 777 135 872 q 174 616 135 745 q 175 534 175 591 q 175 387 175 477 q 166 81 175 244 q 139 -268 157 -81 l 116 -268 q 89 88 98 -79 q 81 408 81 256 q 81 472 81 440 q 82 535 81 503 l 24 540 l 22 541 q 19 549 19 549 q 25 565 19 559 q 74 626 65 584 l 108 819 q 181 910 117 863 q 300 958 244 958 q 412 905 348 958 q 519 962 461 962 q 584 948 551 962 q 602 958 594 958 q 618 946 609 958 l 572 835 "}}}
